<?xml version="1.0" encoding="utf-8"?>
<!-- Generator: Adobe Illustrator 24.1.2, SVG Export Plug-In . SVG Version: 6.00 Build 0)  -->
<svg version="1.1" id="Layer_1" xmlns="http://www.w3.org/2000/svg" xmlns:xlink="http://www.w3.org/1999/xlink" x="0px" y="0px"
	 width="160px" height="92px" viewBox="0 0 160 92" style="enable-background:new 0 0 160 92;" xml:space="preserve">
<style type="text/css">
	.st0{fill:#FFFFFF;}
</style>
<path class="st0" d="M86.3,70.2c-0.2,0-0.2,0-0.3-0.2c0,0,0,0-0.2,0l0,0l0,0c-0.3-0.2-0.3-0.6-0.2-1.4c0-1.3,0.3-2.9,0.6-4.6
	c0.3-1.8,0.8-3.7,1.3-5.6c0.5-1.9,1.1-3.8,1.6-5.6c0.6-1.8,1.1-3.4,1.4-4.5c0.3-0.8,0.6-1.6,0.8-2.2c0.3-1,0.3-1.1,0.3-1.1
	c0-0.2,0-0.5,0.2-0.6c0.2-0.3,0.3-0.6,0.6-1.3c0-0.2,0.2-0.3,0.6-1.3c0.3-0.6,0.6-1.4,1-2.2c0.2-0.3,0.3-0.6,0.5-1.1
	c-0.5,0.6-1.1,1.3-1.8,1.9c-1.3,1.3-2.6,2.7-4,4.2c-0.6,0.6-1.4,1.4-2.4,2.2s-1.9,1.6-2.9,2.2c-1,0.6-2.1,1.3-3.2,1.8
	s-2.2,0.8-3.4,0.8c-0.6,0-1.3-0.2-1.8-0.3c-1-0.5-1.6-1.3-1.8-1.9c-0.3-0.6-0.3-1.6-0.3-2.6c0-0.6,0-1.1,0-1.6s0.2-1.1,0.3-1.8
	c0.2-0.6,0.3-1.3,0.6-2.1s0.6-1.8,1-3c0.3-1,0.6-1.8,0.8-2.4c0.3-1,0.3-1.1,0.3-1.1s0-0.2,0.2-0.3c0-0.2,0-0.3,0.2-0.3v-0.2
	c-0.2,0-0.6,0.3-2.7,2.2c-1.6,1.4-3.4,3.4-5.4,5.8c-1.4,1.6-2.6,2.7-3.2,3.4c-0.6,0.5-1.3,1-1.9,1l0,0c-1.1,0-1.9-0.5-2.2-1.3
	c-0.3-0.8-0.5-1.8-0.5-2.6c0-0.6,0-1.3,0-1.9c0-0.6,0.2-1.4,0.5-2.2c0.2-0.8,0.5-1.8,0.8-2.9c0.3-1.1,0.8-2.4,1.4-3.8
	c1.6-4.8,2.1-6.2,2.1-6.6l0,0l-0.3,0.2c-0.3,0.2-1,0.8-1.9,1.6c-1,0.8-1.8,1.8-2.6,2.7c-0.8,1-1.6,1.9-2.2,2.7
	c-0.6,1-1.3,1.9-1.9,2.9c-0.6,1.1-1.3,2.2-2.1,3.5c-0.8,1.3-1.6,2.9-2.6,4.6c-0.2,0.3-0.3,0.8-0.8,1.4c-0.3,0.6-0.8,1.4-1.3,2.1
	s-1,1.3-1.4,1.9c-0.6,0.6-1.1,1-1.4,1c-0.8,0-1.3-0.5-1.4-1.1s-0.3-1.3-0.3-1.8c-0.2-1.9,0-3.7,0.5-5.6c0.5-1.8,1.3-3.7,2.4-5.9
	c-2.1,1-4.2,1.8-6.4,2.2c-2.4,0.6-4.8,1-7.4,1h-1.1l-0.6,0.8c-0.5,0.6-1.1,1.3-1.9,1.9c-0.8,0.6-1.4,1.1-2.1,1.3
	c-0.2,0-0.3,0.2-0.5,0.2c-0.2,0-0.3,0-0.5,0c-0.5,0-0.8,0-1.1-0.2c-0.8-0.5-1.3-1-1.4-1.6c-0.8-1.1-0.8-1.8-0.8-2.6
	c0-0.6,0-1.1,0-1.4c0-0.3,0.2-0.6,0.3-1.1l0.3-1l-0.2-0.3h-0.2c-0.6,0.5-1.3,0.8-1.8,1c-0.3,0.2-0.5,0.2-0.6,0.5
	c-0.2,0.3-0.5,1-1.1,2.2c-0.6,1.1-1.4,2.6-2.6,4.3c-1.1,1.8-2.6,3.5-4,5.1c-1.4,1.8-3,3.2-4.6,4.3c-1.6,1.3-3.2,1.9-4.6,1.9
	c-0.3,0-0.6,0-0.8,0c-1.8-0.3-2.9-1.3-3.7-3.2c-0.6-1.8-0.8-4.2-0.5-7.2c0.3-2.2,0.8-4.8,1.8-7.5c0.8-2.7,1.9-5.6,3.4-8.5l0.8-1.8
	l-0.3-1c-0.8-1.9-1.1-3.8-1.1-5.9s0.3-4,0.8-5.9C6.1,11.4,7,9.6,8.2,8.2s2.6-2.7,4.2-3.5c0.6-0.3,1.3-0.6,1.8-0.8
	c0.5-0.2,1.1-0.2,1.9-0.3l0,0c2.7,0,5,0.8,6.6,2.4c1.6,1.6,2.9,3.7,3.5,6.1c0.6,2.7,0.8,5.8,0.3,9.3c-0.3,3.4-1.3,7-2.7,10.7
	L23,33.6c0.3-0.2,0.6-0.5,1-0.8v-0.2c0-0.6,0.2-1.1,0.3-1.6c0.5-1,1.3-1.8,2.4-2.4c1.1-0.6,2.2-1,3.2-1s1.8,0.3,2.6,0.8
	c1.9,1.6,2.1,4.5,0.5,8.2c0,0,0.2,0,0.3,0c0.8,0,1.6,0,2.4,0c0.8,0,1.6-0.2,2.4-0.2c1.4-0.3,3-0.6,4.8-1.3c1.8-0.5,3.4-1.3,4.8-2.1
	L48,33c0.5-0.8,0.8-1.3,1.1-1.8c0.5-0.6,1-1,1.4-1s0.8,0.2,1,0.5c0.2,0.3,0.3,0.8,0,1.3c-0.2,0.6-0.6,1.6-1.3,3
	c-1,2.1-1.6,3.7-2.2,5.1c-0.5,1.4-1,2.9-1.1,4.2c-0.2,0.6-0.2,1.3-0.3,1.8c0,0.3,0,0.5,0,0.5c0.2-0.2,0.3-0.3,0.6-0.6
	c0.5-0.5,1-1,1.1-1.4c0.2-0.2,0.5-0.6,1-1.4s1-1.8,1.4-2.7c1-1.8,1.9-3.4,2.7-4.6c0.8-1.4,1.8-2.7,2.6-3.8c0.8-1.3,1.8-2.4,2.6-3.4
	c0.8-1.1,1.8-2.1,2.7-3.2c1-1.1,1.8-1.8,2.2-2.1c0.5-0.5,1-0.6,1.4-0.6c0.6,0,1.1,0.2,1.4,0.6c0.3,0.5,0.3,1.1,0.3,2.2
	c0,0.8-0.2,1.9-0.3,3c-0.3,1.1-0.8,2.7-1.4,4.8c-1,2.9-1.6,5.1-2.1,6.4c-0.3,1.4-0.5,2.4-0.5,3.2c0,0.8,0.2,1.1,0.2,1.1
	c0.2,0,0.6-0.2,1.6-1c0.8-0.6,2.2-1.9,4.3-4c1.4-1.4,2.6-2.7,3.5-3.5c1-1,1.8-1.6,2.2-2.1c0.6-0.5,1-0.8,1.4-1
	c0.3-0.2,0.6-0.3,1-0.3c1.1,0,1.6,0.8,1.6,2.4c0,0.6-0.2,1.4-0.3,2.2c-0.2,1-0.6,2.2-1.1,4c-0.5,1.8-1,3.2-1.1,4.2
	c-0.2,1-0.3,1.8-0.3,2.4s0,0.8,0,1c0,0,0.2,0.2,0.3,0.5c0.3,0.3,0.8,0.5,1.4,0.5c1,0,2.1-0.3,3.2-0.8s2.4-1.3,3.8-2.4
	c1.4-1.1,2.9-2.4,4.3-3.7c1.4-1.3,2.7-2.7,4-4.2c1.3-1.4,2.2-2.6,3-3.5c0.3-0.3,0.5-0.6,0.6-0.8v-0.2l0.3-0.6c0.5-1,1-1.9,1.3-2.6
	c0.5-0.8,0.6-1.3,1-1.4c0.6-0.6,1-1,1.4-1c0.2,0,0.3,0,0.5,0.2c0.2,0.2,0.3,0.3,0.3,0.5c0,0.2,0,0.3-0.2,1.1c-0.2,0.5-0.5,1.3-1,2.2
	c-0.5,1-1,2.4-1.8,4.2c-0.8,1.9-1.3,3.2-1.6,4c0.3-0.3,0.6-0.8,1-1.1c0.5-0.6,1.1-1.4,2.1-2.4c0.8-1,1.8-1.9,2.9-2.9
	c1-1,2.1-1.8,3.2-2.4c1.1-0.6,2.1-1,3-1s1.6,0.5,2.1,1.3c0.3,0.3,0.3,1,0.3,1.6c0,0.6-0.3,1.3-0.6,1.9c-0.3,0.6-0.8,1.4-1.3,2.1
	c-0.5,0.8-1.1,1.4-1.9,2.2c-0.6,0.6-1.4,1.4-2.2,1.9l-0.5,0.3l0.8,0.2c2.4,0,4.6-0.3,6.9-0.8c2.2-0.5,4.5-1.4,6.4-2.6
	c0.6-0.3,1.3-0.8,2.1-1.4c0.8-0.6,1.4-1.1,2.2-1.8c0.6-0.6,1.4-1.1,1.9-1.8c0.5-0.5,1-1,1.3-1.4c0.3-1,0.6-2.1,1-3.2
	c1.1-3.4,2.4-6.7,3.8-10.1c2.1-3.4,3.7-6.4,5.6-9.4c1.9-2.9,4-5.3,6.4-6.9c2.4-1.8,4.5-2.7,6.4-2.7c1.6,0,2.7,1,2.9,2.9
	c0.2,1.1,0,2.2-0.3,3.7s-0.8,2.9-1.4,4.5c-0.6,1.6-1.6,3.2-2.6,5c-1,1.8-2.2,3.4-3.5,5.1c-4.2,5-9.1,9.3-14.4,12.6l-1.3,0.8
	l-0.3,1.4l-1,3.4c-0.3,1.1-0.6,2.1-0.8,2.9c-0.2,0.6-0.3,1.1-0.3,1.4c0.5-0.8,1.1-1.6,1.9-2.6c1-1.1,2.1-2.4,3.2-3.4
	c1.1-1.1,2.4-1.9,3.5-2.7c1.3-0.8,2.6-1.1,3.7-1.1c1.8,0,2.7,1.3,2.7,3.5c0,0.6-0.2,1.4-0.3,2.4c-0.2,0.8-0.6,2.2-1.1,4
	c-0.5,1.6-0.8,2.9-1,3.5c-0.2,0.6-0.2,1.3,0,1.6c0.2,0.3,0.2,0.3,0.2,0.3l0,0c0,0,0.2,0,0.5,0h0.6c0.8-0.2,2.2-0.6,4-1.8
	c1.9-1.1,3.8-2.4,5.8-3.8c1-0.8,2.2-1.9,3.7-3.4c1.4-1.4,2.7-2.7,3.8-4c0.6-0.6,1.1-1.3,1.4-1.4c0.3-0.3,0.5-0.5,0.6-0.5l0,0h0.2
	l0,0c0.2,0,0.3,0,0.5,0.2l0,0v0.2c0,0,0,0.2-0.3,0.6c-0.2,0.3-0.5,0.8-1,1.3s-0.8,1-1.3,1.6c-0.5,0.6-1,1.1-1.4,1.8
	c-0.6,0.8-1.8,1.8-3,3c-1.3,1.3-2.9,2.6-4.5,3.7c-1.6,1.3-3.2,2.2-4.8,3.2s-3,1.3-4.3,1.3c-0.6,0-1.1-0.2-1.4-0.3
	c-0.8-0.5-1.4-1.3-1.6-2.6c-0.2-0.8-0.2-1.9,0.2-3c0.3-1.1,0.8-2.6,1.4-4.5c0.5-1.4,0.8-2.4,1.1-2.9c0.2-0.6,0.3-1.1,0.3-1.6
	c0-0.8-0.3-1.1-1-1.1S137,35.5,136,36c-1,0.5-1.8,1.1-2.7,1.9c-0.8,0.8-1.8,1.4-2.4,2.2c-0.8,0.8-1.4,1.4-1.8,1.9
	c-0.5,0.5-0.8,1.1-1.3,1.8c-0.5,0.6-0.8,1.3-1.3,1.9c-0.3,0.6-0.6,1.1-1,1.6c-0.3,0.6-0.3,0.8-0.3,1c0,0.3-0.2,0.5-0.5,0.5
	c-0.2,0-0.3,0-0.5-0.2c-0.2-0.2-0.3-0.3-0.3-1.4c0-0.6,0-1.6,0.2-2.6c0.2-1,0.3-2.1,0.5-3.4c0.2-1.1,0.5-2.4,0.8-3.5
	c0.2-1,0.5-2.1,0.8-3.2c-2.9,2.7-5.9,5-9.1,6.2c-3.2,1.4-6.7,2.1-10.7,2.1h-3.5l-1,0.5c-1,0.6-2.2,1.1-3.4,1.6
	c-1.3,0.5-2.2,0.8-3,0.8c-0.5,0-0.6,0.2-0.6,0.2s-0.2,0.2-0.2,0.3c-0.5,1.6-1.3,4-2.4,7.2c-1.1,3.2-2.4,7.8-4.3,13.7
	C87,70,86.6,70.2,86.3,70.2z M8,29.4c-1.8,3.8-3,7-3.8,9.8c-0.8,2.7-1.4,5-1.6,7c-0.3,3.2,0.3,5.3,1.9,5.9c0.3,0.2,0.5,0.2,0.8,0.2
	c0.8,0,1.6-0.2,2.2-0.5c0.8-0.3,1.6-1,2.4-1.6c1-0.8,1.8-1.6,2.7-2.7c1-1,1.9-2.1,2.7-3.4c1-1.1,1.8-2.4,2.4-3.5
	c0.8-1.3,1.4-2.2,1.8-3.2c0.3-0.8,0.5-1.1,0.5-1.3l0,0c-2.1,0-4-0.5-5.9-1.6c-1.9-1-3.5-2.4-5-3.8l-1-1.4L8,29.4z M97.7,43.2
	c-0.6,0-1.1,0-1.4,0.2c-0.2,0.2-0.5,0.5-0.6,0.8l0.5-0.2c0.6-0.2,1.4-0.5,2.2-0.6l0.5-0.2h-0.3H97.7z M98.5,41.4c0.6,0,1.3,0,1.8,0
	c0.6,0,1,0.2,1.3,0.2c0,0,0.2,0,0.5-0.3c0.3-0.2,0.8-0.5,1.1-0.8c1.3-0.8,2.7-2.1,3.8-3.4c1.3-1.3,1.9-2.4,2.2-3.4
	c0.3-0.8,0.3-1.4,0.2-1.8c-0.2-0.2-0.5-0.3-1-0.3h-0.2c-0.8,0.2-1.8,0.6-2.9,1.3c-1.1,0.6-2.1,1.6-3.2,2.6c-1,1-1.9,1.9-2.9,3
	c-1,1-1.6,1.9-2.1,2.7v0.2C97.2,41.4,98.5,41.4,98.5,41.4z M27.2,36.6C27,37,27,37.4,26.9,37.9c-0.2,0.5-0.2,1-0.2,1.3
	c0,1.1,0.5,1.1,0.6,1.1c0.3,0,0.6-0.2,1-0.3c0.5-0.3,1-0.5,1.4-1c0.5-0.3,0.8-0.6,1.1-1l0.2-0.3l-0.8-0.2c-0.3-0.2-0.8-0.2-1.1-0.3
	c-0.5-0.2-0.8-0.3-1-0.3C27.3,36.6,27.2,36.6,27.2,36.6z M27.7,35.2c0,0,0.2,0.2,0.5,0.3c0.5,0.2,1,0.3,1.4,0.5
	c0.5,0.2,1,0.3,1.4,0.5c0.5,0.2,0.6,0.2,0.6,0.2s0.2-0.2,0.5-0.6c0.6-1.3,1-2.6,1-3.7c0-0.6,0-1,0-1c0-0.2-0.2-0.5-0.3-0.8
	c-0.5-1-1.1-1.4-2.1-1.4h-0.5c-0.6,0-1.3,0.2-1.9,0.5c-0.5,0.2-1.1,0.5-1.4,1c0.5,0,0.5,0.3,0.5,0.5c0,0.2,0,0.3,0,0.5
	c0.5-0.5,1-0.6,1.4-0.6c0.2,0,0.3,0,0.5,0.2c0.3,0.2,0.5,0.3,0.3,0.6c0,0.3-0.3,0.8-0.6,1.4c-0.3,0.5-0.6,1.1-1,1.6
	C27.7,34.9,27.7,35,27.7,35.2z M9.3,27.8c0.2,0.2,0.3,0.5,0.5,0.8c0.3,0.3,0.5,0.6,1,1.1c0.3,0.3,0.6,0.8,1.1,1.1
	c0.3,0.3,0.6,0.6,1,0.8c1,0.6,2.1,1.3,3.4,1.9s2.6,1,3.8,1h1.1l0.5-1.3c0.8-1.9,1.4-3.8,1.9-5.6c0.5-1.9,1-3.8,1.3-5.6
	c0.2-0.5,0.2-1.1,0.2-1.9s0-1.4,0-2.2c0-0.8,0-1.4,0-2.1c0-0.6-0.2-1.3-0.2-1.8c-0.2-1-0.5-2.1-1-3s-1-1.9-1.6-2.7
	c-0.6-0.8-1.4-1.4-2.2-2.1c-0.8-0.5-1.9-0.8-3-1c-1.3,0-2.4,0.2-3.4,0.6c-0.8,0.2-1.8,0.8-2.7,1.8c-1.8,1.8-3.2,4-4,6.6
	s-0.8,5.3-0.2,7.8C7,23.2,7,23.7,7.2,23.9c0.2-0.2,0.5-0.5,1-1.4c1-1.6,1.8-3.2,2.7-4.6s1.9-2.7,2.9-3.8c1-1.1,1.8-1.9,2.6-2.6
	c0.8-0.6,1.4-1,1.9-1c0.8,0,1,0.3,1.1,0.6c0,0.5-0.2,1-0.6,1.6c-1.3,1.4-2.9,3.4-4.3,5.8c-1.4,2.2-2.9,4.6-4,6.9l-1.1,2.1L9.3,27.8z
	 M149.5,1.5c-1,0-1.9,0.3-3,1.1c-1.1,0.6-2.1,1.6-3,2.6c-1,1-1.9,2.1-2.7,3.2c-0.8,1.1-1.4,2.1-1.9,2.7c-0.3,0.6-0.8,1.3-1.3,2.4
	c-0.5,1-1.1,2.1-1.6,3.2c-0.6,1.1-1.1,2.2-1.6,3.2c-0.5,1-0.8,1.9-1.1,2.6c-0.5,1.3-1,2.6-1.6,4s-1.1,3-1.6,4.5l-0.6,1.8l0.2-0.2
	c0.2-0.2,0.3-0.3,0.8-0.5c0.3-0.3,0.8-0.5,1.1-0.8c2.4-1.8,5-3.7,7.2-5.9s4.3-4.5,5.9-6.7c1.1-1.6,2.2-3.2,3-4.8
	c1-1.6,1.6-3.2,2.2-4.8c0.5-1.4,0.8-2.9,1-4s0-2.1-0.3-2.7C150.2,1.8,149.9,1.5,149.5,1.5z M134.4,78.2l-4,2.2l-2.7-1.6l4.3-1.9l0,0
	c0,0,0.2,0,0.2-0.2l0,0l0.2-0.2l0,0v-0.2c0,0,0,0,0-0.2c0,0,0,0,0-0.2V76l0,0c0,0,0,0,0-0.2c0,0,0-0.2-0.2-0.2c0,0-0.2,0-0.2-0.2
	c0,0,0,0-0.2,0l-4.3-1.9l2.7-1.6l4,2.2c0.2,0,0.2,0.2,0.3,0.2c0.3,0,0.5-0.2,0.6-0.3c0.2-0.3,0-0.8-0.3-1l-3.2-1.9l2.7-1.6
	c0.3-0.2,0.5-0.6,0.3-1c-0.2-0.3-0.6-0.5-1-0.3l-2.6,2.1v-3.7c0-0.3-0.3-0.6-0.6-0.6l0,0c-0.3,0-0.6,0.3-0.6,0.6v4.5l-2.7,1.6
	l0.5-4.8c0,0,0,0,0-0.2v-0.2v-0.2c0,0,0,0,0-0.2l0,0c0,0-0.2,0-0.2-0.2c0,0,0,0-0.2,0l0,0h-0.2l0,0c0,0,0,0-0.2,0h-0.2
	c0,0-0.2,0-0.2,0.2l0,0l0,0l0,0l-3.7,2.9v-3l4-2.2c0.3-0.2,0.5-0.6,0.3-1c-0.2-0.3-0.6-0.5-1-0.3l-3.2,1.9v-3.2
	c0-0.3-0.3-0.6-0.6-0.6c-0.3,0-0.6,0.3-0.6,0.6v3l-3.2-1.9c-0.3-0.2-0.8,0-1,0.3c-0.2,0.3,0,0.8,0.3,1L122,67v3l-3.8-2.9
	c0,0,0,0-0.2,0h-0.2h-0.2c0,0,0,0-0.2,0l0,0h-0.2l0,0c0,0,0,0-0.2,0c0,0-0.2,0-0.2,0.2l0,0c0,0,0,0,0,0.2v0.2v0.2c0,0,0,0,0,0.2
	l0.5,4.8l-2.7-1.6v-4.5c0-0.3-0.3-0.6-0.6-0.6l0,0c-0.3,0-0.6,0.3-0.6,0.6v3.7l-2.7-1.6c-0.3-0.2-0.8,0-1,0.3c-0.2,0.3,0,0.8,0.3,1
	l2.7,1.6l-3.2,1.9c-0.3,0.2-0.5,0.6-0.3,1c0.2,0.2,0.3,0.3,0.6,0.3c0.2,0,0.2,0,0.3-0.2l4-2.2L117,74l-5,1.8c0,0,0,0-0.2,0
	c0,0-0.2,0-0.2,0.2c0,0,0,0.2-0.2,0.2c0,0,0,0,0,0.2l0,0v0.2c0,0,0,0,0,0.2c0,0,0,0,0,0.2v0.2l0,0c0,0,0,0.2,0.2,0.2l0,0l0.2,0.2
	l0,0l4.3,1.9l-2.7,1.6l-4-2.2c-0.3-0.2-0.8,0-1,0.3s0,0.8,0.3,1l3.2,1.9l-2.7,1.6c-0.3,0.2-0.5,0.6-0.3,1c0.2,0.2,0.3,0.3,0.6,0.3
	c0.2,0,0.2,0,0.3-0.2l2.7-1.6v3.7c0,0.3,0.3,0.6,0.6,0.6l0,0c0.3,0,0.6-0.3,0.6-0.6V82l2.7-1.6l-0.5,4.8c0,0,0,0,0,0.2v0.2v0.2
	c0,0,0,0,0,0.2l0,0c0,0,0.2,0,0.2,0.2l0,0c0,0,0,0,0.2,0h0.2l0,0l0,0c0,0,0,0,0.2,0c0,0,0,0,0.2,0h0.2l0,0l3.8-2.9v3l-3.5,1.8
	c-0.3,0.2-0.5,0.6-0.3,1c0.2,0.3,0.6,0.5,1,0.3l3.2-1.9v3c0,0.3,0.3,0.6,0.6,0.6c0.3,0,0.6-0.3,0.6-0.6v-3l3.2,1.9
	c0.2,0,0.2,0.2,0.3,0.2c0.3,0,0.5-0.2,0.6-0.3c0.2-0.3,0-0.8-0.3-1l-4-2.2v-3l3.8,2.9c0,0,0,0,0.2,0l0,0h0.2l0,0h0.2c0,0,0,0,0.2,0
	s0.2-0.2,0.2-0.2l0,0c0,0,0,0,0-0.2v-0.2v-0.2c0,0,0,0,0-0.2l-0.5-4.8l2.7,1.6v4.5c0,0.3,0.3,0.6,0.6,0.6l0,0c0.3,0,0.6-0.3,0.6-0.6
	v-3.7l2.7,1.6c0.2,0,0.2,0.2,0.3,0.2c0.3,0,0.5-0.2,0.6-0.3c0.2-0.3,0-0.8-0.3-1l-2.7-1.6l3.2-1.9c0.3-0.2,0.5-0.6,0.3-1
	C135.2,78,134.7,78,134.4,78.2z M130.1,76.4l-3.7,1.6l-2.9-1.6l2.9-1.6L130.1,76.4z M126.1,69.4l-0.5,4.2l-2.9,1.6v-3.4L126.1,69.4z
	 M118,69.4l3.4,2.6v3.2l-2.9-1.6L118,69.4z M114,76.4l3.7-1.6l2.9,1.6l-2.9,1.6L114,76.4z M118,83.3l0.5-4.2l2.9-1.6v3.4L118,83.3z
	 M126.1,83.5l-3.4-2.6v-3.4l2.9,1.6L126.1,83.5z M144.3,64.1c0-0.2-0.2-0.3-0.3-0.5c-4.3-3.2-9.9-5.3-16-5.9c-0.2,0-0.2-0.2-0.3-0.2
	s-0.3,0-0.5,0c-4.5-0.5-9.4-0.3-14.4,0.6c-2.9,0.5-4.6,1-7.5,1.9c-0.8,0.3-3,1-4.2,1.3c-2.7,0.8-5.1,1.8-7.8,2.1
	c-0.5,0.2-1.1,0.2-1.6,0.2c-0.3,0.2-0.6,0.3-0.5,1c0,0.3,0.3,0.5,0.6,0.5c0.6-0.2,1.3-0.2,2.1-0.3c6.6-1,12.8-4.2,19.3-5.3
	c2.4-0.5,5-0.6,7.2-0.8l0,0c0,0,3-0.2,6.9,0.2l0,0l0,0c0.6,0,1.4,0.2,2.2,0.3h0.2c0.2,0,0.2,0,0.3,0c0,0,0,0,0.2,0
	c5.1,0.8,9.6,2.7,13.3,5.4c0.3,0.2,0.8,0.2,1-0.2C144.3,64.6,144.3,64.3,144.3,64.1z M82.6,64.6c-16.3,0.8-29.4-0.8-37.1-3.4
	c-5.1-1.6-7-2.9-8.2-3c-0.6,0-1.6,1.1,0.2,1.8c14.1,5.3,22.1,6.4,44.9,5.9c0.5-0.2,1-0.3,1-0.8C83.4,64.8,83,64.6,82.6,64.6z
	 M38.7,58.9L38.7,58.9c0-0.2,0-0.2,0-0.3l0,0c0,0,0,0,0-0.2c0,0,0-0.2-0.2-0.2c0,0-0.2,0-0.2-0.2c0,0,0,0-0.2,0l-4.3-1.9l2.9-1.6
	c0.3-0.2,0.5-0.6,0.3-1c-0.2-0.3-0.6-0.5-1-0.3l-2.9,1.6l0.5-4.8c0,0,0,0,0-0.2v-0.2v-0.2c0,0,0,0,0-0.2l0,0c0,0-0.2,0-0.2-0.2l0,0
	c0,0,0,0-0.2,0h-0.2l0,0h-0.2h-0.2c0,0-0.2,0-0.2,0.2l0,0l0,0l0,0l-3.8,3.2v-3.2c0-0.3-0.3-0.6-0.6-0.6c-0.3,0-0.6,0.3-0.6,0.6v3.2
	l-3.8-2.9c0,0,0,0-0.2,0h-0.2h-0.2h-0.2l0,0H23c0,0,0,0-0.2,0l0,0c0,0-0.2,0-0.2,0.2l0,0c0,0,0,0,0,0.2v0.2v0.2c0,0,0,0,0,0.2
	l0.5,4.8l-2.9-1.6c-0.3-0.2-0.8,0-1,0.3c-0.2,0.3,0,0.8,0.3,1l2.9,1.6l-4.3,1.9c0,0,0,0-0.2,0c0,0-0.2,0-0.2,0.2c0,0,0,0.2-0.2,0.2
	c0,0,0,0,0,0.2l0,0v0.2c0,0,0,0,0,0.2c0,0,0,0,0,0.2v0.2l0,0c0,0,0,0.2,0.2,0.2l0,0l0.2,0.2l0,0l4.3,1.9l-2.9,1.6
	c-0.3,0.2-0.5,0.6-0.3,1c0.2,0.2,0.3,0.3,0.6,0.3c0.2,0,0.2,0,0.3-0.2L23,63l-0.5,4.8c0,0,0,0,0,0.2v0.2v0.2c0,0,0,0,0,0.2l0,0
	c0,0,0.2,0,0.2,0.2l0,0c0,0,0,0,0.2,0H23l0,0l0,0c0,0,0,0,0.2,0c0,0,0,0,0.2,0h0.2l0,0l3.8-2.9v3.2c0,0.3,0.3,0.6,0.6,0.6
	s1-0.8,1-1.3v-3.2l3.8,2.9c0,0,0,0,0.2,0l0,0h0.2l0,0h0.2c0,0,0,0,0.2,0s0.2-0.2,0.2-0.2l0,0c0,0,0,0,0-0.2v-0.2v-0.2c0,0,0,0,0-0.2
	l-0.5-4.8L36,64c0.2,0,0.2,0.2,0.3,0.2c0.3,0,0.5-0.2,0.6-0.3c0.2-0.3,0-0.8-0.3-1l-2.9-1.6l4.3-1.9l0,0c0,0,0.2,0,0.2-0.2l0,0
	l0.2-0.2l0,0C38.7,59.2,38.7,59,38.7,58.9C38.7,59,38.7,59,38.7,58.9z M32.3,52l-0.5,4.2l-2.9,1.6v-3.4L32.3,52z M24.3,52l3.4,2.6
	v3.4l-2.9-1.6L24.3,52z M20.3,58.9l3.7-1.6l2.9,1.6L24,60.5L20.3,58.9z M24.3,65.9l0.5-4.2l2.9-1.6v3.4L24.3,65.9z M32.3,65.9
	l-3.4-2.4v-3.4l2.9,1.6L32.3,65.9z M29.7,58.9l2.9-1.6l3.7,1.6l-3.7,1.6L29.7,58.9z"/>
</svg>
