<svg id="showreel-triger-object" xmlns="http://www.w3.org/2000/svg" xmlns:xlink="http://www.w3.org/1999/xlink" 
shape-rendering="geometricPrecision" text-rendering="geometricPrecision" width="100px" height="100px" viewBox="0 0 100 100" 
style="enable-background:new 0 0 100 100;" xml:space="preserve">

<style type="text/css">
	#rotation-group {
      animation: rotateInfinite 7000ms linear infinite normal forwards
    }
    @keyframes rotateInfinite {
      0% {
        transform: translate(50px,50px) rotate(0deg);
        }
      100% {
        transform: translate(50px,50px) rotate(360deg);
        }
    }
</style>

<g id="rotation-group" transform="translate(50,50) rotate(360)">
<path fill="#D9AE96" transform="translate(-50,-50)" d="M60.7,10.4c-0.7-0.2-1.3-0.5-1.7-1s-0.7-1-0.8-1.7s-0.1-1.4,0.1-2.1C58.5,5,58.7,4.5,59,4.1s0.7-0.8,1.1-1
	c0.4-0.3,0.9-0.4,1.4-0.5s1-0.1,1.5,0.1c0.4,0.1,0.8,0.3,1,0.4c0.2,0.1,0.4,0.3,0.6,0.4c0.1,0.1,0.2,0.1,0.2,0.2
	c0.1,0.1,0.1,0.1,0.1,0.1c0.1,0,0.1,0,0.2,0s0.1-0.1,0.2-0.3l0.3,0.1l-0.4,1.2L64.9,6l-0.3-0.1c0.1-0.8,0-1.4-0.3-1.9
	s-0.8-0.9-1.4-1c-0.5-0.1-0.9-0.1-1.3,0s-0.7,0.3-1,0.6s-0.5,0.6-0.7,1S59.5,5.5,59.4,6c-0.2,0.7-0.3,1.4-0.3,2s0.2,1.1,0.5,1.4
	c0.3,0.4,0.7,0.7,1.4,0.8c0.5,0.1,0.9,0.1,1.3,0c0.4-0.1,0.7-0.3,1.1-0.6c0.3-0.3,0.5-0.7,0.7-1.1l0.3,0.1L64,9.9l-0.3,1.3L63.3,11
	v-0.1c0-0.1,0-0.2,0-0.3s-0.1-0.2-0.2-0.2c0,0-0.1,0-0.2,0c-0.1,0-0.2,0-0.3,0c-0.2,0-0.5,0.1-0.8,0.1
	C61.5,10.6,61.1,10.6,60.7,10.4z M68.9,13.7c-0.5-0.3-0.9-0.6-1.2-1c-0.3-0.4-0.5-0.8-0.7-1.3c-0.1-0.5-0.2-1-0.1-1.5
	s0.2-1.1,0.5-1.6s0.6-1,1-1.3s0.8-0.6,1.3-0.7c0.5-0.2,1-0.2,1.5-0.2s1,0.2,1.5,0.5s0.9,0.6,1.2,1c0.3,0.4,0.5,0.8,0.7,1.3
	c0.1,0.5,0.2,1,0.1,1.5s-0.2,1-0.5,1.6c-0.3,0.5-0.6,1-1,1.3s-0.8,0.6-1.3,0.8s-1,0.2-1.5,0.2C69.9,14.1,69.4,14,68.9,13.7z
	 M69,13.4c0.6,0.3,1.1,0.4,1.6,0.3c0.5-0.1,0.9-0.3,1.4-0.7s0.8-0.9,1.2-1.6c0.4-0.7,0.6-1.3,0.7-1.9c0.1-0.5,0-1-0.2-1.5
	s-0.6-0.8-1.2-1.1c-0.5-0.3-1-0.4-1.5-0.3s-1,0.3-1.4,0.7s-0.8,0.9-1.2,1.6c-0.4,0.7-0.6,1.3-0.7,1.9c-0.1,0.6,0,1.1,0.2,1.5
	C68.1,12.8,68.5,13.1,69,13.4z M73.5,16.1l0.2-0.2l0.2,0.1c0.2,0.2,0.4,0.3,0.5,0.3s0.3,0,0.4,0s0.3-0.3,0.6-0.5l3.3-3.6
	c0.2-0.3,0.4-0.5,0.5-0.6s0.1-0.3,0-0.4s-0.2-0.3-0.4-0.5l-0.1-0.2l0.2-0.2l1.2,1.1l0.5,0.4L78,18.3l6.4-2.7l0.5,0.4l1.2,1l-0.2,0.2
	l-0.2-0.1c-0.2-0.1-0.4-0.3-0.5-0.3s-0.3,0-0.4,0s-0.3,0.3-0.6,0.5L80.9,21c-0.2,0.3-0.4,0.5-0.5,0.6c-0.1,0.2-0.1,0.3,0,0.4
	s0.2,0.3,0.4,0.5l0.1,0.2l-0.2,0.2l-1.2-1.1l-1.2-1.1l0.2-0.2l0.2,0.1c0.2,0.2,0.4,0.3,0.5,0.3c0.1,0.1,0.3,0,0.4,0
	c0.1-0.1,0.3-0.3,0.6-0.5l3.8-4.2l-7.2,3l-0.2-0.1l2.7-7.1l-4,4.3c-0.2,0.2-0.3,0.3-0.3,0.4s0,0.3,0,0.4s0.2,0.3,0.3,0.5l0.1,0.2
	l0,0.2l-1-1L73.5,16.1z M81.6,24.3l0.2-0.2l0.1,0.2c0.2,0.2,0.3,0.3,0.4,0.4s0.3,0.1,0.4,0c0.2-0.1,0.4-0.2,0.7-0.4l4-2.8
	c0.3-0.2,0.5-0.4,0.6-0.5s0.1-0.3,0.1-0.4s-0.1-0.3-0.2-0.5l-0.1-0.2l0.2-0.2l0.9,1.3l0,0l1,1.3l-0.2,0.2l-0.1-0.2
	c-0.2-0.2-0.3-0.3-0.4-0.4s-0.3-0.1-0.4-0.1s-0.4,0.2-0.7,0.4l-4,2.8c-0.3,0.2-0.5,0.4-0.6,0.5s-0.1,0.3-0.1,0.4s0.1,0.3,0.2,0.5
	l0.1,0.2L83.5,27l-0.9-1.3l0,0L81.6,24.3z M84.5,28.3l0.2-0.1l0.1,0.2c0.1,0.2,0.3,0.4,0.4,0.5s0.2,0.1,0.4,0.1s0.4-0.1,0.7-0.3
	l5.1-2.4c0-0.1,0.1-0.2,0.1-0.4c0-0.2,0-0.4-0.1-0.6L91.3,25l0.3-0.1l0.9,1.9c-0.1,0.2-0.3,0.5-0.4,0.8c-0.2,0.3-0.4,0.7-0.6,1.1
	s-0.4,0.8-0.7,1.3c-0.2,0.4-0.4,0.8-0.6,1.2s-0.4,0.8-0.6,1.1c-0.2,0.3-0.3,0.6-0.4,0.8l3.8-1.8c0.3-0.2,0.6-0.3,0.7-0.4
	s0.2-0.2,0.2-0.4c0-0.1-0.1-0.3-0.2-0.6l-0.1-0.2l0.2-0.1l0.6,1.3l0.6,1.2l-0.2,0.1L94.6,32c-0.1-0.2-0.3-0.4-0.4-0.5
	s-0.2-0.1-0.4-0.1s-0.4,0.1-0.7,0.3l-5.7,2.7l-0.1-0.3c0.2-0.2,0.4-0.5,0.6-0.9s0.5-0.8,0.7-1.2c0.3-0.5,0.5-0.9,0.8-1.4
	s0.5-1,0.8-1.4s0.5-0.9,0.6-1.3c0.2-0.4,0.3-0.7,0.5-1l-4.7,2.2c-0.3,0.2-0.6,0.3-0.7,0.4s-0.2,0.2-0.2,0.4c0,0.1,0.1,0.3,0.2,0.6
	l0.1,0.2l-0.2,0.1l-0.6-1.3L84.5,28.3z M89,40.5c-0.1-0.7-0.1-1.3,0.1-1.9c0.2-0.6,0.6-1.1,1.1-1.6c0.5-0.4,1.2-0.8,2-0.9
	c0.6-0.1,1.1-0.1,1.7-0.1s1,0.3,1.4,0.5c0.4,0.3,0.8,0.6,1.1,1c0.3,0.4,0.5,0.8,0.6,1.3c0.1,0.3,0.1,0.6,0.1,0.9
	c0,0.3-0.1,0.5-0.1,0.7s-0.1,0.3-0.1,0.4c0,0.1,0,0.2,0,0.3s0.1,0.2,0.2,0.2s0.2,0,0.3,0l0.1,0.3l-1.2,0.2L95,42.1l-0.1-0.3
	c0.5-0.1,0.9-0.3,1.2-0.7c0.3-0.3,0.5-0.7,0.6-1.1s0.1-0.8,0-1.2c-0.2-0.8-0.6-1.4-1.3-1.7c-0.7-0.3-1.7-0.3-2.8,0
	c-1.2,0.3-2.1,0.7-2.6,1.3s-0.7,1.3-0.5,2.1c0.1,0.4,0.2,0.7,0.4,1c0.2,0.3,0.4,0.5,0.7,0.6s0.5,0.2,0.7,0.1l0.3-0.1
	c0.3-0.1,0.5-0.2,0.6-0.4s0.1-0.5,0.1-0.9l-0.1-0.5l0.3-0.1l0.3,1.8l0.4,1.6l-0.3,0.1l-0.1-0.5c-0.1-0.2-0.2-0.3-0.3-0.4
	c-0.2-0.1-0.4-0.1-0.7,0h-0.2c-0.2,0-0.3,0.1-0.4,0.2c-0.1,0.1-0.2,0.2-0.3,0.2l-0.2,0.2l-0.2-0.2c0.1-0.1,0.2-0.2,0.2-0.3
	s0-0.2,0-0.2c0-0.1-0.1-0.2-0.2-0.3s-0.2-0.2-0.3-0.3c-0.1-0.1-0.2-0.2-0.4-0.4c-0.1-0.1-0.3-0.3-0.4-0.6
	C89.2,41.1,89.1,40.8,89,40.5z M89.7,52.7c0-0.3,0.1-0.6,0.2-0.8s0.2-0.4,0.3-0.6c0.1-0.2,0.2-0.3,0.2-0.4c0.1-0.1,0.1-0.2,0.1-0.3
	s0-0.2-0.1-0.2s-0.2-0.1-0.3-0.1h-0.2V50l1.3,0.2l1.4,0.1v0.3l-0.5,0.1c-0.3,0.1-0.7,0.2-1,0.4s-0.6,0.4-0.8,0.7s-0.4,0.7-0.4,1.1
	c0,0.2,0,0.4,0.1,0.7c0.1,0.2,0.2,0.4,0.4,0.6c0.2,0.2,0.5,0.2,0.8,0.3c0.5,0,0.9-0.1,1.2-0.4s0.6-0.7,1-1.2l0.3-0.4
	c0.3-0.5,0.6-0.9,1-1.1c0.3-0.2,0.8-0.3,1.3-0.3c0.4,0,0.7,0.2,1,0.4s0.5,0.5,0.6,0.8s0.2,0.7,0.2,1.2c0,0.3-0.1,0.5-0.2,0.7
	s-0.2,0.4-0.3,0.5c-0.1,0.2-0.2,0.3-0.2,0.4c0,0.1,0.1,0.2,0.3,0.2v0.3l-1-0.1l-1-0.5v-0.3c0.4,0,0.8-0.1,1.1-0.2
	c0.3-0.2,0.5-0.4,0.7-0.6c0.2-0.2,0.3-0.5,0.3-0.8c0-0.4-0.1-0.8-0.3-1.1c-0.2-0.3-0.5-0.4-0.9-0.5c-0.4,0-0.8,0.1-1,0.3
	c-0.3,0.3-0.5,0.6-0.8,1l-0.3,0.4c-0.2,0.4-0.5,0.7-0.7,1s-0.5,0.5-0.8,0.6c-0.2,0.2-0.6,0.2-1,0.2s-0.8-0.2-1.1-0.4
	c-0.3-0.2-0.5-0.5-0.7-0.8C89.7,53.4,89.7,53.1,89.7,52.7z M88.2,60.5c0.2-0.5,0.4-1,0.7-1.4c0.3-0.4,0.7-0.7,1.2-0.9
	c0.4-0.2,0.9-0.4,1.5-0.4c0.5,0,1.1,0,1.6,0.2c0.6,0.2,1.1,0.4,1.5,0.7s0.7,0.7,1,1.1c0.2,0.4,0.4,0.9,0.4,1.4c0.1,0.5,0,1-0.2,1.5
	s-0.4,1-0.7,1.4c-0.3,0.4-0.7,0.7-1.2,0.9c-0.4,0.2-0.9,0.4-1.5,0.4s-1.1,0-1.6-0.2c-0.6-0.2-1.1-0.4-1.5-0.7
	c-0.4-0.3-0.8-0.7-1-1.1C88.2,63,88.1,62.5,88,62C88,61.5,88,61,88.2,60.5z M88.5,60.6c-0.2,0.6-0.2,1.1,0,1.6s0.5,0.9,1,1.2
	s1.1,0.6,1.8,0.8c0.7,0.2,1.4,0.3,2,0.3s1.1-0.2,1.5-0.5c0.4-0.3,0.7-0.7,0.9-1.4c0.2-0.6,0.2-1.1,0-1.6s-0.5-0.9-1-1.2
	s-1.1-0.6-1.8-0.8c-0.7-0.2-1.4-0.3-2-0.3s-1.1,0.2-1.5,0.5S88.7,60,88.5,60.6z M84.3,69.2c0.3-0.5,0.6-0.9,1-1.2
	c0.4-0.3,0.9-0.5,1.3-0.6c0.5-0.1,1-0.1,1.5,0s1,0.3,1.5,0.6c0.5,0.3,0.9,0.7,1.3,1.1c0.3,0.4,0.6,0.9,0.7,1.3
	c0.1,0.5,0.2,1,0.1,1.5s-0.2,1-0.5,1.5s-0.6,0.9-1,1.2s-0.9,0.5-1.3,0.6c-0.5,0.1-1,0.1-1.5,0s-1-0.3-1.5-0.6
	c-0.5-0.3-0.9-0.7-1.3-1.1c-0.3-0.4-0.6-0.9-0.7-1.3c-0.1-0.5-0.2-1-0.1-1.5C83.8,70.2,84,69.7,84.3,69.2z M84.6,69.4
	c-0.3,0.5-0.5,1.1-0.4,1.6s0.3,1,0.7,1.4s0.9,0.9,1.6,1.3s1.3,0.7,1.8,0.8c0.6,0.1,1.1,0.1,1.5-0.1c0.5-0.2,0.9-0.6,1.2-1.1
	c0.3-0.5,0.5-1.1,0.4-1.6s-0.3-1-0.6-1.4c-0.4-0.4-0.9-0.9-1.6-1.3s-1.3-0.7-1.8-0.8c-0.6-0.1-1.1-0.1-1.5,0.1
	C85.3,68.5,84.9,68.9,84.6,69.4z M81.6,73.7l0.2,0.2L81.6,74c-0.2,0.2-0.3,0.4-0.3,0.5c-0.1,0.1-0.1,0.3,0,0.4s0.3,0.3,0.5,0.6
	l4.1,3.9c0.1,0,0.2,0,0.4,0c0.2,0,0.3-0.1,0.5-0.3l0.2-0.2l0.2,0.2l-1.5,1.5c-0.2,0-0.5-0.1-0.9-0.1s-0.8-0.1-1.2-0.2
	c-0.5-0.1-0.9-0.1-1.4-0.2s-0.9-0.1-1.4-0.2c-0.5,0-0.9-0.1-1.2-0.1c-0.4,0-0.6-0.1-0.9-0.1l3,2.9c0.3,0.3,0.5,0.4,0.6,0.5
	s0.3,0.1,0.4,0s0.3-0.2,0.5-0.4l0.2-0.1l0.2,0.2l-1,1l-0.9,1l-0.2-0.2l0.1-0.2c0.2-0.2,0.3-0.4,0.3-0.5c0.1-0.1,0.1-0.3,0-0.4
	s-0.2-0.3-0.5-0.6l-4.6-4.4l0.2-0.2c0.3,0.1,0.6,0.2,1,0.2c0.4,0.1,0.9,0.2,1.4,0.2c0.5,0.1,1,0.2,1.6,0.2c0.5,0.1,1.1,0.1,1.6,0.2
	s1,0.1,1.5,0.1c0.4,0,0.8,0.1,1.1,0.1l-3.8-3.6c-0.3-0.3-0.5-0.4-0.6-0.5c-0.2-0.1-0.3-0.1-0.4,0s-0.3,0.2-0.5,0.3l-0.2,0.1
	l-0.2-0.2l1-1L81.6,73.7z M68.4,84.3c0.8-0.4,1.5-0.6,2.2-0.5c0.6,0.1,1.2,0.6,1.6,1.4l1.8,3.4c0.2,0.3,0.3,0.5,0.4,0.7
	s0.2,0.2,0.4,0.1c0.1,0,0.3-0.1,0.6-0.2l0.2-0.1l0.1,0.2L74.2,90l0,0l-1.4,0.8l-0.1-0.2l0.2-0.1c0.2-0.1,0.4-0.3,0.5-0.4
	s0.1-0.2,0.1-0.4s-0.1-0.4-0.3-0.7l-1.8-3.4c-0.4-0.6-0.8-1-1.4-1.2c-0.5-0.1-1.1-0.1-1.6,0.2c-0.7,0.3-1,0.8-1.1,1.3s0,1.1,0.3,1.7
	l1.8,3.4c0.2,0.3,0.3,0.5,0.4,0.7s0.2,0.2,0.4,0.1c0.1,0,0.3-0.1,0.6-0.2l0.2-0.1l0.1,0.2l-1.5,0.7l-1,0.5l-0.1-0.2l0.2-0.1
	c0.2-0.1,0.4-0.3,0.5-0.4s0.1-0.2,0.1-0.4s-0.1-0.4-0.3-0.7l-1.8-3.4c-0.4-0.8-0.5-1.4-0.3-2C67.1,85.2,67.6,84.7,68.4,84.3z
	 M63.9,86.5l0.1,0.3l-0.2,0.1c-0.2,0.1-0.4,0.2-0.5,0.3s-0.2,0.2-0.2,0.4s0,0.4,0.1,0.8l1.4,5.5c0.1,0.1,0.2,0.1,0.4,0.2
	c0.2,0.1,0.4,0.1,0.6,0l0.3-0.1l0.1,0.3l-2.1,0.5c-0.2-0.1-0.4-0.3-0.7-0.6c-0.3-0.2-0.6-0.5-1-0.8s-0.7-0.6-1.1-0.9
	c-0.4-0.3-0.8-0.6-1.1-0.9c-0.4-0.3-0.7-0.5-1-0.7s-0.5-0.4-0.7-0.5l1.1,4c0.1,0.4,0.2,0.6,0.3,0.7s0.2,0.2,0.3,0.2s0.3,0,0.6,0h0.2
	l0.1,0.3l-1.4,0.3l-1.3,0.4L58.1,96l0.2-0.1c0.2-0.1,0.4-0.2,0.5-0.3c0.1-0.1,0.2-0.2,0.2-0.4s0-0.4-0.1-0.8l-1.6-6.1l0.3-0.1
	c0.2,0.2,0.4,0.4,0.7,0.7s0.7,0.6,1.1,0.9s0.8,0.7,1.2,1s0.9,0.7,1.3,1c0.4,0.3,0.8,0.6,1.2,0.9s0.7,0.5,0.9,0.7l-1.3-5
	c-0.1-0.4-0.2-0.6-0.3-0.7s-0.2-0.2-0.4-0.2c-0.1,0-0.3,0-0.6,0h-0.2l-0.1-0.3l1.4-0.3L63.9,86.5z M54.9,88.7V89h-0.2
	c-0.3,0-0.5,0.1-0.6,0.1s-0.2,0.2-0.3,0.3c-0.1,0.2-0.1,0.4-0.1,0.8l0.1,4.9c0,0.4,0,0.6,0.1,0.8c0.1,0.2,0.2,0.3,0.3,0.3
	s0.3,0.1,0.6,0.1H55v0.3h-1.6h-1.6c-1,0-1.8-0.1-2.5-0.3c-0.7-0.2-1.2-0.7-1.6-1.2c-0.4-0.6-0.6-1.3-0.6-2.2c0-0.7,0.1-1.2,0.3-1.7
	s0.5-0.9,0.9-1.3c0.4-0.3,0.8-0.6,1.3-0.8c0.5-0.2,1-0.3,1.5-0.3l2.1-0.1L54.9,88.7z M52.1,89.2h-0.9c-0.9,0-1.6,0.3-2.1,0.9
	s-0.8,1.5-0.7,2.7c0,0.7,0.1,1.4,0.4,1.9c0.2,0.5,0.6,0.9,1.1,1.2c0.5,0.3,1.1,0.4,1.9,0.4h1.4l-0.1-5.9c0-0.2,0-0.4-0.1-0.6
	c0-0.2-0.1-0.4-0.2-0.5C52.4,89.2,52.3,89.2,52.1,89.2z M45.7,88.7L45.6,89h-0.2c-0.3,0-0.5,0-0.6,0s-0.3,0.1-0.3,0.3
	s-0.2,0.4-0.2,0.7l-0.9,4.8c-0.1,0.4-0.1,0.6-0.1,0.8c0,0.2,0.1,0.3,0.2,0.3c0.1,0.1,0.3,0.1,0.6,0.2l0.2,0.1l-0.1,0.3l-1.6-0.3
	l-4.2-0.8l0.1-0.8l0.1-1h0.3c0,0.3,0,0.6,0.1,0.8c0,0.2,0.1,0.4,0.3,0.5c0.1,0.1,0.3,0.2,0.6,0.3c0.3,0.1,0.6,0.2,1,0.2l1.4,0.3
	l0.6-3.2l-1.2-0.2c-0.1,0-0.3,0-0.4,0c-0.1,0-0.2,0.2-0.3,0.3s-0.2,0.4-0.3,0.8l-0.3-0.1l0.3-1.4l0.3-1.6l0.3,0.1
	c-0.1,0.5-0.1,0.9,0,1.2c0.1,0.2,0.3,0.4,0.5,0.4l1.2,0.2l0.5-2.7c0.1-0.3,0-0.6-0.1-0.7s-0.4-0.2-0.8-0.3l-1-0.2
	c-0.4-0.1-0.8-0.1-1,0c-0.3,0-0.5,0.2-0.6,0.5c-0.2,0.3-0.3,0.7-0.5,1.2l-0.3-0.1l0.3-1.3l0.2-1l4.4,0.8L45.7,88.7z M32.2,84.7
	c0.4,0.2,0.6,0.4,0.7,0.7s0.1,0.7,0,1.1c-0.1,0.3-0.1,0.6-0.2,0.9s0,0.6,0,0.9s0.2,0.6,0.4,0.8c0.2,0.2,0.5,0.5,1,0.6l0.4,0.2
	l0.9-2.2c0.1-0.3,0.2-0.6,0.2-0.7c0-0.2,0-0.3-0.1-0.4s-0.3-0.2-0.5-0.3l-0.2-0.1l0.1-0.3l1.5,0.6l0,0l1.5,0.6l-0.1,0.3l-0.2-0.1
	c-0.2-0.1-0.4-0.1-0.6-0.1s-0.3,0.1-0.4,0.2c-0.1,0.1-0.2,0.4-0.4,0.7l-1.9,4.5c-0.1,0.3-0.2,0.6-0.2,0.8s0,0.3,0.1,0.4
	s0.3,0.2,0.5,0.3l0.2,0.1l0.1,0.2l-1.5-0.6L32,93.2c-0.5-0.2-0.9-0.4-1.2-0.7s-0.6-0.6-0.7-0.9s-0.1-0.8,0.1-1.2
	c0.2-0.4,0.4-0.7,0.7-0.9s0.6-0.3,1-0.3c0.3,0,0.7,0,1.1,0.1c-0.5-0.2-0.8-0.6-1-1s-0.2-1,0-1.6c0.1-0.4,0.1-0.7,0.1-1
	s0-0.4-0.1-0.6s-0.2-0.2-0.3-0.3c-0.1,0-0.2,0-0.2,0h-0.2v-0.3c0.1,0,0.3,0,0.5,0S32,84.6,32.2,84.7z M32.1,92.9l1,0.4l1.3-3.2
	l-0.9-0.4c-0.7-0.3-1.2-0.3-1.5-0.2c-0.4,0.2-0.7,0.5-0.9,1C31,91.2,30.9,91.6,31,92C31.2,92.4,31.5,92.7,32.1,92.9z M24.1,79.2
	c0.6,0.5,1,1,1.1,1.6s0.2,1.2,0,1.9s-0.5,1.3-1,1.9c-0.4,0.4-0.8,0.8-1.3,1.1c-0.5,0.3-0.9,0.4-1.4,0.5s-1,0-1.4-0.1
	c-0.5-0.1-0.9-0.4-1.3-0.7c-0.3-0.3-0.6-0.6-0.8-0.8c-0.2-0.3-0.3-0.5-0.3-0.6s-0.1-0.2-0.1-0.3s-0.1-0.1-0.1-0.1
	c-0.1-0.1-0.1-0.1-0.2-0.1s-0.2,0.1-0.3,0.2l-0.2-0.2l0.8-1l0.8-1l0.2,0.2c-0.4,0.7-0.6,1.3-0.5,1.9s0.3,1.1,0.9,1.5
	c0.4,0.3,0.7,0.5,1.1,0.6s0.8,0,1.1-0.1s0.7-0.3,1.1-0.6s0.7-0.6,1-1c0.5-0.6,0.9-1.1,1.1-1.7c0.2-0.5,0.3-1,0.2-1.5
	c-0.1-0.5-0.4-0.9-0.9-1.3c-0.4-0.3-0.8-0.5-1.2-0.5c-0.4-0.1-0.8,0-1.2,0.1c-0.4,0.1-0.8,0.4-1.1,0.7L20,79.6l0.9-1l0.8-1l0.2,0.2
	l0.1-0.1c0,0.1-0.1,0.2-0.1,0.3s0,0.2,0.1,0.2c0,0,0.1,0.1,0.2,0.1s0.2,0,0.3,0.1c0.2,0,0.5,0.1,0.8,0.2
	C23.5,78.7,23.8,78.9,24.1,79.2z M18.1,72.8c0.3,0.4,0.6,0.9,0.7,1.4s0.1,1,0.1,1.5c-0.1,0.5-0.3,1-0.5,1.4s-0.7,0.9-1.1,1.2
	s-1,0.6-1.5,0.8c-0.5,0.1-1,0.2-1.5,0.1s-1-0.2-1.4-0.5s-0.8-0.6-1.2-1c-0.3-0.4-0.6-0.9-0.7-1.4c-0.1-0.5-0.1-1-0.1-1.5
	s0.3-1,0.5-1.4c0.3-0.4,0.7-0.9,1.1-1.2c0.5-0.4,1-0.6,1.5-0.8c0.5-0.1,1-0.2,1.5-0.1s1,0.2,1.4,0.5C17.4,72,17.8,72.4,18.1,72.8z
	 M17.9,73c-0.4-0.5-0.8-0.8-1.3-1s-1-0.1-1.5,0.1s-1.1,0.5-1.8,1s-1.1,0.9-1.4,1.4c-0.3,0.5-0.5,1-0.5,1.5s0.2,1,0.6,1.5
	c0.4,0.5,0.8,0.8,1.3,1c0.5,0.1,1,0.1,1.5-0.1s1.1-0.5,1.8-1s1.1-0.9,1.4-1.4s0.5-1,0.5-1.5S18.2,73.5,17.9,73z M15.1,68.6l-0.3,0.1
	l-0.1-0.2c-0.1-0.2-0.2-0.4-0.3-0.5s-0.2-0.1-0.4-0.1s-0.4,0.1-0.8,0.3L8,70.5c0,0.1-0.1,0.2-0.1,0.4c0,0.2,0,0.4,0.1,0.6l0.1,0.3
	l-0.3,0.1l-0.8-2c0.1-0.2,0.3-0.5,0.4-0.8C7.6,68.8,7.8,68.4,8,68s0.5-0.8,0.7-1.2C9,66.4,9.2,66,9.4,65.6s0.4-0.8,0.6-1.1
	s0.3-0.6,0.4-0.7l-3.8,1.7c-0.3,0.1-0.6,0.3-0.7,0.4s-0.2,0.2-0.2,0.4c0,0.1,0.1,0.3,0.1,0.6L6,67l-0.3,0.1l-0.6-1.3l-0.6-1.2
	l0.3-0.1L5,64.7c0.1,0.2,0.2,0.4,0.3,0.5c0.1,0.1,0.2,0.2,0.4,0.1c0.2,0,0.4-0.1,0.7-0.2l5.8-2.6l0.1,0.3c-0.2,0.2-0.4,0.5-0.6,0.8
	c-0.2,0.4-0.5,0.8-0.7,1.2c-0.3,0.4-0.5,0.9-0.8,1.4s-0.5,1-0.8,1.4c-0.3,0.5-0.5,0.9-0.7,1.3s-0.4,0.7-0.5,1l4.8-2.1
	c0.3-0.1,0.6-0.3,0.7-0.4c0.1-0.1,0.2-0.2,0.2-0.4c0-0.1-0.1-0.3-0.1-0.6l-0.1-0.2l0.3-0.1l0.5,1.3L15.1,68.6z M11,57.1
	c0.1,0.3,0.1,0.6,0,0.8c0,0.3-0.1,0.5-0.1,0.7c-0.1,0.2-0.1,0.3-0.1,0.4c0,0.1,0,0.2,0,0.3s0.1,0.2,0.2,0.2c0.1,0,0.2,0,0.3,0h0.2
	l0.1,0.3L10.2,60l-1.4,0.3L8.7,60l0.5-0.2c0.3-0.1,0.6-0.4,0.8-0.6c0.3-0.3,0.4-0.6,0.6-0.9c0.1-0.4,0.1-0.7,0.1-1.1
	c0-0.2-0.1-0.4-0.3-0.6c-0.1-0.2-0.3-0.3-0.6-0.4S9.3,56,9,56.1c-0.5,0.1-0.8,0.3-1.1,0.7c-0.2,0.4-0.4,0.9-0.6,1.5l-0.1,0.5
	c-0.1,0.6-0.3,1.1-0.6,1.4c-0.3,0.3-0.6,0.5-1.1,0.7C5.1,61,4.8,61,4.4,60.8c-0.3-0.1-0.6-0.3-0.9-0.6S3.1,59.6,3,59.1
	c-0.1-0.3-0.1-0.5,0-0.8s0.1-0.4,0.1-0.5c0.1-0.2,0.1-0.4,0-0.5c0-0.1-0.2-0.2-0.4-0.1l-0.1-0.3l1-0.2l1-0.2l0.1,0.3
	c-0.4,0.1-0.7,0.3-1,0.6c-0.2,0.2-0.4,0.5-0.5,0.8s-0.1,0.6,0,0.9c0.1,0.4,0.3,0.7,0.6,0.9s0.6,0.3,1,0.2s0.7-0.3,0.9-0.6
	s0.3-0.7,0.4-1.2l0.1-0.5c0.1-0.4,0.2-0.8,0.4-1.1s0.3-0.6,0.6-0.8c0.2-0.2,0.6-0.4,1-0.5c0.4-0.1,0.8-0.1,1.2,0s0.7,0.3,0.9,0.6
	C10.7,56.4,10.9,56.7,11,57.1z M10.1,51.4H9.8v-0.2c0-0.3-0.1-0.5-0.1-0.7c-0.1-0.2-0.2-0.3-0.3-0.3S8.9,50,8.6,50l-6,0.1v1.6
	c0,0.3,0.1,0.6,0.2,0.8c0.1,0.2,0.3,0.4,0.6,0.5s0.7,0.3,1.2,0.5l-0.1,0.2l-1.4-0.3l-0.9-0.1v-3.1v-1L2.1,46L3,45.9l1.3-0.3l0.1,0.2
	C4,46,3.6,46.2,3.3,46.3s-0.5,0.3-0.7,0.5c-0.1,0.2-0.2,0.4-0.2,0.8v1.6l6-0.1c0.4,0,0.6,0,0.8-0.1s0.3-0.2,0.3-0.3
	c0-0.2,0.1-0.4,0.1-0.7v-0.2h0.3v1.8L10.1,51.4z M11.5,38.2c-0.1,0.4-0.3,0.7-0.6,0.8s-0.7,0.2-1.1,0.2c-0.3,0-0.6,0-0.9,0
	S8.3,39.3,8,39.4c-0.3,0.1-0.5,0.3-0.7,0.6c-0.2,0.2-0.3,0.5-0.4,1l-0.1,0.5L9.1,42c0.4,0,0.6,0,0.8,0s0.3-0.1,0.4-0.2
	c0.1-0.1,0.2-0.3,0.2-0.5l0.1-0.2l0.3,0.1l-0.4,1.6l0,0l-0.3,1.6l-0.3-0.1v-0.2c0-0.3,0-0.5,0-0.6s-0.1-0.3-0.2-0.3
	C9.6,43.1,9.3,43,9,43l-4.8-1c-0.4-0.1-0.6-0.1-0.8-0.1S3.1,42,3,42.1c-0.1,0.1-0.1,0.3-0.2,0.6l-0.1,0.2l-0.3-0.1l0.4-1.6l0.3-1.5
	c0.1-0.5,0.2-0.9,0.4-1.3s0.5-0.7,0.8-0.9s0.7-0.3,1.2-0.2c0.4,0.1,0.8,0.3,1,0.5s0.4,0.5,0.5,0.9c0.1,0.3,0.1,0.7,0.1,1.1
	c0.1-0.5,0.4-0.9,0.8-1.2s0.9-0.4,1.6-0.4c0.4,0,0.7,0,1-0.1c0.2-0.1,0.4-0.1,0.5-0.2s0.2-0.2,0.2-0.3s0-0.2,0-0.2
	c0-0.1,0-0.2,0-0.2h0.3c0,0.1,0.1,0.3,0.1,0.5C11.5,37.8,11.5,38,11.5,38.2z M3.4,39.7l-0.2,1.1l3.4,0.7l0.2-0.9
	c0.1-0.7,0.1-1.2-0.1-1.5s-0.6-0.6-1.2-0.7c-0.5-0.1-1-0.1-1.3,0.1S3.5,39,3.4,39.7z M13.5,32.7c-0.4,0.8-0.8,1.4-1.4,1.7
	c-0.6,0.3-1.3,0.3-2.1-0.1l-3.6-1.6c-0.3-0.1-0.6-0.2-0.7-0.2s-0.3,0-0.4,0.1C5.2,32.8,5.1,33,5,33.2l-0.1,0.2l-0.3-0.1l0.7-1.5l0,0
	l0.6-1.5l0.3,0.1l-0.1,0.2C6,30.8,6,31,6,31.2c0,0.1,0,0.3,0.2,0.4s0.3,0.2,0.7,0.4l3.6,1.6c0.7,0.3,1.3,0.3,1.8,0.1
	s0.9-0.6,1.1-1.2c0.3-0.7,0.3-1.3,0.1-1.7c-0.2-0.5-0.7-0.8-1.3-1.1L8.5,28c-0.3-0.1-0.6-0.2-0.7-0.2s-0.3,0-0.4,0.1
	s-0.2,0.3-0.3,0.5L7,28.6l-0.3-0.1L7.4,27l0.4-1L8,26.1v0.2c-0.1,0.2-0.1,0.4-0.1,0.6c0,0.1,0,0.3,0.2,0.4c0.2,0.1,0.3,0.2,0.7,0.4
	l3.5,1.5c0.8,0.3,1.3,0.8,1.5,1.4C14,31.2,13.9,31.9,13.5,32.7z M18,25.1c-0.4,0.6-1,1-1.6,1.3s-1.2,0.3-1.9,0.2
	c-0.7-0.1-1.3-0.4-1.9-0.9c-0.5-0.3-0.9-0.7-1.1-1.2c-0.3-0.5-0.5-1-0.6-1.5s-0.1-1,0-1.4s0.3-0.9,0.6-1.3s0.5-0.6,0.8-0.8
	c0.3-0.2,0.4-0.3,0.6-0.4C13,19,13.1,19,13.1,19l0.1-0.1c0-0.1,0.1-0.1,0-0.2c0-0.1-0.1-0.2-0.2-0.3l0.2-0.2l1,0.8l1.1,0.7l-0.2,0.2
	c-0.7-0.4-1.3-0.5-1.9-0.4c-0.6,0.1-1.1,0.4-1.5,1c-0.3,0.4-0.4,0.8-0.5,1.2s0,0.8,0.2,1.1c0.2,0.4,0.4,0.7,0.7,1.1
	c0.3,0.3,0.7,0.7,1.1,1c0.6,0.5,1.2,0.8,1.7,1s1,0.2,1.5,0.1s0.9-0.5,1.3-1c0.3-0.4,0.4-0.8,0.5-1.2s0-0.8-0.2-1.2
	c-0.2-0.4-0.4-0.7-0.7-1l0.2-0.2l1.1,0.8l1.1,0.7l-0.2,0.2h-0.1c-0.1,0-0.2-0.1-0.3-0.1s-0.2,0-0.2,0.1c0,0-0.1,0.1-0.1,0.2
	s0,0.2-0.1,0.3c0,0.2-0.1,0.5-0.2,0.8S18.2,24.7,18,25.1z M22.3,20l-0.2-0.2l0.2-0.2c0.2-0.2,0.4-0.4,0.4-0.5c0.1-0.1,0.1-0.3,0-0.4
	c-0.1-0.2-0.2-0.4-0.4-0.6l-4-4.5l-1.2,1c-0.3,0.2-0.4,0.4-0.5,0.7c-0.1,0.2-0.1,0.5,0,0.8c0.1,0.3,0.2,0.7,0.4,1.2l-0.2,0.1
	l-0.7-1.2l-0.5-0.7l2.4-2l0.8-0.7l2.3-2.1l0.7,0.6l1.1,0.8l-0.1,0.2c-0.4-0.2-0.8-0.4-1.1-0.5s-0.6-0.2-0.8-0.2
	c-0.2,0-0.5,0.1-0.7,0.3l-1.2,1l4,4.5c0.2,0.3,0.4,0.4,0.6,0.5s0.3,0.1,0.5,0s0.3-0.2,0.6-0.4l0.2-0.1l0.2,0.2l-1.4,1.2L22.3,20z
	 M27.8,15.6l-0.1-0.2l0.2-0.1c0.2-0.2,0.4-0.3,0.4-0.4s0.1-0.2,0.1-0.4s-0.2-0.4-0.3-0.7l-2.5-4.2C25.3,9.2,25.1,9,25,8.9
	s-0.3-0.1-0.4-0.1S24.3,8.9,24.1,9l-0.2,0.1l-0.1-0.2L25.1,8l0,0l1.4-0.9l0.1,0.2l-0.2,0.1c-0.2,0.2-0.3,0.3-0.4,0.4
	s-0.1,0.3-0.1,0.4c0,0.2,0.2,0.4,0.3,0.7l2.5,4.2c0.2,0.3,0.3,0.5,0.5,0.6c0.1,0.1,0.3,0.1,0.4,0.1s0.3-0.1,0.6-0.2l0.2-0.1l0.1,0.2
	l-1.4,0.8l0,0L27.8,15.6z M35.8,11.6c-0.5,0.2-1,0.3-1.5,0.3s-1-0.1-1.4-0.4c-0.4-0.2-0.8-0.5-1.2-0.9c-0.4-0.4-0.6-0.9-0.8-1.4
	c-0.2-0.6-0.3-1.1-0.3-1.6s0.1-1,0.3-1.5c0.2-0.5,0.5-0.9,0.8-1.2C32,4.5,32.4,4.2,32.9,4c0.5-0.2,1-0.3,1.5-0.3s1,0.1,1.4,0.4
	C36.2,4.3,36.6,4.6,37,5s0.6,0.9,0.8,1.4C38,7,38.1,7.5,38.1,8S38,9,37.8,9.5s-0.5,0.9-0.8,1.2C36.8,11.1,36.3,11.4,35.8,11.6z
	 M35.7,11.3c0.6-0.2,1-0.6,1.3-1s0.4-0.9,0.4-1.5s-0.2-1.2-0.5-2c-0.3-0.7-0.6-1.3-1-1.8s-0.8-0.7-1.3-0.9C34.1,4,33.6,4,33,4.2
	s-1,0.5-1.3,1c-0.3,0.4-0.4,0.9-0.4,1.5s0.2,1.2,0.5,2c0.3,0.7,0.6,1.3,1,1.8c0.4,0.5,0.8,0.7,1.3,0.9
	C34.6,11.5,35.1,11.5,35.7,11.3z M40.7,9.8V9.5l0.2-0.1c0.3-0.1,0.4-0.1,0.6-0.2c0.1-0.1,0.2-0.2,0.2-0.3c0-0.2,0-0.4,0-0.8
	l-0.8-5.6c-0.1-0.1-0.2-0.1-0.3-0.2c-0.1-0.1-0.3-0.1-0.6-0.1h-0.3V1.9l2.1-0.3C42,1.8,42.2,2,42.4,2.2s0.6,0.6,0.9,0.9
	c0.3,0.3,0.7,0.7,1,1s0.7,0.7,1,1s0.6,0.6,0.9,0.9c0.3,0.3,0.5,0.5,0.6,0.6l-0.6-4.1C46,2.3,46,2,45.9,1.8c-0.1-0.1-0.2-0.2-0.3-0.3
	c-0.1,0-0.3,0-0.6,0h-0.2V1.2L46.2,1l1.3-0.2v0.3l-0.2,0.1c-0.2,0.1-0.4,0.1-0.6,0.2s-0.2,0.2-0.2,0.3s0,0.4,0,0.8l0.9,6.3h-0.3
	C47,8.6,46.7,8.3,46.5,8c-0.3-0.3-0.6-0.7-0.9-1.1c-0.4-0.4-0.7-0.8-1.1-1.2c-0.4-0.4-0.8-0.8-1.1-1.1c-0.4-0.4-0.7-0.7-1-1
	S41.8,3,41.6,2.8L42.3,8c0,0.4,0.1,0.6,0.2,0.8C42.6,9,42.7,9,42.8,9.1s0.3,0,0.6,0h0.2v0.3L42,9.6L40.7,9.8z"/>
</g>

  <path fill="#bf9986" d="M66.9,49.5C62.7,44.6,56.8,39,49,39c-3.1,0-6.1,0.9-9.1,2.8c-2.6,1.6-5.2,3.9-8.8,7.6H31l0.6,0.7
	C36.8,55.4,41.3,60,49,60c3.4,0,6.7-1.1,10.2-3.4c2.9-2,5.3-4.5,7.3-6.5L66.9,49.5L66.9,49.5z M49,40.5c3.1,0,6.1,0.9,9.1,2.9
	c2.3,1.4,4.5,3.4,6.9,6.2c-3.6,3.6-9,8.9-16,8.9c-3.2,0-6-0.8-8.8-2.7c-2.6-1.7-4.9-4.1-7.1-6.4C38.6,43.9,43.2,40.5,49,40.5z
	 M49,57c4.2,0,7.5-3.4,7.5-7.5S53.1,42,49,42s-7.5,3.4-7.5,7.5S44.9,57,49,57z M49,43.5c3.3,0,6,2.7,6,6s-2.7,6-6,6s-6-2.7-6-6
	C43,46.2,45.7,43.5,49,43.5z M52,49.5L52,49.5c0,1.6-1.3,3-3,3c-1.6,0-3-1.4-3-3.1s1.5-2.9,3-2.9V45c-2.5,0-4.5,2-4.5,4.5
	s2,4.5,4.5,4.5s4.5-2,4.5-4.5l0,0H52z"/>

</svg>
