<?xml version="1.0" encoding="utf-8"?>
<!-- Generator: Adobe Illustrator 24.1.2, SVG Export Plug-In . SVG Version: 6.00 Build 0)  -->
<svg version="1.1" id="Layer_1" xmlns="http://www.w3.org/2000/svg" xmlns:xlink="http://www.w3.org/1999/xlink" x="0px" y="0px"
	 width="120px" height="68px" viewBox="0 0 120 68" style="enable-background:new 0 0 120 68;" xml:space="preserve">
<style type="text/css">
	.st0{fill:#FFFFFF;}
</style>
<path class="st0" d="M64.5,52.5c-0.1,0-0.1,0-0.2-0.1c0,0,0,0-0.1,0l0,0l0,0c-0.2-0.1-0.2-0.5-0.1-1.1c0-1,0.2-2.2,0.5-3.5
	c0.2-1.3,0.6-2.7,1-4.2c0.4-1.4,0.8-2.9,1.2-4.2c0.5-1.3,0.8-2.5,1.1-3.3c0.2-0.6,0.5-1.2,0.6-1.7c0.2-0.7,0.2-0.8,0.2-0.8
	c0-0.1,0-0.4,0.1-0.5c0.1-0.2,0.2-0.5,0.5-1c0-0.1,0.1-0.2,0.5-1c0.2-0.5,0.5-1.1,0.7-1.7c0.1-0.2,0.2-0.5,0.4-0.8
	c-0.4,0.5-0.8,1-1.3,1.4c-1,1-1.9,2-3,3.1c-0.5,0.5-1.1,1.1-1.8,1.7c-0.7,0.6-1.4,1.2-2.2,1.7s-1.6,1-2.4,1.3s-1.7,0.6-2.5,0.6
	c-0.5,0-1-0.1-1.3-0.2c-0.7-0.4-1.2-1-1.3-1.4c-0.2-0.5-0.2-1.2-0.2-1.9c0-0.5,0-0.8,0-1.2c0-0.4,0.1-0.8,0.2-1.3
	c0.1-0.5,0.2-1,0.5-1.6c0.2-0.6,0.5-1.3,0.7-2.3c0.2-0.7,0.5-1.3,0.6-1.8c0.2-0.7,0.2-0.8,0.2-0.8s0-0.1,0.1-0.2
	c0-0.1,0-0.2,0.1-0.2v-0.1c-0.1,0-0.5,0.2-2,1.7c-1.2,1.1-2.5,2.5-4.1,4.3c-1.1,1.2-1.9,2-2.4,2.5c-0.5,0.4-1,0.7-1.4,0.7l0,0
	c-0.8,0-1.4-0.4-1.7-1c-0.2-0.6-0.4-1.3-0.4-1.9c0-0.5,0-1,0-1.4c0-0.5,0.1-1.1,0.4-1.7c0.1-0.6,0.4-1.3,0.6-2.2s0.6-1.8,1.1-2.9
	c1.2-3.6,1.6-4.7,1.6-4.9l0,0l-0.2,0.1c-0.2,0.1-0.7,0.6-1.4,1.2c-0.7,0.6-1.3,1.3-1.9,2c-0.6,0.7-1.2,1.4-1.7,2
	c-0.5,0.7-1,1.4-1.4,2.2c-0.5,0.8-1,1.7-1.6,2.6c-0.6,1-1.2,2.2-1.9,3.5c-0.1,0.2-0.2,0.6-0.6,1.1c-0.2,0.5-0.6,1.1-1,1.6
	s-0.7,1-1.1,1.4C35.6,36.8,35.3,37,35,37c-0.6,0-1-0.4-1.1-0.8c-0.1-0.5-0.2-1-0.2-1.3c-0.1-1.4,0-2.7,0.4-4.2
	c0.4-1.3,1-2.7,1.8-4.4c-1.6,0.7-3.1,1.3-4.8,1.7c-1.8,0.5-3.6,0.7-5.5,0.7h-0.8l-0.5,0.6c-0.4,0.5-0.8,1-1.4,1.4
	c-0.6,0.5-1.1,0.8-1.6,1c-0.1,0-0.2,0.1-0.4,0.1c-0.1,0-0.2,0-0.4,0c-0.4,0-0.6,0-0.8-0.1c-0.6-0.4-1-0.7-1.1-1.2
	C18,29.6,18,29.2,18,28.6c0-0.5,0-0.8,0-1.1c0-0.2,0.1-0.5,0.2-0.8l0.2-0.7l-0.1-0.2h-0.1c-0.5,0.4-1,0.6-1.3,0.7
	c-0.2,0.1-0.4,0.1-0.5,0.4c-0.1,0.2-0.4,0.7-0.8,1.7c-0.5,0.8-1.1,1.9-1.9,3.2c-0.8,1.3-1.9,2.6-3,3.8c-1.1,1.3-2.3,2.4-3.5,3.2
	c-1.2,1-2.4,1.4-3.5,1.4c-0.2,0-0.5,0-0.6,0c-1.3-0.2-2.2-1-2.7-2.4c-0.5-1.3-0.6-3.1-0.4-5.4c0.2-1.7,0.6-3.6,1.3-5.6
	c0.6-2,1.4-4.2,2.5-6.3l0.6-1.3l-0.2-0.7C3.7,17,3.5,15.5,3.5,14s0.2-3,0.6-4.4c0.5-1.1,1.2-2.4,2-3.5s1.9-2,3.1-2.6
	c0.5-0.2,1-0.5,1.3-0.6c0.4-0.1,0.8-0.1,1.4-0.2l0,0c2,0,3.7,0.6,4.9,1.8S19,7.2,19.5,9c0.5,2,0.6,4.3,0.2,6.9c-0.2,2.5-1,5.3-2,8
	l-0.5,1.2c0.2-0.1,0.5-0.4,0.7-0.6v-0.1c0-0.5,0.1-0.8,0.2-1.2c0.4-0.7,1-1.3,1.8-1.8s1.7-0.7,2.4-0.7c0.7,0,1.3,0.2,1.9,0.6
	c1.4,1.2,1.6,3.3,0.4,6.1c0,0,0.1,0,0.2,0c0.6,0,1.2,0,1.8,0c0.6,0,1.2-0.1,1.8-0.1c1.1-0.2,2.3-0.5,3.6-1c1.3-0.4,2.5-1,3.6-1.6
	l0.2-0.1c0.4-0.6,0.6-1,0.8-1.3c0.4-0.5,0.7-0.7,1.1-0.7c0.4,0,0.6,0.1,0.7,0.4c0.1,0.2,0.2,0.6,0,1c-0.1,0.5-0.5,1.2-1,2.3
	c-0.7,1.6-1.2,2.7-1.7,3.8c-0.4,1.1-0.7,2.2-0.8,3.1c-0.1,0.5-0.1,1-0.2,1.3c0,0.2,0,0.4,0,0.4c0.1-0.1,0.2-0.2,0.5-0.5
	c0.4-0.4,0.7-0.7,0.8-1.1c0.1-0.1,0.4-0.5,0.7-1.1c0.4-0.6,0.7-1.3,1.1-2c0.7-1.3,1.4-2.5,2-3.5c0.6-1.1,1.3-2,1.9-2.9
	c0.6-1,1.3-1.8,1.9-2.5c0.6-0.8,1.3-1.6,2-2.4c0.7-0.8,1.3-1.3,1.7-1.6c0.4-0.4,0.7-0.5,1.1-0.5c0.5,0,0.8,0.1,1.1,0.5
	c0.2,0.4,0.2,0.8,0.2,1.7c0,0.6-0.1,1.4-0.2,2.3c-0.2,0.8-0.6,2-1.1,3.6c-0.7,2.2-1.2,3.8-1.6,4.8c-0.2,1.1-0.4,1.8-0.4,2.4
	c0,0.6,0.1,0.8,0.1,0.8c0.1,0,0.5-0.1,1.2-0.7c0.6-0.5,1.7-1.4,3.2-3c1.1-1.1,1.9-2,2.6-2.6c0.7-0.7,1.3-1.2,1.7-1.6
	c0.5-0.4,0.7-0.6,1.1-0.7c0.2-0.1,0.5-0.2,0.7-0.2c0.8,0,1.2,0.6,1.2,1.8c0,0.5-0.1,1.1-0.2,1.7c-0.1,0.7-0.5,1.7-0.8,3
	c-0.4,1.3-0.7,2.4-0.8,3.1c-0.1,0.7-0.2,1.3-0.2,1.8s0,0.6,0,0.7c0,0,0.1,0.1,0.2,0.4c0.2,0.2,0.6,0.4,1.1,0.4
	c0.7,0,1.6-0.2,2.4-0.6c0.8-0.4,1.8-1,2.9-1.8s2.2-1.8,3.2-2.7c1.1-1,2-2,3-3.1c1-1.1,1.7-1.9,2.3-2.6c0.2-0.2,0.4-0.5,0.5-0.6v-0.1
	l0.2-0.5c0.4-0.7,0.7-1.4,1-1.9c0.4-0.6,0.5-1,0.7-1.1c0.5-0.5,0.7-0.7,1.1-0.7c0.1,0,0.2,0,0.4,0.1c0.1,0.1,0.2,0.2,0.2,0.4
	s0,0.2-0.1,0.8c-0.1,0.4-0.4,1-0.7,1.7c-0.4,0.7-0.7,1.8-1.3,3.1c-0.6,1.4-1,2.4-1.2,3c0.2-0.2,0.5-0.6,0.7-0.8
	c0.4-0.5,0.8-1.1,1.6-1.8c0.6-0.7,1.3-1.4,2.2-2.2c0.7-0.7,1.6-1.3,2.4-1.8c0.8-0.5,1.6-0.7,2.3-0.7s1.2,0.4,1.6,1
	c0.2,0.2,0.2,0.7,0.2,1.2s-0.2,1-0.5,1.4c-0.2,0.5-0.6,1.1-1,1.6c-0.4,0.6-0.8,1.1-1.4,1.7c-0.5,0.5-1.1,1.1-1.7,1.4L78,31.3
	l0.6,0.1c1.8,0,3.5-0.2,5.1-0.6c1.7-0.4,3.3-1.1,4.8-1.9c0.5-0.2,1-0.6,1.6-1.1c0.6-0.5,1.1-0.8,1.7-1.3c0.5-0.5,1.1-0.8,1.4-1.3
	c0.4-0.4,0.7-0.7,1-1.1c0.2-0.7,0.5-1.6,0.7-2.4c0.8-2.5,1.8-5,2.9-7.5c1.6-2.5,2.7-4.8,4.2-7.1c1.4-2.2,3-3.9,4.8-5.1
	c1.8-1.3,3.3-2,4.8-2c1.2,0,2,0.7,2.2,2.2c0.1,0.8,0,1.7-0.2,2.7s-0.6,2.2-1.1,3.3s-1.2,2.4-1.9,3.7c-0.7,1.3-1.7,2.5-2.6,3.8
	c-3.1,3.7-6.8,6.9-10.8,9.4l-1,0.6l-0.2,1.1l-0.7,2.5c-0.2,0.8-0.5,1.6-0.6,2.2c-0.1,0.5-0.2,0.8-0.2,1.1c0.4-0.6,0.8-1.2,1.4-1.9
	c0.7-0.8,1.6-1.8,2.4-2.5c0.8-0.8,1.8-1.4,2.6-2c1-0.6,1.9-0.8,2.7-0.8c1.3,0,2,1,2,2.6c0,0.5-0.1,1.1-0.2,1.8
	c-0.1,0.6-0.5,1.7-0.8,3c-0.4,1.2-0.6,2.2-0.7,2.6c-0.1,0.5-0.1,1,0,1.2c0.1,0.2,0.1,0.2,0.1,0.2l0,0c0,0,0.1,0,0.4,0h0.5
	c0.6-0.1,1.7-0.5,3-1.3c1.4-0.8,2.9-1.8,4.3-2.9c0.7-0.6,1.7-1.4,2.7-2.5c1.1-1.1,2-2,2.9-3c0.5-0.5,0.8-1,1.1-1.1
	c0.2-0.2,0.4-0.4,0.5-0.4l0,0h0.1l0,0c0.1,0,0.2,0,0.4,0.1l0,0v0.1c0,0,0,0.1-0.2,0.5c-0.1,0.2-0.4,0.6-0.7,1
	c-0.4,0.4-0.6,0.7-1,1.2s-0.7,0.8-1.1,1.3c-0.5,0.6-1.3,1.3-2.3,2.3c-1,1-2.2,1.9-3.3,2.7c-1.2,1-2.4,1.7-3.6,2.4
	c-1.2,0.7-2.3,1-3.2,1c-0.5,0-0.8-0.1-1.1-0.2c-0.6-0.4-1.1-1-1.2-1.9c-0.1-0.6-0.1-1.4,0.1-2.3c0.2-0.8,0.6-1.9,1.1-3.3
	c0.4-1.1,0.6-1.8,0.8-2.2c0.1-0.5,0.2-0.8,0.2-1.2c0-0.6-0.2-0.8-0.7-0.8s-1.1,0.2-1.8,0.6s-1.3,0.8-2,1.4c-0.6,0.6-1.3,1.1-1.8,1.7
	c-0.6,0.6-1.1,1.1-1.3,1.4c-0.4,0.4-0.6,0.8-1,1.3s-0.6,1-1,1.4c-0.2,0.5-0.5,0.8-0.7,1.2c-0.2,0.5-0.2,0.6-0.2,0.7
	c0,0.2-0.1,0.4-0.4,0.4c-0.1,0-0.2,0-0.4-0.1c-0.1-0.1-0.2-0.2-0.2-1.1c0-0.5,0-1.2,0.1-1.9s0.2-1.6,0.4-2.5
	c0.1-0.8,0.4-1.8,0.6-2.6c0.1-0.7,0.4-1.6,0.6-2.4c-2.2,2-4.4,3.7-6.8,4.7c-2.4,1.1-5,1.6-8,1.6H77l-0.7,0.4
	c-0.7,0.5-1.7,0.8-2.5,1.2c-1,0.4-1.7,0.6-2.3,0.6c-0.4,0-0.5,0.1-0.5,0.1s-0.1,0.1-0.1,0.2c-0.4,1.2-1,3-1.8,5.4
	c-0.8,2.4-1.8,5.9-3.2,10.3C65,52.3,64.8,52.5,64.5,52.5z M6,22c-1.3,2.9-2.3,5.3-2.9,7.3S2,33,1.9,34.5c-0.2,2.4,0.2,3.9,1.4,4.4
	c0.2,0.1,0.4,0.1,0.6,0.1c0.6,0,1.2-0.1,1.7-0.4c0.6-0.2,1.2-0.7,1.8-1.2c0.7-0.6,1.3-1.2,2-2c0.7-0.7,1.4-1.6,2-2.5
	c0.7-0.8,1.3-1.8,1.8-2.6c0.6-1,1.1-1.7,1.3-2.4c0.2-0.6,0.4-0.8,0.4-1l0,0c-1.6,0-3-0.4-4.4-1.2c-1.4-0.7-2.6-1.8-3.7-2.9l-0.7-1.1
	L6,22z M73,32.3c-0.5,0-0.8,0-1.1,0.1c-0.1,0.1-0.4,0.4-0.5,0.6l0.4-0.1c0.5-0.1,1.1-0.4,1.7-0.5l0.4-0.1h-0.2H73z M73.6,31
	c0.5,0,1,0,1.3,0c0.5,0,0.7,0.1,1,0.1c0,0,0.1,0,0.4-0.2c0.2-0.1,0.6-0.4,0.8-0.6c1-0.6,2-1.6,2.9-2.5c1-1,1.4-1.8,1.7-2.5
	c0.2-0.6,0.2-1.1,0.1-1.3c-0.1-0.1-0.4-0.2-0.7-0.2h-0.1c-0.6,0.1-1.3,0.5-2.2,1c-0.8,0.5-1.6,1.2-2.4,1.9c-0.7,0.7-1.4,1.4-2.2,2.3
	c-0.7,0.7-1.2,1.4-1.6,2V31C72.7,31,73.6,31,73.6,31z M20.3,27.4c-0.1,0.2-0.1,0.6-0.2,1C20,28.7,20,29,20,29.3
	c0,0.8,0.4,0.8,0.5,0.8c0.2,0,0.5-0.1,0.7-0.2c0.4-0.2,0.7-0.4,1.1-0.7c0.4-0.2,0.6-0.5,0.8-0.7l0.1-0.2l-0.6-0.1
	C22.3,28,22,28,21.8,27.8c-0.4-0.1-0.6-0.2-0.7-0.2C20.4,27.4,20.3,27.4,20.3,27.4z M20.7,26.3c0,0,0.1,0.1,0.4,0.2
	c0.4,0.1,0.7,0.2,1.1,0.4c0.4,0.1,0.7,0.2,1.1,0.4c0.4,0.1,0.5,0.1,0.5,0.1s0.1-0.1,0.4-0.5c0.5-1,0.7-1.9,0.7-2.7
	c0-0.5,0-0.7,0-0.7c0-0.1-0.1-0.4-0.2-0.6c-0.4-0.7-0.8-1.1-1.6-1.1h-0.4c-0.5,0-1,0.1-1.4,0.4c-0.4,0.1-0.8,0.4-1.1,0.7
	c0.4,0,0.4,0.2,0.4,0.4s0,0.2,0,0.4c0.4-0.4,0.7-0.5,1.1-0.5c0.1,0,0.2,0,0.4,0.1c0.2,0.1,0.4,0.2,0.2,0.5c0,0.2-0.2,0.6-0.5,1.1
	c-0.2,0.4-0.5,0.8-0.7,1.2C20.7,26.1,20.7,26.2,20.7,26.3z M6.9,20.8c0.1,0.1,0.2,0.4,0.4,0.6c0.2,0.2,0.4,0.5,0.7,0.8
	c0.2,0.2,0.5,0.6,0.8,0.8c0.2,0.2,0.5,0.5,0.7,0.6c0.7,0.5,1.6,1,2.5,1.4c1,0.5,1.9,0.7,2.9,0.7h0.8l0.4-1c0.6-1.4,1.1-2.9,1.4-4.2
	c0.4-1.4,0.7-2.9,1-4.2c0.1-0.4,0.1-0.8,0.1-1.4c0-0.6,0-1.1,0-1.7c0-0.6,0-1.1,0-1.6c0-0.5-0.1-1-0.1-1.3c-0.1-0.7-0.4-1.6-0.7-2.3
	s-0.7-1.4-1.2-2s-1.1-1.1-1.7-1.6c-0.6-0.4-1.4-0.6-2.3-0.7c-1,0-1.8,0.1-2.5,0.5C9.6,4.5,8.8,5,8.1,5.7c-1.3,1.3-2.4,3-3,4.9
	S4.5,14.6,5,16.5c0.2,0.8,0.2,1.2,0.4,1.3c0.1-0.1,0.4-0.4,0.7-1.1c0.7-1.2,1.3-2.4,2-3.5s1.4-2,2.2-2.9C11,9.6,11.6,9,12.2,8.5
	c0.6-0.5,1.1-0.7,1.4-0.7c0.6,0,0.7,0.2,0.8,0.5c0,0.4-0.1,0.7-0.5,1.2c-1,1.1-2.2,2.5-3.2,4.3c-1.1,1.7-2.2,3.5-3,5.1l-0.8,1.6
	L6.9,20.8z M111.7,1.1c-0.7,0-1.4,0.2-2.3,0.8c-0.8,0.5-1.6,1.2-2.3,1.9c-0.7,0.7-1.4,1.6-2,2.4s-1.1,1.6-1.4,2
	c-0.2,0.5-0.6,1-1,1.8c-0.4,0.7-0.8,1.6-1.2,2.4c-0.5,0.8-0.8,1.7-1.2,2.4c-0.4,0.7-0.6,1.4-0.8,1.9c-0.4,1-0.7,1.9-1.2,3
	c-0.5,1.1-0.8,2.3-1.2,3.3l-0.5,1.3l0.1-0.1c0.1-0.1,0.2-0.2,0.6-0.4c0.2-0.2,0.6-0.4,0.8-0.6c1.8-1.3,3.7-2.7,5.4-4.4
	c1.7-1.7,3.2-3.3,4.4-5c0.8-1.2,1.7-2.4,2.3-3.6c0.7-1.2,1.2-2.4,1.7-3.6c0.4-1.1,0.6-2.2,0.7-3s0-1.6-0.2-2
	C112.3,1.3,112.1,1.1,111.7,1.1z M100.5,58.4l-3,1.7l-2-1.2l3.2-1.4l0,0c0,0,0.1,0,0.1-0.1l0,0l0.1-0.1l0,0v-0.1c0,0,0,0,0-0.1
	c0,0,0,0,0-0.1v-0.1l0,0c0,0,0,0,0-0.1c0,0,0-0.1-0.1-0.1c0,0-0.1,0-0.1-0.1c0,0,0,0-0.1,0L95.4,55l2-1.2l3,1.7
	c0.1,0,0.1,0.1,0.2,0.1c0.2,0,0.4-0.1,0.5-0.2c0.1-0.2,0-0.6-0.2-0.7l-2.4-1.4l2-1.2c0.2-0.1,0.4-0.5,0.2-0.7
	c-0.1-0.2-0.5-0.4-0.7-0.2l-1.9,1.6v-2.7c0-0.2-0.2-0.5-0.5-0.5l0,0c-0.2,0-0.5,0.2-0.5,0.5v3.3l-2,1.2l0.4-3.6c0,0,0,0,0-0.1v-0.1
	v-0.1c0,0,0,0,0-0.1l0,0c0,0-0.1,0-0.1-0.1c0,0,0,0-0.1,0l0,0h-0.1l0,0c0,0,0,0-0.1,0h-0.1c0,0-0.1,0-0.1,0.1l0,0l0,0l0,0L92,52.5
	v-2.3l3-1.7c0.2-0.1,0.4-0.5,0.2-0.7c-0.1-0.2-0.5-0.4-0.7-0.2L92.1,49v-2.4c0-0.2-0.2-0.5-0.5-0.5c-0.2,0-0.5,0.2-0.5,0.5v2.3
	l-2.4-1.4c-0.2-0.1-0.6,0-0.7,0.2c-0.1,0.2,0,0.6,0.2,0.7l2.9,1.7v2.3l-2.9-2.2c0,0,0,0-0.1,0h-0.1H88c0,0,0,0-0.1,0l0,0h-0.1l0,0
	c0,0,0,0-0.1,0c0,0-0.1,0-0.1,0.1l0,0c0,0,0,0,0,0.1v0.1v0.1c0,0,0,0,0,0.1l0.4,3.6l-2-1.2v-3.3c0-0.2-0.2-0.5-0.5-0.5l0,0
	c-0.2,0-0.5,0.2-0.5,0.5v2.7l-2-1.2c-0.2-0.1-0.6,0-0.7,0.2s0,0.6,0.2,0.7l2,1.2L82,55c-0.2,0.1-0.4,0.5-0.2,0.7
	c0.1,0.1,0.2,0.2,0.5,0.2c0.1,0,0.1,0,0.2-0.1l3-1.7l2,1.2l-3.7,1.3c0,0,0,0-0.1,0c0,0-0.1,0-0.1,0.1c0,0,0,0.1-0.1,0.1
	c0,0,0,0,0,0.1l0,0v0.1c0,0,0,0,0,0.1c0,0,0,0,0,0.1v0.1l0,0c0,0,0,0.1,0.1,0.1l0,0l0.1,0.1l0,0l3.2,1.4l-2,1.2l-3-1.7
	c-0.2-0.1-0.6,0-0.7,0.2c-0.1,0.2,0,0.6,0.2,0.7l2.4,1.4l-2,1.2c-0.2,0.1-0.4,0.5-0.2,0.7c0.1,0.1,0.2,0.2,0.5,0.2
	c0.1,0,0.1,0,0.2-0.1l2-1.2v2.7c0,0.2,0.2,0.5,0.5,0.5l0,0c0.2,0,0.5-0.2,0.5-0.5v-3.3l2-1.2l-0.4,3.6c0,0,0,0,0,0.1v0.1v0.1
	c0,0,0,0,0,0.1l0,0c0,0,0.1,0,0.1,0.1l0,0c0,0,0,0,0.1,0h0.1l0,0l0,0c0,0,0,0,0.1,0c0,0,0,0,0.1,0h0.1l0,0l2.9-2.2v2.3l-2.6,1.3
	c-0.2,0.1-0.4,0.5-0.2,0.7c0.1,0.2,0.5,0.4,0.7,0.2l2.4-1.4v2.3c0,0.2,0.2,0.5,0.5,0.5c0.2,0,0.5-0.2,0.5-0.5v-2.3l2.4,1.4
	c0.1,0,0.1,0.1,0.2,0.1c0.2,0,0.4-0.1,0.5-0.2c0.1-0.2,0-0.6-0.2-0.7l-3-1.7v-2.3l2.9,2.2c0,0,0,0,0.1,0l0,0h0.1l0,0h0.1
	c0,0,0,0,0.1,0s0.1-0.1,0.1-0.1l0,0c0,0,0,0,0-0.1v-0.1v-0.1c0,0,0,0,0-0.1l-0.4-3.6l2,1.2v3.3c0,0.2,0.2,0.5,0.5,0.5l0,0
	c0.2,0,0.5-0.2,0.5-0.5v-2.7l2,1.2c0.1,0,0.1,0.1,0.2,0.1c0.2,0,0.4-0.1,0.5-0.2c0.1-0.2,0-0.6-0.2-0.7l-2-1.2l2.4-1.4
	c0.2-0.1,0.4-0.5,0.2-0.7C101.1,58.3,100.7,58.3,100.5,58.4z M97.3,57.1l-2.7,1.2l-2.2-1.2l2.2-1.2L97.3,57.1z M94.3,51.9L93.9,55
	l-2.2,1.2v-2.5L94.3,51.9z M88.2,51.9l2.5,1.9v2.4L88.6,55L88.2,51.9z M85.2,57.1l2.7-1.2l2.2,1.2L88,58.3L85.2,57.1z M88.2,62.3
	l0.4-3.1l2.2-1.2v2.5L88.2,62.3z M94.3,62.4l-2.5-1.9V58l2.2,1.2L94.3,62.4z M107.9,47.9c0-0.1-0.1-0.2-0.2-0.4
	c-3.2-2.4-7.4-3.9-12-4.4c-0.1,0-0.1-0.1-0.2-0.1s-0.2,0-0.4,0c-3.3-0.4-7.1-0.2-10.8,0.5c-2.2,0.4-3.5,0.7-5.6,1.4
	c-0.6,0.2-2.3,0.7-3.1,1c-2,0.6-3.8,1.3-5.9,1.6c-0.4,0.1-0.8,0.1-1.2,0.1c-0.2,0.1-0.5,0.2-0.4,0.7c0,0.2,0.2,0.4,0.5,0.4
	c0.5-0.1,1-0.1,1.6-0.2c4.9-0.7,9.6-3.1,14.5-3.9c1.8-0.4,3.7-0.5,5.4-0.6l0,0c0,0,2.3-0.1,5.1,0.1l0,0l0,0c0.5,0,1.1,0.1,1.7,0.2
	H97c0.1,0,0.1,0,0.2,0c0,0,0,0,0.1,0c3.8,0.6,7.2,2,9.9,4.1c0.2,0.1,0.6,0.1,0.7-0.1C107.9,48.3,107.9,48,107.9,47.9z M61.8,48.3
	c-12.2,0.6-22-0.6-27.7-2.5c-3.8-1.2-5.3-2.2-6.1-2.3c-0.5,0-1.2,0.8,0.1,1.3c10.5,3.9,16.5,4.8,33.6,4.4c0.4-0.1,0.7-0.2,0.7-0.6
	C62.4,48.4,62,48.3,61.8,48.3z M28.9,44L28.9,44c0-0.1,0-0.1,0-0.2l0,0c0,0,0,0,0-0.1c0,0,0-0.1-0.1-0.1c0,0-0.1,0-0.1-0.1
	c0,0,0,0-0.1,0l-3.2-1.4l2.2-1.2c0.2-0.1,0.4-0.5,0.2-0.7c-0.1-0.2-0.5-0.4-0.7-0.2L24.9,41l0.4-3.6c0,0,0,0,0-0.1v-0.1V37
	c0,0,0,0,0-0.1l0,0c0,0-0.1,0-0.1-0.1l0,0c0,0,0,0-0.1,0h-0.1l0,0h-0.1h-0.1c0,0-0.1,0-0.1,0.1l0,0l0,0l0,0l-2.9,2.4v-2.4
	c0-0.2-0.2-0.5-0.5-0.5c-0.2,0-0.5,0.2-0.5,0.5v2.4l-2.9-2.2c0,0,0,0-0.1,0h-0.1h-0.1h-0.1l0,0h-0.1c0,0,0,0-0.1,0l0,0
	c0,0-0.1,0-0.1,0.1l0,0c0,0,0,0,0,0.1v0.1v0.1c0,0,0,0,0,0.1l0.4,3.6l-2.2-1.2c-0.2-0.1-0.6,0-0.7,0.2c-0.1,0.2,0,0.6,0.2,0.7
	l2.2,1.2l-3.2,1.4c0,0,0,0-0.1,0c0,0-0.1,0-0.1,0.1c0,0,0,0.1-0.1,0.1c0,0,0,0,0,0.1l0,0v0.1c0,0,0,0,0,0.1c0,0,0,0,0,0.1v0.1l0,0
	c0,0,0,0.1,0.1,0.1l0,0l0.1,0.1l0,0l3.2,1.4l-2.2,1.2c-0.2,0.1-0.4,0.5-0.2,0.7c0.1,0.1,0.2,0.2,0.5,0.2c0.1,0,0.1,0,0.2-0.1
	l2.2-1.2l-0.4,3.6c0,0,0,0,0,0.1v0.1V51c0,0,0,0,0,0.1l0,0c0,0,0.1,0,0.1,0.1l0,0c0,0,0,0,0.1,0h0.1l0,0l0,0c0,0,0,0,0.1,0
	c0,0,0,0,0.1,0h0.1l0,0l2.9-2.2v2.4c0,0.2,0.2,0.5,0.5,0.5c0.2,0,0.7-0.6,0.7-1v-2.4l2.9,2.2c0,0,0,0,0.1,0l0,0h0.1l0,0h0.1
	c0,0,0,0,0.1,0s0.1-0.1,0.1-0.1l0,0c0,0,0,0,0-0.1v-0.1v-0.1c0,0,0,0,0-0.1l-0.4-3.6l2.2,1.2c0.1,0,0.1,0.1,0.2,0.1
	c0.2,0,0.4-0.1,0.5-0.2c0.1-0.2,0-0.6-0.2-0.7l-2.2-1.2l3.2-1.4l0,0c0,0,0.1,0,0.1-0.1l0,0l0.1-0.1l0,0C28.9,44.2,28.9,44.1,28.9,44
	C28.9,44.1,28.9,44.1,28.9,44z M24.1,38.8l-0.4,3.1l-2.2,1.2v-2.5L24.1,38.8z M18.2,38.8l2.5,1.9v2.5l-2.2-1.2L18.2,38.8z M15.2,44
	l2.7-1.2l2.2,1.2l-2.2,1.2L15.2,44z M18.2,49.2l0.4-3.1l2.2-1.2v2.5L18.2,49.2z M24.1,49.2l-2.5-1.8v-2.5l2.2,1.2L24.1,49.2z
	 M22.2,44l2.2-1.2l2.7,1.2l-2.7,1.2L22.2,44z"/>
</svg>
