<?xml version="1.0" encoding="utf-8"?>
<!-- Generator: Adobe Illustrator 24.1.2, SVG Export Plug-In . SVG Version: 6.00 Build 0)  -->
<svg version="1.1" id="Layer_1" xmlns="http://www.w3.org/2000/svg" xmlns:xlink="http://www.w3.org/1999/xlink" x="0px" y="0px"
	 width="70px" height="70px" viewBox="0 0 70 70" style="enable-background:new 0 0 70 70;" xml:space="preserve">
<style type="text/css">
	.st0{fill:#FFEBEB;enable-background:new    ;}
	.st1{fill:#60604D;}
</style>
<path class="st0" d="M13.4,25.5C8.3,29.1,3.1,33.4,1,39.2c-3,8,0.6,17.3,7.3,22.9c6.7,5.7,15.8,7.8,24.7,7.8
	c11.8,0,24.1-4.3,30.7-13.6c2.6-3.6,4.2-7.9,5.2-12.3c1.3-5.6,1.6-11.4-0.3-16.9C59.7,2.5,28.7,15,13.4,25.5z"/>
<path class="st1" d="M34.9,27.9c-1.8,0-3.2,1.5-3.2,3.2c0,1.8,1.5,3.2,3.2,3.2s3.2-1.5,3.2-3.2C38.2,29.4,36.7,27.9,34.9,27.9z
	 M34.9,33.1c-1.1,0-1.9-0.9-1.9-1.9s0.9-1.9,1.9-1.9s1.9,0.9,1.9,1.9S36,33.1,34.9,33.1z M34.9,37c-1.8,0-3.2,1.5-3.2,3.2
	c0,1.8,1.5,3.2,3.2,3.2s3.2-1.5,3.2-3.2C38.2,38.5,36.7,37,34.9,37z M34.9,42.2c-1.1,0-1.9-0.9-1.9-1.9c0-1.1,0.9-1.9,1.9-1.9
	s1.9,0.9,1.9,1.9C36.9,41.3,36,42.2,34.9,42.2z M34.9,19.5c-3,0-5.6-2.1-6.3-5c-0.1-0.3,0.1-0.7,0.5-0.8c0.3-0.1,0.7,0.1,0.8,0.5
	c0.5,2.4,2.6,4,5,4c2.4,0,4.5-1.7,5-4c0.1-0.3,0.4-0.6,0.8-0.5c0.3,0.1,0.6,0.4,0.5,0.8C40.6,17.4,38,19.5,34.9,19.5z M38.8,11.7
	c1.4,0,2.6-1.2,2.6-2.6c0-1.4-1.2-2.6-2.6-2.6c-1.4,0-2.6,1.2-2.6,2.6C36.2,10.6,37.4,11.7,38.8,11.7z M38.8,7.9
	c0.7,0,1.3,0.6,1.3,1.3c0,0.7-0.6,1.3-1.3,1.3c-0.7,0-1.3-0.6-1.3-1.3C37.5,8.4,38.1,7.9,38.8,7.9z M31.1,11.7
	c1.4,0,2.6-1.2,2.6-2.6c0-1.4-1.2-2.6-2.6-2.6c-1.4,0-2.6,1.2-2.6,2.6C28.5,10.6,29.6,11.7,31.1,11.7z M31.1,7.9
	c0.7,0,1.3,0.6,1.3,1.3c0,0.7-0.6,1.3-1.3,1.3c-0.7,0-1.3-0.6-1.3-1.3C29.8,8.4,30.3,7.9,31.1,7.9z M55.5,28.5
	c0.1,0.4-0.1,0.7-0.5,0.8c0,0-0.1,0-0.1,0c-0.3,0-0.6-0.2-0.6-0.5l-1.2-5.3c-0.1-0.3,0.1-0.7,0.5-0.8c0.3-0.1,0.7,0.1,0.8,0.5
	L55.5,28.5z M58.4,27.9c0.1,0.3-0.1,0.7-0.5,0.8c-0.1,0-0.1,0-0.2,0c-0.3,0-0.6-0.2-0.6-0.5l-1.3-5.3c-0.1-0.3,0.1-0.7,0.5-0.8
	c0.3-0.1,0.7,0.1,0.8,0.5L58.4,27.9z M16.9,23.5l-1.2,5.3c-0.1,0.3-0.3,0.5-0.6,0.5c0,0-0.1,0-0.1,0c-0.3-0.1-0.6-0.4-0.5-0.8
	l1.2-5.3c0.1-0.3,0.4-0.6,0.8-0.5C16.8,22.8,17,23.2,16.9,23.5z M14.2,22.9l-1.3,5.3c-0.1,0.3-0.3,0.5-0.6,0.5c-0.1,0-0.1,0-0.2,0
	c-0.3-0.1-0.6-0.4-0.5-0.8l1.3-5.3c0.1-0.3,0.4-0.6,0.8-0.5C14.1,22.2,14.3,22.6,14.2,22.9z M42.3,57.8l7-1.9
	c0.3-0.1,0.7,0.1,0.8,0.5c0.1,0.3-0.1,0.7-0.5,0.8l-7,1.9c-0.1,0-0.1,0-0.2,0c-0.3,0-0.5-0.2-0.6-0.5C41.7,58.2,41.9,57.9,42.3,57.8
	z M49.9,58.3c0.3-0.1,0.7,0.1,0.8,0.4c0.1,0.3-0.1,0.7-0.4,0.8l-6.8,1.9c-0.1,0-0.1,0-0.2,0c-0.3,0-0.5-0.2-0.6-0.5
	c-0.1-0.3,0.1-0.7,0.4-0.8L49.9,58.3z M28,58.6c-0.1,0.3-0.3,0.5-0.6,0.5c-0.1,0-0.1,0-0.2,0l-7-1.9c-0.3-0.1-0.5-0.5-0.5-0.8
	c0.1-0.3,0.5-0.5,0.8-0.5l7,1.9C27.9,57.9,28.1,58.2,28,58.6z M27.1,61c-0.1,0.3-0.3,0.5-0.6,0.5c-0.1,0-0.1,0-0.2,0l-6.8-1.9
	c-0.3-0.1-0.5-0.5-0.4-0.8c0.1-0.3,0.5-0.5,0.8-0.4l6.8,1.9C27,60.3,27.2,60.7,27.1,61z M54.6,14.8c-0.7-0.7-1.5-1.5-1.5-3.1
	s0.8-2.4,1.5-3.1c0.6-0.6,1.1-1.1,1.1-2.1c0-0.4,0.3-0.6,0.6-0.6c0.4,0,0.6,0.3,0.6,0.6c0,1.6-0.8,2.4-1.5,3.1
	c-0.6,0.6-1.1,1.1-1.1,2.1s0.5,1.5,1.1,2.1c0.7,0.7,1.5,1.5,1.5,3.1c0,0.4-0.3,0.6-0.6,0.6c-0.4,0-0.6-0.3-0.6-0.6
	C55.7,15.9,55.2,15.4,54.6,14.8z M61.1,7.4c0.6-0.6,1.1-1.1,1.1-2.1c0-1-0.5-1.5-1.1-2.1c-0.4-0.4-0.9-0.9-1.1-1.5
	c-0.2-0.3,0-0.7,0.3-0.9c0.3-0.2,0.7,0,0.9,0.3c0.2,0.4,0.5,0.8,0.9,1.1c0.7,0.7,1.5,1.5,1.5,3.1c0,1.6-0.8,2.4-1.5,3.1
	c-0.6,0.6-1.1,1.1-1.1,2.1s0.5,1.5,1.1,2.1c0.7,0.7,1.5,1.5,1.5,3.1c0,0.4-0.3,0.6-0.6,0.6c-0.4,0-0.6-0.3-0.6-0.6
	c0-1-0.5-1.5-1.1-2.1c-0.7-0.7-1.5-1.5-1.5-3.1S60.4,8.1,61.1,7.4z M14.4,13.9c0.6-0.6,1.1-1.1,1.1-2.1s-0.5-1.5-1.1-2.1
	c-0.7-0.7-1.5-1.5-1.5-3.1c0-0.4,0.3-0.6,0.6-0.6c0.4,0,0.6,0.3,0.6,0.6c0,1,0.5,1.5,1.1,2.1c0.7,0.7,1.5,1.5,1.5,3.1
	s-0.8,2.4-1.5,3.1c-0.6,0.6-1.1,1.1-1.1,2.1c0,0.4-0.3,0.6-0.6,0.6c-0.4,0-0.6-0.3-0.6-0.6C12.9,15.4,13.7,14.5,14.4,13.9z
	 M7.9,12.6C8.5,12,9,11.5,9,10.4S8.5,8.9,7.9,8.3C7.2,7.6,6.4,6.8,6.4,5.3c0-1.6,0.8-2.4,1.5-3c0.4-0.4,0.7-0.7,0.9-1.1
	C9,0.8,9.3,0.6,9.7,0.8C10,0.9,10.1,1.3,10,1.7C9.7,2.3,9.2,2.7,8.8,3.1C8.2,3.7,7.7,4.2,7.7,5.3c0,1,0.5,1.5,1.1,2.1
	c0.7,0.7,1.5,1.5,1.5,3.1s-0.8,2.4-1.5,3.1c-0.6,0.6-1.1,1.1-1.1,2.1c0,0.4-0.3,0.6-0.6,0.6c-0.4,0-0.6-0.3-0.6-0.6
	C6.4,14.1,7.2,13.2,7.9,12.6z M65.3,23.4c-0.6-2.7-2.9-4.6-5.7-4.6c-0.4,0-0.8,0-1.3,0.1c-0.2,0-13.3,3-17.5,3.9v-1.1
	c3.5-2,5.8-6,5.8-10.1c0-6.4-5.2-11.7-11.7-11.7c-6.4,0-11.7,5.2-11.7,11.7c0,4.1,2.2,7.9,5.8,10.1c0,0,0,0,0,0v1.1
	C25,22,11.7,19,11.6,19c-0.4-0.1-0.8-0.1-1.3-0.1c-2.7,0-5.1,1.9-5.7,4.6c-0.7,3.1,1.3,6.3,4.4,7l10.6,2.4c1.3,0.3,2.2,0.9,2.7,1.9
	c0.7,1.3,0.7,3.3,0,5.4l0,0l0,0l-6.5,21.3c-1.2,3.3,0.5,7.1,3.9,8.3c0.7,0.3,1.5,0.4,2.2,0.4c2.7,0,5.2-1.7,6.1-4.3l4-11.1
	c1-2.8,2.2-3.8,2.8-3.8c0.7,0,1.8,1,2.8,3.8l4,11.1c0.9,2.6,3.4,4.3,6.1,4.3c0.8,0,1.5-0.1,2.2-0.4c3.3-1.2,5.1-4.9,3.9-8.3
	l-6.5-21.3l0,0l0,0c-0.8-2.1-0.8-4,0-5.4c0.5-1,1.5-1.6,2.7-1.9l10.6-2.4C64,29.7,66,26.6,65.3,23.4z M39.5,22.7v2.8l-2.1-1.4
	L39.5,22.7z M30.4,22.7l2.1,1.4l-2.1,1.4V22.7z M60.6,29.1l-10.6,2.4c-4.2,0.9-5.1,5-3.6,9l6.5,21.3c1,2.7-0.4,5.7-3.1,6.6
	c-0.6,0.2-1.2,0.3-1.8,0.3c-2.1,0-4.1-1.3-4.9-3.4l-4-11.1c-1.1-3.1-2.6-4.6-4-4.6c-1.5,0-2.9,1.5-4,4.6c-2.2,6.1-4,11.1-4,11.1
	c-0.8,2.1-2.8,3.4-4.9,3.4c-0.6,0-1.2-0.1-1.8-0.3c-2.7-1-4.1-4-3.1-6.6l6.5-21.3c1.5-4,0.6-8.1-3.6-9L9.3,29.1
	c-2.4-0.5-4-3-3.4-5.4c0.5-2.1,2.4-3.6,4.4-3.6c0.3,0,0.7,0,1,0.1c0,0,13.9,3.1,17.8,4v3.6l5.7-3.8l-5.7-3.8v0
	c-2.8-1.9-4.5-5-4.5-8.5c0-5.7,4.6-10.4,10.4-10.4S45.3,6,45.3,11.7c0,3.5-1.9,6.7-4.5,8.5v0l-5.7,3.8l5.7,3.8v-3.6
	c3.9-0.8,17.8-4,17.8-4c0.3-0.1,0.7-0.1,1-0.1c2.1,0,4,1.4,4.4,3.6C64.5,26.2,63,28.6,60.6,29.1z"/>
</svg>
