<?xml version="1.0" encoding="utf-8"?>
<!-- Generator: Adobe Illustrator 24.1.2, SVG Export Plug-In . SVG Version: 6.00 Build 0)  -->
<svg version="1.1" id="Layer_1" xmlns="http://www.w3.org/2000/svg" xmlns:xlink="http://www.w3.org/1999/xlink" x="0px" y="0px"
	 width="70px" height="70px" viewBox="0 0 70 70" style="enable-background:new 0 0 70 70;" xml:space="preserve">
<style type="text/css">
	.st0{fill:#FCF1ED;enable-background:new    ;}
	.st1{fill:#60604D;}
</style>
<path class="st0" d="M18.8,17c-3.2,0.5-6.5,1.3-8.8,3.5C8,22.4,7,24.9,6,27.4c-1.6,4.4-3.2,8.7-4.7,13.2c-0.9,2.8-1.9,5.8-1.2,8.6
	c0.6,2.1,2.1,4,3.5,5.7C9,61.2,15.2,67.4,23.4,69.4c8.8,2.2,18.1-1.1,26.1-5.4c6.8-3.8,13.3-8.5,17.2-15.1
	c3.9-6.7,4.6-15.7,0.1-21.9C56.3,12.3,34,14.6,18.8,17z"/>
<path class="st1" d="M26,12.7c0-7.1-5.7-12.8-12.8-12.8S0.5,5.7,0.5,12.7c0,5.8,3.9,10.7,9.2,12.3L3.7,65.5c-0.2,1,0.6,2,1.6,2.2
	c0.1,0,0.2,0,0.3,0c0.9,0,1.8-0.7,1.9-1.6l5.9-40.6C20.4,25.4,26,19.7,26,12.7z M1.7,12.7c0-6.3,5.2-11.5,11.5-11.5
	s11.5,5.2,11.5,11.5s-5.2,11.5-11.5,11.5S1.7,19.1,1.7,12.7z M6.2,65.9c0,0.3-0.3,0.5-0.6,0.5c0,0-0.1,0-0.1,0
	c-0.3-0.1-0.6-0.4-0.5-0.7l5.9-40.4c0.4,0.1,0.8,0.1,1.3,0.2L6.2,65.9z M28.6,51.2l2.7-7.1c0,0,0,0,0,0L34,37c0,0,0,0,0,0l2.7-7.1
	c0,0,0,0,0,0l2.7-7.1c0,0,0,0,0,0l2.7-7.1v0l1-2.5c0.3-0.8,0.9-1.5,1.6-2c0,0,0.1-0.1,0.2-0.1c0.1-0.1,0.2-0.1,0.3-0.2
	c0.1,0,0.2-0.1,0.3-0.1c0.1,0,0.2-0.1,0.3-0.1c0.1,0,0.1-0.1,0.2-0.1c0.3-0.1,0.7-0.2,1.1-0.2c0,0,0.1,0,0.1,0l0.2,0l0,0
	c0.5,0,1,0.1,1.5,0.3c0.9,0.3,1.6,0.9,2,1.6c0,0,0,0.1,0.1,0.1c0.1,0.2,0.2,0.4,0.3,0.5c0,0.1,0.1,0.1,0.1,0.2
	c0.1,0.2,0.2,0.5,0.2,0.7c0,0,0,0.1,0,0.1c0.1,0.3,0.1,0.5,0.1,0.8c0,0,0,0.1,0,0.1c0,0.6-0.1,1.1-0.3,1.7l-1.9,4.9
	c-1,2.6,0.3,5.6,3,6.6c0.6,0.2,1.2,0.3,1.8,0.3c2.1,0,4-1.3,4.8-3.3l1.9-4.9c0-0.1,0.1-0.2,0.1-0.3c0.1-0.3,0.2-0.5,0.3-0.8
	c0.1-0.2,0.1-0.4,0.2-0.6c0,0,0,0,0,0c0.1-0.3,0.1-0.6,0.2-0.9c0-0.2,0.1-0.4,0.1-0.6c0-0.1,0-0.3,0-0.3c0,0,0,0,0,0
	c0.5-3.9-0.7-7.8-3.1-10.8c0,0,0,0,0-0.1l-0.1-0.1c-0.3-0.4-0.7-0.8-1.1-1.2l-0.1-0.1c0,0,0,0,0,0c-0.2-0.2-0.4-0.3-0.6-0.5
	c-0.1-0.1-0.2-0.2-0.3-0.2c-0.2-0.2-0.4-0.3-0.6-0.5c-0.2-0.1-0.4-0.3-0.6-0.4c-0.1-0.1-0.3-0.2-0.4-0.3c-0.3-0.2-0.5-0.3-0.8-0.4
	c0,0,0,0,0,0c-0.3-0.1-0.5-0.3-0.8-0.4c-0.1-0.1-0.2-0.1-0.3-0.2c-0.2-0.1-0.4-0.2-0.6-0.3c-0.3-0.1-0.6-0.2-0.9-0.3
	c-0.1,0-0.1,0-0.2-0.1c-0.3-0.1-0.6-0.2-0.9-0.2c0,0,0,0,0,0c0,0,0,0,0,0c-0.3-0.1-0.5-0.1-0.8-0.2c-0.3-0.1-0.6-0.1-0.8-0.1
	c-0.5-0.1-1.1-0.1-1.6-0.1c-3.5,0-6.7,1.2-9.3,3.3c0,0-0.1,0-0.1,0.1c0,0-0.6,0.5-1.3,1.3c-0.3,0.4-0.9,1-1.4,1.8c0,0,0,0,0,0.1
	c-0.2,0.3-0.4,0.6-0.6,0.9c0,0,0,0,0,0.1c-0.1,0.1-0.2,0.3-0.2,0.4c0,0.1-0.1,0.1-0.1,0.2c-0.2,0.4-0.4,0.9-0.6,1.4l-0.9,2.5l0,0
	c0,0,0,0,0,0L19,47.6c0,0,0,0,0,0l-2.7,7.1c0,0,0,0,0,0l-2.7,7.1c-1,2.6,0.3,5.6,3,6.6c0.5,0.2,1.1,0.3,1.7,0.3c0,0,0.1,0,0.1,0
	c2.1,0,4-1.3,4.8-3.3c0,0,0,0,0,0l2.7-7.1c0,0,0,0,0,0L28.6,51.2C28.6,51.2,28.6,51.2,28.6,51.2z M25.2,56.6l-4.8-8.8l2.1-5.6
	l4.8,8.8L25.2,56.6z M22.5,63.7l-4.8-8.8l2.1-5.6l4.8,8.8L22.5,63.7z M23,40.6l1.6-4.1l0.6-1.5l4.8,8.8l-2.1,5.6L23,40.6z
	 M33.3,13.7l4.8,8.8L36,28.1l-4.8-8.8L33.3,13.7z M35.5,8.3c0.1-0.2,0.2-0.4,0.3-0.5C35.9,7.6,36,7.5,36,7.3
	c0.1-0.1,0.2-0.3,0.3-0.4c0.1-0.2,0.2-0.3,0.4-0.5c0-0.1,0.1-0.1,0.1-0.2C37,6,37.2,5.8,37.4,5.5c0,0.1,0,0.3,0,0.4
	c0,1.6,0.2,3.2,0.8,4.5c0.2,0.5,0.5,1,0.7,1.4c0.1,0.2,0.2,0.3,0.3,0.5l1.6,3L38.7,21l-4.8-8.8l1.2-3c0.1-0.1,0.1-0.3,0.2-0.4
	C35.3,8.5,35.4,8.4,35.5,8.3z M30.6,20.8l4.8,8.8l-2.1,5.6l-4.8-8.8l1.7-4.4L30.6,20.8z M27.9,27.9l4.8,8.8l-2.1,5.6l-4.8-8.8
	L27.9,27.9z M41.9,12.6l-0.5,1.2l-1.1-2c-0.1-0.2-0.2-0.4-0.3-0.5c-0.2-0.4-0.5-0.8-0.6-1.3c-0.5-1.1-0.7-2.6-0.7-4
	c0-0.8,0.1-1.5,0.2-1.8c2.2-1.8,5-2.9,8-3c-0.1,0.1-0.2,0.2-0.3,0.3c-0.7,0.6-1.9,2-2.7,3.7c-0.6,1.3-0.8,2.8-0.8,4
	c0,0.5,0.1,1,0.2,1.3l0,0C42.7,11.1,42.2,11.8,41.9,12.6z M49.6,1.4c0.1,0,0.2,0,0.4,0.1c0.2,0,0.4,0.1,0.5,0.1
	c0.2,0,0.4,0.1,0.6,0.2c0.2,0.1,0.4,0.1,0.6,0.2c0.3,0.1,0.5,0.2,0.8,0.3c0.2,0.1,0.4,0.2,0.6,0.3c0.2,0.1,0.4,0.2,0.5,0.3
	c0.3,0.2,0.6,0.3,0.9,0.5c0,0,0,0,0,0c0.3,0.2,0.6,0.4,0.9,0.6c0.1,0.1,0.2,0.2,0.3,0.3C56,4.4,56.3,4.7,56.6,5c-0.1,0-0.3,0-0.4,0
	c-0.2,0-0.3,0-0.5,0c-1,0-2.6,0.1-4,0.7c-1.3,0.5-2.5,1.3-3.4,2.2c-0.4,0.4-0.6,0.8-0.8,1l0,0l0,0c0,0-0.1,0-0.1,0c0,0-0.1,0-0.1,0
	l-0.1,0c-0.1,0-0.3,0-0.4,0c-0.5,0.1-0.9,0.2-1.3,0.3c-0.2,0.1-0.3,0.1-0.5,0.2c-0.1,0-0.1,0.1-0.2,0.1c-0.1,0-0.1,0.1-0.2,0.1
	c0-0.2,0-0.3,0-0.5c-0.1-1,0.2-2.3,0.7-3.4c0.5-1.1,1.3-2.3,2.3-3.3c0.4-0.4,0.9-0.7,1.1-0.9l0.3-0.2C49.1,1.3,49.3,1.4,49.6,1.4z
	 M52.3,11.9c0.2,0,0.3,0,0.5,0l0.2,0c1,0,2.2,0.3,3.2,0.7c1.1,0.5,2.3,1.4,3.2,2.4c0.6,0.6,0.9,1.2,1.1,1.4c0,0.1,0,0.1,0,0.2
	c0,0.1,0,0.2,0,0.3c-0.1,0.3-0.1,0.7-0.2,1c0,0.1-0.1,0.3-0.1,0.4c-0.1,0.3-0.2,0.6-0.3,1l-0.9,2.5l-0.5,1.3l-3.2-5.9
	c-0.4-0.5-0.7-1-1.2-1.4c-0.3-0.3-0.7-0.6-1-0.8l0,0c0-0.1,0-0.3,0-0.5c0,0,0-0.1,0-0.1c0-0.1,0-0.3,0-0.4c0-0.1,0-0.1,0-0.2
	c0-0.1,0-0.2-0.1-0.3c-0.1-0.3-0.2-0.6-0.3-0.9c0-0.1,0-0.1-0.1-0.2c-0.1-0.1-0.1-0.2-0.2-0.4C52.4,12,52.4,11.9,52.3,11.9z
	 M53,26.6c-2-0.8-3-3-2.2-5l1.9-4.9c0-0.1,0.1-0.2,0.1-0.4c0.1,0.1,0.2,0.2,0.4,0.3c0.4,0.4,0.7,0.8,1,1.2l3.7,6.8
	C57,26.4,54.9,27.3,53,26.6z M60.7,14.5c-0.1-0.1-0.2-0.2-0.3-0.3c-1-1.1-2.4-2.2-3.7-2.7c-1.6-0.7-3-0.8-3.7-0.8l-0.3,0
	c-0.5,0-0.9,0.1-1.3,0.1l0,0c-0.6-0.6-1.3-1.1-2.2-1.5c-0.2-0.1-0.3-0.1-0.5-0.1C49,9,49.1,8.9,49.2,8.7C49.9,8,51,7.2,52.1,6.8
	c1-0.4,2.2-0.6,3.6-0.6c0.1,0,0.3,0,0.4,0c0.6,0,1.1,0.1,1.5,0.2l0.3,0.1C59.7,8.7,60.7,11.5,60.7,14.5z M18.4,67.5l-0.1,0
	c-0.4,0-0.9-0.1-1.3-0.2c-2-0.8-3-3-2.2-5l2.2-5.8l4.8,8.8C21.2,66.6,19.9,67.5,18.4,67.5z M69.5,39.7c-0.1-0.1-0.1-0.1-0.2-0.1
	c-0.8-0.7-1.8-0.6-2.6-0.4c-0.4,0.1-0.7,0.1-1,0.1c-0.3,0-0.5-0.1-0.7-0.3c-0.4-0.4-0.3-0.8-0.2-1.6c0,0,0,0,0-0.1
	c0.1-0.6,0.2-1.4-0.1-2.1c-0.1-0.2-0.3-0.5-0.5-0.7c-0.9-0.9-1.9-0.7-2.8-0.6c-0.4,0.1-0.7,0.1-1,0.1c-0.3,0-0.5-0.1-0.7-0.3
	c-0.2-0.2-0.3-0.4-0.3-0.7c0-0.3,0-0.6,0.1-1c0.1-0.6,0.2-1.3-0.1-2c-0.1-0.2-0.3-0.5-0.5-0.7l-1,0.8l0,0c-1.8,1.8-2.9,4-3.2,6.3
	c0,0.1,0,0.2,0,0.3c-0.1,1.1,0,2.1,0.3,3C54,39.3,52.7,39,51.4,39c-0.4,0-0.8,0-1.1,0.1l0,0l-0.6,0.1c0,0-0.1,0-0.1,0
	c-0.3,0-0.5,0.1-0.8,0.2c-0.1,0-0.1,0-0.2,0c-0.8,0.2-1.6,0.5-2.4,0.9c-0.1,0.1-0.2,0.1-0.3,0.2c-0.2,0.1-0.4,0.2-0.5,0.3
	c-0.2,0.1-0.3,0.2-0.5,0.3c-0.1,0.1-0.3,0.2-0.4,0.3c-0.2,0.1-0.4,0.3-0.6,0.5c-0.1,0.1-0.2,0.2-0.3,0.3c-0.3,0.3-0.6,0.5-0.9,0.8
	c0,0,0,0,0,0c-0.3,0.3-0.6,0.7-0.9,1.1c0,0,0,0,0,0l-0.1,0.2l0,0c-2.7,3.5-3.5,7.9-2,11.3c-0.7-0.2-1.4-0.3-2.2-0.3
	c-0.4,0-0.8,0-1.2,0.1c-2.3,0.3-4.5,1.5-6.3,3.3l-0.8,1c0.9,0.9,1.9,0.7,2.8,0.6c0.8-0.1,1.3-0.2,1.6,0.2c0.4,0.4,0.3,0.9,0.2,1.6
	c-0.1,0.8-0.3,1.9,0.6,2.8c0.9,0.9,1.9,0.7,2.8,0.6c0.8-0.1,1.2-0.2,1.6,0.2c0.4,0.4,0.3,0.9,0.2,1.6c-0.1,0.8-0.3,1.9,0.6,2.8
	l1-0.8c1.8-1.8,2.9-4,3.2-6.3c0.2-1.2,0.1-2.3-0.2-3.3c1.2,0.5,2.4,0.8,3.8,0.8c1,0,2-0.2,3-0.4l0,0l0.3-0.1c0,0,0,0,0,0
	c0.5-0.2,1-0.3,1.5-0.6c0,0,0,0,0,0c0.4-0.2,0.9-0.4,1.3-0.7c0.1-0.1,0.2-0.1,0.3-0.2c0.3-0.2,0.7-0.4,1-0.7
	c0.1-0.1,0.2-0.2,0.3-0.2c0.4-0.3,0.8-0.7,1.2-1c0.4-0.4,0.7-0.7,1-1.1c0-0.1,0.1-0.1,0.1-0.2c0.3-0.4,0.6-0.8,0.8-1.1c0,0,0,0,0,0
	l0.1-0.1c0-0.1,0.1-0.1,0.1-0.2l0.1-0.1l0,0c1.8-3.2,2.1-6.8,0.9-9.6c0.7,0.2,1.3,0.3,2.1,0.3c0.4,0,0.8,0,1.2-0.1
	c2.3-0.3,4.5-1.5,6.3-3.3L69.5,39.7L69.5,39.7L69.5,39.7z M63.4,42.5c-0.1,0-0.3,0.1-0.4,0.1c-0.2,0.1-0.5,0.1-0.7,0.1
	c-1.9,0.3-3.6-0.2-4.8-1.4c-1-1-1.5-2.4-1.5-4c0-0.2,0-0.5,0.1-0.7c0,0,0,0,0-0.1c0-0.2,0.1-0.4,0.1-0.6c0-0.2,0.1-0.4,0.2-0.6
	c0,0,0,0,0-0.1c0.4-1.3,1.1-2.5,2.1-3.6c0,0.1,0,0.1,0,0.2c-0.1,0.8-0.3,1.9,0.6,2.8c0,0,0,0,0,0s0,0,0,0c0.1,0.1,0.1,0.1,0.2,0.1
	c0.1,0,0.1,0.1,0.2,0.1c0.1,0,0.1,0.1,0.2,0.1c0.1,0,0.1,0.1,0.2,0.1c0.1,0,0.2,0.1,0.2,0.1c0,0,0.1,0,0.1,0c0.6,0.2,1.2,0.1,1.7,0
	c0.8-0.1,1.2-0.2,1.6,0.2c0.4,0.4,0.3,0.9,0.2,1.6c-0.1,0.8-0.3,1.9,0.6,2.8c0,0,0,0,0,0s0,0,0,0c0.9,0.9,1.9,0.7,2.8,0.6
	c0.1,0,0.1,0,0.2,0c-1.1,1-2.3,1.7-3.6,2.1C63.5,42.5,63.4,42.5,63.4,42.5z M49.2,40.5c1.1,4.9,4,10.2,7.4,13.2
	c-0.4,0.6-0.9,1.2-1.5,1.8c-0.3,0.3-0.6,0.6-1,0.9c-0.1,0.1-0.2,0.1-0.3,0.2c-0.3,0.2-0.5,0.4-0.8,0.6c-0.1,0.1-0.2,0.1-0.3,0.2
	c-0.3,0.2-0.6,0.4-0.9,0.5c-0.1,0-0.1,0.1-0.2,0.1c-0.4,0.2-0.8,0.4-1.2,0.5c-3.7-2.9-7.5-8.4-7.8-13.8c0.2-0.3,0.5-0.6,0.7-0.8
	c0,0,0,0,0,0c0.2-0.2,0.5-0.4,0.7-0.7c0.1-0.1,0.2-0.2,0.3-0.2c0.2-0.1,0.3-0.3,0.5-0.4c0.1-0.1,0.2-0.2,0.4-0.3
	c0.1-0.1,0.3-0.2,0.4-0.3c0.3-0.2,0.6-0.4,0.9-0.5c0.1,0,0.1-0.1,0.2-0.1c0.2-0.1,0.4-0.2,0.7-0.3c0.1,0,0.1,0,0.2-0.1
	C48.2,40.8,48.7,40.6,49.2,40.5z M42.4,62.6c-0.2,1.7-1.1,3.4-2.3,4.9c0-0.1,0-0.1,0-0.2c0.1-0.8,0.3-1.9-0.6-2.8
	c-0.9-0.9-1.9-0.7-2.8-0.6c-0.8,0.1-1.2,0.2-1.6-0.2c-0.4-0.4-0.3-0.9-0.2-1.6c0.1-0.8,0.3-1.9-0.6-2.8c-0.9-0.9-1.9-0.7-2.8-0.6
	c-0.1,0-0.1,0-0.2,0c1.5-1.3,3.2-2.1,4.9-2.4c1.9-0.3,3.6,0.2,4.8,1.4C42.1,59,42.6,60.7,42.4,62.6z M42,57
	c-2.6-2.6-2.7-7.1-0.4-10.8c0.8,5.1,4.1,9.8,7.4,12.7C48.3,59,47.8,59,47.2,59C45.1,59,43.3,58.3,42,57z M57.3,52.6
	c-3.1-2.8-5.8-7.7-6.8-12.3c0.3,0,0.6-0.1,0.9-0.1c2.1,0,3.9,0.7,5.2,2C59.1,44.8,59.3,49,57.3,52.6z M7.9,20.8
	C6.1,19,5.1,16.6,5.1,14c0-2.6,1-5,2.8-6.8c3-3,8-3,11,0c2.5,2.5,2.5,6.5,0,9c-2,2-5.3,2-7.4,0c-0.8-0.8-1.3-1.9-1.3-3
	s0.4-2.2,1.3-3c1.4-1.4,3.7-1.4,5.1,0c0.2,0.2,0.2,0.7,0,0.9c-0.2,0.2-0.7,0.2-0.9,0c-0.9-0.9-2.3-0.9-3.2,0
	c-0.6,0.6-0.9,1.3-0.9,2.1c0,0.8,0.3,1.6,0.9,2.1c1.5,1.5,4,1.5,5.6,0c2-2,2-5.2,0-7.2c-2.5-2.5-6.7-2.5-9.2,0
	c-3.2,3.2-3.2,8.5,0,11.8c2.3,2.3,5.6,3.4,8.9,3C14.9,24,10.1,23,7.9,20.8z"/>
</svg>
