<svg xmlns="http://www.w3.org/2000/svg" viewBox="0 0 500 500">
<style type="text/css">
	.st0 {
		fill: #9E2525;
	}
	@media (prefers-color-scheme: dark) {
		.st0 {
			fill: #FFFFFF;
		}
	}
</style>
<path class="st0" d="M500.3,250.4c0-0.8-0.3-1.7-0.4-2.5c-0.2-1-0.3-2-0.7-3c0-0.1,0-0.2-0.1-0.4c-0.3-0.8-0.9-1.3-1.4-2
	c-0.5-0.8-0.9-1.6-1.6-2.3c-0.9-0.9-2-1.5-3.1-2.2c-0.5-0.3-0.8-0.7-1.3-0.9l-0.5-0.2c-0.1,0-0.1-0.1-0.2-0.1L384.8,190l71.7-41
	c6.9-3.9,9.3-12.8,5.4-19.7c-4-6.9-12.8-9.3-19.7-5.4l-72.7,41.6l12.9-119.8c0.1-0.8-0.2-1.5-0.2-2.2c0-1.1,0-2.1-0.3-3.1
	c-0.3-1.1-0.9-2-1.4-3c-0.3-0.6-0.5-1.3-0.9-1.9c-0.1-0.1-0.1-0.1-0.2-0.2c-0.7-0.9-1.6-1.5-2.4-2.2c-0.6-0.5-1.1-1.2-1.8-1.5
	c-0.5-0.3-1.2-0.4-1.8-0.6c-1.2-0.5-2.3-1-3.5-1.1c-0.1,0-0.2-0.1-0.2-0.1c-0.7-0.1-1.3,0.2-2,0.2c-1.2,0-2.3,0-3.4,0.3
	c-0.7,0.2-1.3,0.6-2,1c-0.9,0.4-1.9,0.7-2.8,1.3l-94.7,71.1V22.6c0-8-6.5-14.4-14.4-14.4c-8,0-14.4,6.5-14.4,14.4v81.1l-94.7-71.1
	c-0.7-0.5-1.4-0.6-2.1-1c-0.9-0.5-1.7-1-2.7-1.3c-1-0.3-1.9-0.2-2.9-0.3c-0.8-0.1-1.6-0.3-2.5-0.2c-0.1,0-0.2,0.1-0.3,0.1
	c-0.9,0.1-1.8,0.6-2.7,0.8c-0.9,0.3-1.8,0.4-2.6,0.9c-0.6,0.3-1,0.9-1.6,1.3c-0.9,0.7-1.9,1.4-2.6,2.3c-0.1,0.1-0.1,0.1-0.2,0.2
	c-0.4,0.6-0.6,1.3-0.9,1.9c-0.5,1-1.1,1.9-1.4,3c-0.3,1-0.2,2.1-0.3,3.1c0,0.7-0.3,1.4-0.2,2.2l12.9,119.8l-72.7-41.6
	c-6.9-3.9-15.7-1.5-19.7,5.4c-4,6.9-1.5,15.7,5.4,19.7l71.7,41L9.6,236.8c-0.1,0-0.1,0.1-0.2,0.1l-0.5,0.2c-0.5,0.2-0.8,0.6-1.2,0.9
	c-1.1,0.6-2.2,1.3-3.1,2.2c-0.7,0.7-1.1,1.5-1.6,2.3c-0.5,0.7-1.1,1.2-1.4,2c0,0.1,0,0.2-0.1,0.3c-0.4,1-0.5,2-0.7,3.1
	c-0.1,0.8-0.4,1.6-0.4,2.4c0,0.8,0.3,1.6,0.4,2.4c0.2,1.1,0.3,2.1,0.7,3.1c0,0.1,0,0.2,0.1,0.3c0.1,0.3,0.4,0.4,0.5,0.6
	c1,1.9,2.4,3.5,4.1,4.8c0.5,0.4,1,0.8,1.6,1.1c0.4,0.2,0.7,0.6,1.1,0.8l107,47.1l-71.7,41c-6.9,3.9-9.3,12.8-5.4,19.7
	c2.7,4.6,7.5,7.3,12.5,7.3c2.4,0,4.9-0.6,7.1-1.9l72.7-41.6l-12.9,119.8c-0.1,0.8,0.2,1.5,0.2,2.2c0,1.1,0,2.1,0.3,3.1
	c0.3,1.1,0.9,2,1.4,3c0.3,0.6,0.5,1.3,0.9,1.9c0.1,0.1,0.1,0.1,0.2,0.2c0.7,0.9,1.7,1.6,2.6,2.3c0.6,0.4,1,1,1.6,1.4
	c0.8,0.4,1.7,0.6,2.5,0.9c0.9,0.3,1.8,0.8,2.8,0.9c0.1,0,0.2,0.1,0.3,0.1c0.5,0,1,0.1,1.6,0.1c0.7,0,1.3-0.3,1.9-0.4
	c0.8-0.1,1.5-0.2,2.3-0.4c1.1-0.3,2-0.8,3-1.4c0.5-0.3,1-0.4,1.5-0.7l94.7-71.1v81.1c0,8,6.5,14.4,14.4,14.4c8,0,14.4-6.5,14.4-14.4
	v-80.9l94.7,71.7c0.7,0.5,1.5,0.8,2.2,1.2c0.5,0.3,1,0.6,1.6,0.8c1.6,0.6,3.2,0.9,4.8,0.9c0,0,0,0,0.1,0c0,0,0,0,0,0c0,0,0,0,0,0
	s0,0,0,0c0.5,0,1,0,1.5-0.1c1.2-0.1,2.2-0.6,3.2-1c0.6-0.2,1.2-0.3,1.8-0.6c1.9-1,3.5-2.3,4.8-3.9c0,0,0.1-0.1,0.1-0.1
	c0.4-0.5,0.5-1.2,0.8-1.7c0.6-1,1.2-2,1.5-3.1c0.3-1.1,0.3-2.1,0.3-3.2c0-0.7,0.3-1.4,0.2-2.2l-12.9-120.7l72.7,41.6
	c2.3,1.3,4.7,1.9,7.1,1.9c5,0,9.9-2.6,12.5-7.3c4-6.9,1.5-15.7-5.4-19.7l-71.7-41l107-47.1c0.4-0.2,0.7-0.6,1.1-0.8
	c0.6-0.3,1.1-0.7,1.6-1.1c1.8-1.3,3.2-3,4.2-4.9c0.1-0.2,0.4-0.3,0.5-0.6c0-0.1,0-0.2,0.1-0.3c0.4-1.1,0.6-2.2,0.7-3.4
	C500.1,251.8,500.3,251.1,500.3,250.4z M350.2,75.6l-11.6,107.6l-73.8,42.3v-85.7L350.2,75.6z M150.4,75.6l85.5,64.1v85.7
	l-73.8-42.3L150.4,75.6z M50.5,250.3l96.5-42.5l74.3,42.5L147,292.8L50.5,250.3z M150.4,425l11.6-107.6l73.8-42.3v85.7L150.4,425z
	 M350.2,425.7L264.8,361v-85.8l73.8,42.3L350.2,425.7z M279.4,250.3l74.3-42.5l96.5,42.5l-96.5,42.5L279.4,250.3z"/>
</svg>
