<?xml version="1.0" encoding="utf-8"?>
<!-- Generator: Adobe Illustrator 24.1.2, SVG Export Plug-In . SVG Version: 6.00 Build 0)  -->
<svg version="1.1" id="Layer_1" xmlns="http://www.w3.org/2000/svg" xmlns:xlink="http://www.w3.org/1999/xlink" x="0px" y="0px"
	 width="960px" height="580px" viewBox="0 0 960 580" style="enable-background:new 0 0 960 580;" xml:space="preserve">
<style type="text/css">
	.st0{opacity:0.5;clip-path:url(#SVGID_2_);fill:#D9AE96;}
</style>
<g>
	<defs>
		<rect id="SVGID_1_" width="960" height="580"/>
	</defs>
	<clipPath id="SVGID_2_">
		<use xlink:href="#SVGID_1_"  style="overflow:visible;"/>
	</clipPath>
	<path class="st0" d="M784.5,407.2c-2-0.6-3.6-1.4-4.7-2.8c-1.1-1.4-2-2.8-2.2-4.7c-0.3-2-0.3-3.9,0.3-5.9c0.6-1.7,1.1-3.1,2-4.2
		s2-2.2,3.1-2.8c1.1-0.8,2.5-1.1,3.9-1.4s2.8-0.3,4.2,0.3c1.1,0.3,2.2,0.8,2.8,1.1c0.6,0.3,1.1,0.8,1.7,1.1c0.3,0.3,0.6,0.3,0.6,0.6
		c0.3,0.3,0.3,0.3,0.3,0.3c0.3,0,0.3,0,0.6,0s0.3-0.3,0.6-0.8l0.8,0.3l-1.1,3.3l-0.8,3.3l-0.8-0.3c0.3-2.2,0-3.9-0.8-5.3
		c-0.8-1.4-2.2-2.5-3.9-2.8c-1.4-0.3-2.5-0.3-3.6,0c-1.1,0.3-2,0.8-2.8,1.7s-1.4,1.7-2,2.8s-1.1,2.5-1.4,3.9c-0.6,2-0.8,3.9-0.8,5.6
		c0,1.7,0.6,3.1,1.4,3.9c0.8,1.1,2,2,3.9,2.2c1.4,0.3,2.5,0.3,3.6,0c1.1-0.3,2-0.8,3.1-1.7c0.8-0.8,1.4-2,2-3.1l0.8,0.3l-1.1,3.6
		l-0.8,3.6l-1.1-0.6v-0.3c0-0.3,0-0.6,0-0.8c0-0.3-0.3-0.6-0.6-0.6c0,0-0.3,0-0.6,0c-0.3,0-0.6,0-0.8,0c-0.6,0-1.4,0.3-2.2,0.3
		C786.8,407.7,785.6,407.7,784.5,407.2z M807.4,416.4c-1.4-0.8-2.5-1.7-3.3-2.8s-1.4-2.2-2-3.6c-0.3-1.4-0.6-2.8-0.3-4.2
		c0.3-1.4,0.6-3.1,1.4-4.5c0.8-1.4,1.7-2.8,2.8-3.6c1.1-0.8,2.2-1.7,3.6-2c1.4-0.6,2.8-0.6,4.2-0.6s2.8,0.6,4.2,1.4
		c1.4,0.8,2.5,1.7,3.3,2.8s1.4,2.2,2,3.6c0.3,1.4,0.6,2.8,0.3,4.2c-0.3,1.4-0.6,2.8-1.4,4.5c-0.8,1.4-1.7,2.8-2.8,3.6
		c-1.1,0.8-2.2,1.7-3.6,2.2c-1.4,0.6-2.8,0.6-4.2,0.6C810.2,417.5,808.8,417.2,807.4,416.4z M807.7,415.6c1.7,0.8,3.1,1.1,4.5,0.8
		c1.4-0.3,2.5-0.8,3.9-2s2.2-2.5,3.3-4.5c1.1-2,1.7-3.6,2-5.3c0.3-1.4,0-2.8-0.6-4.2c-0.6-1.4-1.7-2.2-3.3-3.1
		c-1.4-0.8-2.8-1.1-4.2-0.8c-1.4,0.3-2.8,0.8-3.9,2c-1.1,1.1-2.2,2.5-3.3,4.5c-1.1,2-1.7,3.6-2,5.3c-0.3,1.7,0,3.1,0.6,4.2
		C805.2,413.9,806.3,414.7,807.7,415.6z M820.2,423.1l0.6-0.6l0.6,0.3c0.6,0.6,1.1,0.8,1.4,0.8c0.3,0,0.8,0,1.1,0
		c0.3,0,0.8-0.8,1.7-1.4l9.2-10c0.6-0.8,1.1-1.4,1.4-1.7c0.3-0.3,0.3-0.8,0-1.1c-0.3-0.3-0.6-0.8-1.1-1.4l-0.3-0.6l0.6-0.6l3.3,3.1
		l1.4,1.1l-7.3,18.1l17.8-7.5l1.4,1.1l3.3,2.8l-0.6,0.6l-0.6-0.3c-0.6-0.3-1.1-0.8-1.4-0.8c-0.3,0-0.8,0-1.1,0s-0.8,0.8-1.7,1.4
		l-9.2,10.3c-0.6,0.8-1.1,1.4-1.4,1.7c-0.3,0.6-0.3,0.8,0,1.1c0.3,0.3,0.6,0.8,1.1,1.4l0.3,0.6l-0.6,0.6L837,439l-3.3-3.1l0.6-0.6
		l0.6,0.3c0.6,0.6,1.1,0.8,1.4,0.8c0.3,0.3,0.8,0,1.1,0c0.3-0.3,0.8-0.8,1.7-1.4l10.6-11.7l-20.1,8.4l-0.6-0.3l7.5-19.8l-11.2,12
		c-0.6,0.6-0.8,0.8-0.8,1.1s0,0.8,0,1.1c0,0.3,0.6,0.8,0.8,1.4l0.3,0.6v0.6l-2.8-2.8L820.2,423.1z M842.8,446l0.6-0.6l0.3,0.6
		c0.6,0.6,0.8,0.8,1.1,1.1c0.3,0.3,0.8,0.3,1.1,0c0.6-0.3,1.1-0.6,2-1.1l11.2-7.8c0.8-0.6,1.4-1.1,1.7-1.4c0.3-0.3,0.3-0.8,0.3-1.1
		s-0.3-0.8-0.6-1.4l-0.3-0.6l0.6-0.6l2.5,3.6l0,0l2.8,3.6l-0.6,0.6l-0.3-0.6c-0.6-0.6-0.8-0.8-1.1-1.1c-0.3-0.3-0.8-0.3-1.1-0.3
		c-0.3,0-1.1,0.6-2,1.1l-11.2,7.8c-0.8,0.6-1.4,1.1-1.7,1.4s-0.3,0.8-0.3,1.1s0.3,0.8,0.6,1.4l0.3,0.6l-0.6,1.1l-2.5-3.6l0,0
		L842.8,446z M850.9,457.1l0.6-0.3l0.3,0.6c0.3,0.6,0.8,1.1,1.1,1.4c0.3,0.3,0.6,0.3,1.1,0.3s1.1-0.3,2-0.8l14.2-6.7
		c0-0.3,0.3-0.6,0.3-1.1c0-0.6,0-1.1-0.3-1.7l-0.3-0.8l0.8-0.3l2.5,5.3c-0.3,0.6-0.8,1.4-1.1,2.2c-0.6,0.8-1.1,2-1.7,3.1
		s-1.1,2.2-2,3.6c-0.6,1.1-1.1,2.2-1.7,3.3c-0.6,1.1-1.1,2.2-1.7,3.1c-0.6,0.8-0.8,1.7-1.1,2.2l10.6-5c0.8-0.6,1.7-0.8,2-1.1
		c0.3-0.3,0.6-0.6,0.6-1.1c0-0.3-0.3-0.8-0.6-1.7l-0.3-0.6l0.6-0.3l1.7,3.6l1.7,3.3l-0.6,0.3l-0.6-0.6c-0.3-0.6-0.8-1.1-1.1-1.4
		c-0.3-0.3-0.6-0.3-1.1-0.3s-1.1,0.3-2,0.8l-15.9,7.5l-0.3-0.8c0.6-0.6,1.1-1.4,1.7-2.5c0.6-1.1,1.4-2.2,2-3.3
		c0.8-1.4,1.4-2.5,2.2-3.9s1.4-2.8,2.2-3.9s1.4-2.5,1.7-3.6c0.6-1.1,0.8-2,1.4-2.8l-13.1,6.1c-0.8,0.6-1.7,0.8-2,1.1
		c-0.3,0.3-0.6,0.6-0.6,1.1c0,0.3,0.3,0.8,0.6,1.7l0.3,0.6l-0.6,0.3l-1.7-3.6L850.9,457.1z M863.5,491.1c-0.3-2-0.3-3.6,0.3-5.3
		c0.6-1.7,1.7-3.1,3.1-4.5c1.4-1.1,3.3-2.2,5.6-2.5c1.7-0.3,3.1-0.3,4.7-0.3c1.7,0,2.8,0.8,3.9,1.4c1.1,0.8,2.2,1.7,3.1,2.8
		s1.4,2.2,1.7,3.6c0.3,0.8,0.3,1.7,0.3,2.5s-0.3,1.4-0.3,2c0,0.6-0.3,0.8-0.3,1.1c0,0.3,0,0.6,0,0.8c0,0.3,0.3,0.6,0.6,0.6
		s0.6,0,0.8,0l0.3,0.8l-3.3,0.6l-3.6,0.8l-0.3-0.8c1.4-0.3,2.5-0.8,3.3-2c0.8-0.8,1.4-2,1.7-3.1c0.3-1.1,0.3-2.2,0-3.3
		c-0.6-2.2-1.7-3.9-3.6-4.7c-2-0.8-4.7-0.8-7.8,0c-3.3,0.8-5.9,2-7.3,3.6c-1.4,1.7-2,3.6-1.4,5.9c0.3,1.1,0.6,2,1.1,2.8
		c0.6,0.8,1.1,1.4,2,1.7c0.8,0.3,1.4,0.6,2,0.3l0.8-0.3c0.8-0.3,1.4-0.6,1.7-1.1c0.3-0.6,0.3-1.4,0.3-2.5l-0.3-1.4l0.8-0.3l0.8,5
		l1.1,4.5l-0.8,0.3l-0.3-1.4c-0.3-0.6-0.6-0.8-0.8-1.1c-0.6-0.3-1.1-0.3-2,0h-0.6c-0.6,0-0.8,0.3-1.1,0.6c-0.3,0.3-0.6,0.6-0.8,0.6
		l-0.6,0.6l-0.6-0.6c0.3-0.3,0.6-0.6,0.6-0.8s0-0.6,0-0.6c0-0.3-0.3-0.6-0.6-0.8c-0.3-0.3-0.6-0.6-0.8-0.8c-0.3-0.3-0.6-0.6-1.1-1.1
		c-0.3-0.3-0.8-0.8-1.1-1.7C864,492.8,863.7,492,863.5,491.1z M865.4,525.2c0-0.8,0.3-1.7,0.6-2.2c0.3-0.6,0.6-1.1,0.8-1.7
		c0.3-0.6,0.6-0.8,0.6-1.1c0.3-0.3,0.3-0.6,0.3-0.8c0-0.3,0-0.6-0.3-0.6c-0.3,0-0.6-0.3-0.8-0.3H866v-0.8l3.6,0.6l3.9,0.3v0.8
		l-1.4,0.3c-0.8,0.3-2,0.6-2.8,1.1c-0.8,0.6-1.7,1.1-2.2,2s-1.1,2-1.1,3.1c0,0.6,0,1.1,0.3,2c0.3,0.6,0.6,1.1,1.1,1.7
		s1.4,0.6,2.2,0.8c1.4,0,2.5-0.3,3.3-1.1c0.8-0.8,1.7-2,2.8-3.3l0.8-1.1c0.8-1.4,1.7-2.5,2.8-3.1c0.8-0.6,2.2-0.8,3.6-0.8
		c1.1,0,2,0.6,2.8,1.1s1.4,1.4,1.7,2.2c0.3,0.8,0.6,2,0.6,3.3c0,0.8-0.3,1.4-0.6,2c-0.3,0.6-0.6,1.1-0.8,1.4
		c-0.3,0.6-0.6,0.8-0.6,1.1c0,0.3,0.3,0.6,0.8,0.6v0.8l-2.8-0.3l-2.8-1.4v-0.8c1.1,0,2.2-0.3,3.1-0.6c0.8-0.6,1.4-1.1,2-1.7
		c0.6-0.6,0.8-1.4,0.8-2.2c0-1.1-0.3-2.2-0.8-3.1s-1.4-1.1-2.5-1.4c-1.1,0-2.2,0.3-2.8,0.8c-0.8,0.8-1.4,1.7-2.2,2.8l-0.8,1.1
		c-0.6,1.1-1.4,2-2,2.8c-0.6,0.8-1.4,1.4-2.2,1.7c-0.6,0.6-1.7,0.6-2.8,0.6s-2.2-0.6-3.1-1.1c-0.8-0.6-1.4-1.4-2-2.2
		C865.4,527.1,865.4,526.3,865.4,525.2z M861.2,546.9c0.6-1.4,1.1-2.8,2-3.9c0.8-1.1,2-2,3.3-2.5c1.1-0.6,2.5-1.1,4.2-1.1
		c1.4,0,3.1,0,4.5,0.6c1.7,0.6,3.1,1.1,4.2,2c1.1,0.8,2,2,2.8,3.1c0.6,1.1,1.1,2.5,1.1,3.9c0.3,1.4,0,2.8-0.6,4.2
		c-0.6,1.4-1.1,2.8-2,3.9c-0.8,1.1-2,2-3.3,2.5c-1.1,0.6-2.5,1.1-4.2,1.1c-1.7,0-3.1,0-4.5-0.6c-1.7-0.6-3.1-1.1-4.2-2
		s-2.2-2-2.8-3.1c-0.6-1.1-0.8-2.5-1.1-3.9C860.7,549.7,860.7,548.3,861.2,546.9z M862.1,547.2c-0.6,1.7-0.6,3.1,0,4.5
		c0.6,1.4,1.4,2.5,2.8,3.3s3.1,1.7,5,2.2s3.9,0.8,5.6,0.8c1.7,0,3.1-0.6,4.2-1.4c1.1-0.8,2-2,2.5-3.9c0.6-1.7,0.6-3.1,0-4.5
		c-0.6-1.4-1.4-2.5-2.8-3.3s-3.1-1.7-5-2.2c-2-0.6-3.9-0.8-5.6-0.8c-1.7,0-3.1,0.6-4.2,1.4S862.6,545.5,862.1,547.2z M850.3,571.2
		c0.8-1.4,1.7-2.5,2.8-3.3c1.1-0.8,2.5-1.4,3.6-1.7c1.4-0.3,2.8-0.3,4.2,0c1.4,0.3,2.8,0.8,4.2,1.7c1.4,0.8,2.5,2,3.6,3.1
		c0.8,1.1,1.7,2.5,2,3.6c0.3,1.4,0.6,2.8,0.3,4.2c-0.3,1.4-0.6,2.8-1.4,4.2s-1.7,2.5-2.8,3.3c-1.1,0.8-2.5,1.4-3.6,1.7
		c-1.4,0.3-2.8,0.3-4.2,0c-1.4-0.3-2.8-0.8-4.2-1.7s-2.5-2-3.6-3.1c-0.8-1.1-1.7-2.5-2-3.6c-0.3-1.4-0.6-2.8-0.3-4.2
		C849,574,849.5,572.6,850.3,571.2z M851.2,571.7c-0.8,1.4-1.4,3.1-1.1,4.5c0.3,1.4,0.8,2.8,2,3.9c1.1,1.1,2.5,2.5,4.5,3.6
		c2,1.1,3.6,2,5,2.2c1.7,0.3,3.1,0.3,4.2-0.3c1.4-0.6,2.5-1.7,3.3-3.1s1.4-3.1,1.1-4.5s-0.8-2.8-1.7-3.9c-1.1-1.1-2.5-2.5-4.5-3.6
		c-2-1.1-3.6-2-5-2.2c-1.7-0.3-3.1-0.3-4.2,0.3C853.1,569.2,852,570.3,851.2,571.7z M842.8,583.7l0.6,0.6l-0.6,0.3
		c-0.6,0.6-0.8,1.1-0.8,1.4c-0.3,0.3-0.3,0.8,0,1.1c0.3,0.3,0.8,0.8,1.4,1.7l11.4,10.9c0.3,0,0.6,0,1.1,0s0.8-0.3,1.4-0.8l0.6-0.6
		l0.6,0.6l-4.2,4.2c-0.6,0-1.4-0.3-2.5-0.3c-1.1,0-2.2-0.3-3.3-0.6c-1.4-0.3-2.5-0.3-3.9-0.6c-1.4-0.3-2.5-0.3-3.9-0.6
		c-1.4,0-2.5-0.3-3.3-0.3c-1.1,0-1.7-0.3-2.5-0.3l8.4,8.1c0.8,0.8,1.4,1.1,1.7,1.4c0.3,0.3,0.8,0.3,1.1,0c0.3-0.3,0.8-0.6,1.4-1.1
		l0.6-0.3l0.6,0.6l-2.8,2.8l-2.5,2.8l-0.6-0.6l0.3-0.6c0.6-0.6,0.8-1.1,0.8-1.4c0.3-0.3,0.3-0.8,0-1.1c-0.3-0.3-0.6-0.8-1.4-1.7
		l-12.8-12.3l0.6-0.6c0.8,0.3,1.7,0.6,2.8,0.6c1.1,0.3,2.5,0.6,3.9,0.6c1.4,0.3,2.8,0.6,4.5,0.6c1.4,0.3,3.1,0.3,4.5,0.6
		s2.8,0.3,4.2,0.3c1.1,0,2.2,0.3,3.1,0.3l-10.6-10c-0.8-0.8-1.4-1.1-1.7-1.4c-0.6-0.3-0.8-0.3-1.1,0c-0.3,0.3-0.8,0.6-1.4,0.8
		l-0.6,0.3l-0.6-0.6l2.8-2.8L842.8,583.7z M806,613.3c2.2-1.1,4.2-1.7,6.1-1.4c1.7,0.3,3.3,1.7,4.5,3.9l5,9.5c0.6,0.8,0.8,1.4,1.1,2
		s0.6,0.6,1.1,0.3c0.3,0,0.8-0.3,1.7-0.6l0.6-0.3l0.3,0.6l-4.2,2l0,0l-3.9,2.2l-0.3-0.6l0.6-0.3c0.6-0.3,1.1-0.8,1.4-1.1
		s0.3-0.6,0.3-1.1c0-0.6-0.3-1.1-0.8-2l-5-9.5c-1.1-1.7-2.2-2.8-3.9-3.3c-1.4-0.3-3.1-0.3-4.5,0.6c-2,0.8-2.8,2.2-3.1,3.6
		c-0.3,1.4,0,3.1,0.8,4.7l5,9.5c0.6,0.8,0.8,1.4,1.1,2c0.3,0.6,0.6,0.6,1.1,0.3c0.3,0,0.8-0.3,1.7-0.6l0.6-0.3l0.3,0.6l-4.2,2
		l-2.8,1.4l-0.3-0.6l0.6-0.3c0.6-0.3,1.1-0.8,1.4-1.1c0.3-0.3,0.3-0.6,0.3-1.1s-0.3-1.1-0.8-2l-5-9.5c-1.1-2.2-1.4-3.9-0.8-5.6
		C802.4,615.8,803.8,614.4,806,613.3z M793.5,619.4l0.3,0.8l-0.6,0.3c-0.6,0.3-1.1,0.6-1.4,0.8c-0.3,0.3-0.6,0.6-0.6,1.1
		s0,1.1,0.3,2.2l3.9,15.3c0.3,0.3,0.6,0.3,1.1,0.6s1.1,0.3,1.7,0l0.8-0.3l0.3,0.8l-5.9,1.4c-0.6-0.3-1.1-0.8-2-1.7
		c-0.8-0.6-1.7-1.4-2.8-2.2c-1.1-0.8-2-1.7-3.1-2.5c-1.1-0.8-2.2-1.7-3.1-2.5c-1.1-0.8-2-1.4-2.8-2c-0.8-0.6-1.4-1.1-2-1.4l3.1,11.2
		c0.3,1.1,0.6,1.7,0.8,2c0.3,0.3,0.6,0.6,0.8,0.6c0.3,0,0.8,0,1.7,0h0.6l0.3,0.8l-3.9,0.8l-3.6,1.1l-0.3-0.8l0.6-0.3
		c0.6-0.3,1.1-0.6,1.4-0.8c0.3-0.3,0.6-0.6,0.6-1.1s0-1.1-0.3-2.2l-4.5-17l0.8-0.3c0.6,0.6,1.1,1.1,2,2s2,1.7,3.1,2.5
		c1.1,0.8,2.2,2,3.3,2.8c1.1,0.8,2.5,2,3.6,2.8c1.1,0.8,2.2,1.7,3.3,2.5c1.1,0.8,2,1.4,2.5,2l-3.6-13.9c-0.3-1.1-0.6-1.7-0.8-2
		c-0.3-0.3-0.6-0.6-1.1-0.6c-0.3,0-0.8,0-1.7,0h-0.6l-0.3-0.8l3.9-0.8L793.5,619.4z M768.4,625.6v0.8h-0.6c-0.8,0-1.4,0.3-1.7,0.3
		c-0.3,0-0.6,0.6-0.8,0.8c-0.3,0.6-0.3,1.1-0.3,2.2l0.3,13.7c0,1.1,0,1.7,0.3,2.2c0.3,0.6,0.6,0.8,0.8,0.8s0.8,0.3,1.7,0.3h0.6v0.8
		h-4.5h-4.5c-2.8,0-5-0.3-7-0.8c-2-0.6-3.3-2-4.5-3.3c-1.1-1.7-1.7-3.6-1.7-6.1c0-2,0.3-3.3,0.8-4.7s1.4-2.5,2.5-3.6
		c1.1-0.8,2.2-1.7,3.6-2.2s2.8-0.8,4.2-0.8l5.9-0.3L768.4,625.6z M760.5,627H758c-2.5,0-4.5,0.8-5.9,2.5s-2.2,4.2-2,7.5
		c0,2,0.3,3.9,1.1,5.3c0.6,1.4,1.7,2.5,3.1,3.3s3.1,1.1,5.3,1.1h3.9l-0.3-16.5c0-0.6,0-1.1-0.3-1.7c0-0.6-0.3-1.1-0.6-1.4
		C761.4,627,761.1,627,760.5,627z M742.7,625.6l-0.3,0.8h-0.6c-0.8,0-1.4,0-1.7,0c-0.3,0-0.8,0.3-0.8,0.8s-0.6,1.1-0.6,2l-2.5,13.4
		c-0.3,1.1-0.3,1.7-0.3,2.2c0,0.6,0.3,0.8,0.6,0.8c0.3,0.3,0.8,0.3,1.7,0.6l0.6,0.3l-0.3,0.8l-4.5-0.8l-11.7-2.2l0.3-2.2l0.3-2.8
		h0.8c0,0.8,0,1.7,0.3,2.2c0,0.6,0.3,1.1,0.8,1.4c0.3,0.3,0.8,0.6,1.7,0.8c0.8,0.3,1.7,0.6,2.8,0.6l3.9,0.8l1.7-8.9l-3.3-0.6
		c-0.3,0-0.8,0-1.1,0c-0.3,0-0.6,0.6-0.8,0.8c-0.3,0.3-0.6,1.1-0.8,2.2l-0.8-0.3l0.8-3.9l0.8-4.5l0.8,0.3c-0.3,1.4-0.3,2.5,0,3.3
		c0.3,0.6,0.8,1.1,1.4,1.1l3.3,0.6l1.4-7.5c0.3-0.8,0-1.7-0.3-2c-0.3-0.3-1.1-0.6-2.2-0.8l-2.8-0.6c-1.1-0.3-2.2-0.3-2.8,0
		c-0.8,0-1.4,0.6-1.7,1.4c-0.6,0.8-0.8,2-1.4,3.3l-0.8-0.3l0.8-3.6l0.6-2.8l12.3,2.2L742.7,625.6z M705,614.4c1.1,0.6,1.7,1.1,2,2
		c0.3,0.8,0.3,2,0,3.1c-0.3,0.8-0.3,1.7-0.6,2.5c-0.3,0.8,0,1.7,0,2.5s0.6,1.7,1.1,2.2c0.6,0.6,1.4,1.4,2.8,1.7l1.1,0.6l2.5-6.1
		c0.3-0.8,0.6-1.7,0.6-2c0-0.6,0-0.8-0.3-1.1c-0.3-0.3-0.8-0.6-1.4-0.8l-0.6-0.3l0.3-0.8l4.2,1.7l0,0l4.2,1.7l-0.3,0.8l-0.6-0.3
		c-0.6-0.3-1.1-0.3-1.7-0.3c-0.6,0-0.8,0.3-1.1,0.6c-0.3,0.3-0.6,1.1-1.1,2l-5.3,12.6c-0.3,0.8-0.6,1.7-0.6,2.2s0,0.8,0.3,1.1
		c0.3,0.3,0.8,0.6,1.4,0.8l0.6,0.3l0.3,0.6l-4.2-1.7l-4.2-1.7c-1.4-0.6-2.5-1.1-3.3-2c-0.8-0.8-1.7-1.7-2-2.5
		c-0.3-0.8-0.3-2.2,0.3-3.3c0.6-1.1,1.1-2,2-2.5s1.7-0.8,2.8-0.8c0.8,0,2,0,3.1,0.3c-1.4-0.6-2.2-1.7-2.8-2.8
		c-0.6-1.1-0.6-2.8,0-4.5c0.3-1.1,0.3-2,0.3-2.8c0-0.8,0-1.1-0.3-1.7s-0.6-0.6-0.8-0.8c-0.3,0-0.6,0-0.6,0h-0.6v-0.8
		c0.3,0,0.8,0,1.4,0S704.5,614.1,705,614.4z M704.8,637.3l2.8,1.1l3.6-8.9l-2.5-1.1c-2-0.8-3.3-0.8-4.2-0.6c-1.1,0.6-2,1.4-2.5,2.8
		c-0.3,2-0.6,3.1-0.3,4.2C702.3,635.9,703.1,636.7,704.8,637.3z M682.5,599.1c1.7,1.4,2.8,2.8,3.1,4.5c0.3,1.7,0.6,3.3,0,5.3
		s-1.4,3.6-2.8,5.3c-1.1,1.1-2.2,2.2-3.6,3.1c-1.4,0.8-2.5,1.1-3.9,1.4s-2.8,0-3.9-0.3c-1.4-0.3-2.5-1.1-3.6-2
		c-0.8-0.8-1.7-1.7-2.2-2.2c-0.6-0.8-0.8-1.4-0.8-1.7s-0.3-0.6-0.3-0.8c0-0.3-0.3-0.3-0.3-0.3c-0.3-0.3-0.3-0.3-0.6-0.3
		c-0.3,0-0.6,0.3-0.8,0.6l-0.6-0.6l2.2-2.8l2.2-2.8l0.6,0.6c-1.1,2-1.7,3.6-1.4,5.3c0.3,1.7,0.8,3.1,2.5,4.2c1.1,0.8,2,1.4,3.1,1.7
		c1.1,0.3,2.2,0,3.1-0.3s2-0.8,3.1-1.7c1.1-0.8,2-1.7,2.8-2.8c1.4-1.7,2.5-3.1,3.1-4.7c0.6-1.4,0.8-2.8,0.6-4.2
		c-0.3-1.4-1.1-2.5-2.5-3.6c-1.1-0.8-2.2-1.4-3.3-1.4c-1.1-0.3-2.2,0-3.3,0.3c-1.1,0.3-2.2,1.1-3.1,2l-0.6-0.6l2.5-2.8l2.2-2.8
		l0.6,0.6l0.3-0.3c0,0.3-0.3,0.6-0.3,0.8c0,0.3,0,0.6,0.3,0.6c0,0,0.3,0.3,0.6,0.3c0.3,0,0.6,0,0.8,0.3c0.6,0,1.4,0.3,2.2,0.6
		C680.8,597.7,681.6,598.2,682.5,599.1z M665.7,581.2c0.8,1.1,1.7,2.5,2,3.9s0.3,2.8,0.3,4.2c-0.3,1.4-0.8,2.8-1.4,3.9
		c-0.6,1.1-2,2.5-3.1,3.3c-1.1,0.8-2.8,1.7-4.2,2.2c-1.4,0.3-2.8,0.6-4.2,0.3c-1.4-0.3-2.8-0.6-3.9-1.4c-1.1-0.8-2.2-1.7-3.3-2.8
		c-0.8-1.1-1.7-2.5-2-3.9c-0.3-1.4-0.3-2.8-0.3-4.2s0.8-2.8,1.4-3.9c0.8-1.1,2-2.5,3.1-3.3c1.4-1.1,2.8-1.7,4.2-2.2
		c1.4-0.3,2.8-0.6,4.2-0.3s2.8,0.6,3.9,1.4C663.8,579,664.9,580.1,665.7,581.2z M665.2,581.8c-1.1-1.4-2.2-2.2-3.6-2.8
		c-1.4-0.6-2.8-0.3-4.2,0.3c-1.4,0.6-3.1,1.4-5,2.8c-2,1.4-3.1,2.5-3.9,3.9s-1.4,2.8-1.4,4.2s0.6,2.8,1.7,4.2
		c1.1,1.4,2.2,2.2,3.6,2.8c1.4,0.3,2.8,0.3,4.2-0.3c1.4-0.6,3.1-1.4,5-2.8c2-1.4,3.1-2.5,3.9-3.9s1.4-2.8,1.4-4.2
		S666,583.2,665.2,581.8z M657.4,569.5l-0.8,0.3l-0.3-0.6c-0.3-0.6-0.6-1.1-0.8-1.4c-0.3-0.3-0.6-0.3-1.1-0.3s-1.1,0.3-2.2,0.8
		l-14.5,6.4c0,0.3-0.3,0.6-0.3,1.1s0,1.1,0.3,1.7l0.3,0.8l-0.8,0.3l-2.2-5.6c0.3-0.6,0.8-1.4,1.1-2.2c0.6-0.8,1.1-2,1.7-3.1
		c0.6-1.1,1.4-2.2,2-3.3c0.8-1.1,1.4-2.2,2-3.3c0.6-1.1,1.1-2.2,1.7-3.1c0.6-0.8,0.8-1.7,1.1-2l-10.6,4.7c-0.8,0.3-1.7,0.8-2,1.1
		c-0.3,0.3-0.6,0.6-0.6,1.1c0,0.3,0.3,0.8,0.3,1.7l0.6,0.3l-0.8,0.3l-1.7-3.6l-1.7-3.3l0.8-0.3l0.6,0.6c0.3,0.6,0.6,1.1,0.8,1.4
		c0.3,0.3,0.6,0.6,1.1,0.3c0.6,0,1.1-0.3,2-0.6l16.2-7.3l0.3,0.8c-0.6,0.6-1.1,1.4-1.7,2.2c-0.6,1.1-1.4,2.2-2,3.3
		c-0.8,1.1-1.4,2.5-2.2,3.9c-0.8,1.4-1.4,2.8-2.2,3.9c-0.8,1.4-1.4,2.5-2,3.6c-0.6,1.1-1.1,2-1.4,2.8l13.4-5.9
		c0.8-0.3,1.7-0.8,2-1.1c0.3-0.3,0.6-0.6,0.6-1.1c0-0.3-0.3-0.8-0.3-1.7l-0.3-0.6l0.8-0.3l1.4,3.6L657.4,569.5z M645.9,537.4
		c0.3,0.8,0.3,1.7,0,2.2c0,0.8-0.3,1.4-0.3,2c-0.3,0.6-0.3,0.8-0.3,1.1c0,0.3,0,0.6,0,0.8s0.3,0.6,0.6,0.6s0.6,0,0.8,0h0.6l0.3,0.8
		l-3.9,0.6l-3.9,0.8l-0.3-0.8l1.4-0.6c0.8-0.3,1.7-1.1,2.2-1.7c0.8-0.8,1.1-1.7,1.7-2.5c0.3-1.1,0.3-2,0.3-3.1
		c0-0.6-0.3-1.1-0.8-1.7c-0.3-0.6-0.8-0.8-1.7-1.1c-0.8-0.3-1.4-0.6-2.2-0.3c-1.4,0.3-2.2,0.8-3.1,2c-0.6,1.1-1.1,2.5-1.7,4.2
		l-0.3,1.4c-0.3,1.7-0.8,3.1-1.7,3.9c-0.8,0.8-1.7,1.4-3.1,2c-1.1,0.3-2,0.3-3.1-0.3c-0.8-0.3-1.7-0.8-2.5-1.7
		c-0.8-0.8-1.1-1.7-1.4-3.1c-0.3-0.8-0.3-1.4,0-2.2s0.3-1.1,0.3-1.4c0.3-0.6,0.3-1.1,0-1.4c0-0.3-0.6-0.6-1.1-0.3l-0.3-0.8l2.8-0.6
		l2.8-0.6l0.3,0.8c-1.1,0.3-2,0.8-2.8,1.7c-0.6,0.6-1.1,1.4-1.4,2.2c-0.3,0.8-0.3,1.7,0,2.5c0.3,1.1,0.8,2,1.7,2.5
		c0.8,0.6,1.7,0.8,2.8,0.6c1.1-0.3,2-0.8,2.5-1.7s0.8-2,1.1-3.3l0.3-1.4c0.3-1.1,0.6-2.2,1.1-3.1c0.6-0.8,0.8-1.7,1.7-2.2
		c0.6-0.6,1.7-1.1,2.8-1.4c1.1-0.3,2.2-0.3,3.3,0c1.1,0.3,2,0.8,2.5,1.7C645.1,535.5,645.6,536.3,645.9,537.4z M643.4,521.5h-0.8
		V521c0-0.8-0.3-1.4-0.3-2c-0.3-0.6-0.6-0.8-0.8-0.8s-1.4-0.6-2.2-0.6l-16.7,0.3v4.5c0,0.8,0.3,1.7,0.6,2.2c0.3,0.6,0.8,1.1,1.7,1.4
		c0.8,0.3,2,0.8,3.3,1.4l-0.3,0.6l-3.9-0.8l-2.5-0.3v-8.6v-2.8l-0.3-8.9l2.5-0.3l3.6-0.8l0.3,0.6c-1.1,0.6-2.2,1.1-3.1,1.4
		c-0.8,0.3-1.4,0.8-2,1.4c-0.3,0.6-0.6,1.1-0.6,2.2v4.5l16.7-0.3c1.1,0,1.7,0,2.2-0.3c0.6-0.3,0.8-0.6,0.8-0.8c0-0.6,0.3-1.1,0.3-2
		v-0.6h0.8v5L643.4,521.5z M647.3,484.7c-0.3,1.1-0.8,2-1.7,2.2c-0.8,0.3-2,0.6-3.1,0.6c-0.8,0-1.7,0-2.5,0s-1.7,0.3-2.5,0.6
		s-1.4,0.8-2,1.7c-0.6,0.6-0.8,1.4-1.1,2.8l-0.3,1.4l6.4,1.4c1.1,0,1.7,0,2.2,0s0.8-0.3,1.1-0.6c0.3-0.3,0.6-0.8,0.6-1.4l0.3-0.6
		l0.8,0.3l-1.1,4.5l0,0l-0.8,4.5l-0.8-0.3v-0.6c0-0.8,0-1.4,0-1.7c0-0.3-0.3-0.8-0.6-0.8c-0.3-0.3-1.1-0.6-2-0.6l-13.4-2.8
		c-1.1-0.3-1.7-0.3-2.2-0.3c-0.6,0-0.8,0.3-1.1,0.6s-0.3,0.8-0.6,1.7l-0.3,0.6l-0.8-0.3l1.1-4.5l0.8-4.2c0.3-1.4,0.6-2.5,1.1-3.6
		c0.6-1.1,1.4-2,2.2-2.5c0.8-0.6,2-0.8,3.3-0.6c1.1,0.3,2.2,0.8,2.8,1.4c0.6,0.6,1.1,1.4,1.4,2.5c0.3,0.8,0.3,2,0.3,3.1
		c0.3-1.4,1.1-2.5,2.2-3.3c1.1-0.8,2.5-1.1,4.5-1.1c1.1,0,2,0,2.8-0.3c0.6-0.3,1.1-0.3,1.4-0.6c0.3-0.3,0.6-0.6,0.6-0.8
		c0-0.3,0-0.6,0-0.6c0-0.3,0-0.6,0-0.6h0.8c0,0.3,0.3,0.8,0.3,1.4C647.3,483.6,647.3,484.2,647.3,484.7z M624.7,488.9l-0.6,3.1
		l9.5,2l0.6-2.5c0.3-2,0.3-3.3-0.3-4.2c-0.6-0.8-1.7-1.7-3.3-2c-1.4-0.3-2.8-0.3-3.6,0.3C626.1,486.1,625,486.9,624.7,488.9z
		 M652.9,469.4c-1.1,2.2-2.2,3.9-3.9,4.7s-3.6,0.8-5.9-0.3l-10-4.5c-0.8-0.3-1.7-0.6-2-0.6c-0.3,0-0.8,0-1.1,0.3
		c-0.3,0.6-0.6,1.1-0.8,1.7l-0.3,0.6l-0.8-0.3l2-4.2l0,0l1.7-4.2l0.8,0.3l-0.3,0.6c-0.3,0.6-0.3,1.1-0.3,1.7c0,0.3,0,0.8,0.6,1.1
		s0.8,0.6,2,1.1l10,4.5c2,0.8,3.6,0.8,5,0.3c1.4-0.6,2.5-1.7,3.1-3.3c0.8-2,0.8-3.6,0.3-4.7c-0.6-1.4-2-2.2-3.6-3.1l-10.3-4.7
		c-0.8-0.3-1.7-0.6-2-0.6s-0.8,0-1.1,0.3c-0.3,0.3-0.6,0.8-0.8,1.4l-0.3,0.6l-0.8-0.3l2-4.2l1.1-2.8l0.6,0.3v0.6
		c-0.3,0.6-0.3,1.1-0.3,1.7c0,0.3,0,0.8,0.6,1.1s0.8,0.6,2,1.1l9.8,4.2c2.2,0.8,3.6,2.2,4.2,3.9C654.3,465.2,654,467.1,652.9,469.4z
		 M665.4,448.2c-1.1,1.7-2.8,2.8-4.5,3.6s-3.3,0.8-5.3,0.6c-2-0.3-3.6-1.1-5.3-2.5c-1.4-0.8-2.5-2-3.1-3.3c-0.8-1.4-1.4-2.8-1.7-4.2
		c-0.3-1.4-0.3-2.8,0-3.9c0.3-1.1,0.8-2.5,1.7-3.6s1.4-1.7,2.2-2.2c0.8-0.6,1.1-0.8,1.7-1.1c0.3-0.3,0.6-0.3,0.6-0.3l0.3-0.3
		c0-0.3,0.3-0.3,0-0.6c0-0.3-0.3-0.6-0.6-0.8l0.6-0.6l2.8,2.2l3.1,2l-0.6,0.6c-2-1.1-3.6-1.4-5.3-1.1c-1.7,0.3-3.1,1.1-4.2,2.8
		c-0.8,1.1-1.1,2.2-1.4,3.3c-0.3,1.1,0,2.2,0.6,3.1c0.6,1.1,1.1,2,2,3.1c0.8,0.8,2,2,3.1,2.8c1.7,1.4,3.3,2.2,4.7,2.8
		c1.4,0.6,2.8,0.6,4.2,0.3c1.4-0.3,2.5-1.4,3.6-2.8c0.8-1.1,1.1-2.2,1.4-3.3c0.3-1.1,0-2.2-0.6-3.3s-1.1-2-2-2.8l0.6-0.6l3.1,2.2
		l3.1,2l-0.6,0.6h-0.3c-0.3,0-0.6-0.3-0.8-0.3s-0.6,0-0.6,0.3c0,0-0.3,0.3-0.3,0.6s0,0.6-0.3,0.8c0,0.6-0.3,1.4-0.6,2.2
		C666.6,447.1,666,447.1,665.4,448.2z M677.4,434l-0.6-0.6l0.6-0.6c0.6-0.6,1.1-1.1,1.1-1.4c0.3-0.3,0.3-0.8,0-1.1
		c-0.3-0.6-0.6-1.1-1.1-1.7l-11.2-12.6l-3.3,2.8c-0.8,0.6-1.1,1.1-1.4,2c-0.3,0.6-0.3,1.4,0,2.2c0.3,0.8,0.6,2,1.1,3.3l-0.6,0.3
		l-2-3.3l-1.4-2l6.7-5.6l2.2-2l6.4-5.9l2,1.7l3.1,2.2l-0.3,0.6c-1.1-0.6-2.2-1.1-3.1-1.4c-0.8-0.3-1.7-0.6-2.2-0.6
		c-0.6,0-1.4,0.3-2,0.8l-3.3,2.8l11.2,12.6c0.6,0.8,1.1,1.1,1.7,1.4c0.6,0.3,0.8,0.3,1.4,0c0.6-0.3,0.8-0.6,1.7-1.1l0.6-0.3l0.6,0.6
		l-3.9,3.3L677.4,434z M692.8,421.7l-0.3-0.6l0.6-0.3c0.6-0.6,1.1-0.8,1.1-1.1c0-0.3,0.3-0.6,0.3-1.1c0-0.6-0.6-1.1-0.8-2l-7-11.7
		c-0.8-1.1-1.4-1.7-1.7-2c-0.3-0.3-0.8-0.3-1.1-0.3c-0.3,0-0.8,0.3-1.4,0.6l-0.6,0.3l-0.3-0.6l3.6-2.5l0,0l3.9-2.5l0.3,0.6l-0.6,0.3
		c-0.6,0.6-0.8,0.8-1.1,1.1c-0.3,0.3-0.3,0.8-0.3,1.1c0,0.6,0.6,1.1,0.8,2l7,11.7c0.6,0.8,0.8,1.4,1.4,1.7c0.3,0.3,0.8,0.3,1.1,0.3
		c0.3,0,0.8-0.3,1.7-0.6l0.6-0.3l0.3,0.6l-3.9,2.2l0,0L692.8,421.7z M715.1,410.5c-1.4,0.6-2.8,0.8-4.2,0.8s-2.8-0.3-3.9-1.1
		c-1.1-0.6-2.2-1.4-3.3-2.5c-1.1-1.1-1.7-2.5-2.2-3.9c-0.6-1.7-0.8-3.1-0.8-4.5c0-1.4,0.3-2.8,0.8-4.2s1.4-2.5,2.2-3.3
		c0.8-1.1,2-2,3.3-2.5c1.4-0.6,2.8-0.8,4.2-0.8s2.8,0.3,3.9,1.1c1.1,0.6,2.2,1.4,3.3,2.5c1.1,1.1,1.7,2.5,2.2,3.9
		c0.6,1.7,0.8,3.1,0.8,4.5s-0.3,2.8-0.8,4.2c-0.6,1.4-1.4,2.5-2.2,3.3C717.9,409.1,716.5,410,715.1,410.5z M714.8,409.7
		c1.7-0.6,2.8-1.7,3.6-2.8s1.1-2.5,1.1-4.2s-0.6-3.3-1.4-5.6c-0.8-2-1.7-3.6-2.8-5c-1.1-1.4-2.2-2-3.6-2.5c-1.4-0.3-2.8-0.3-4.5,0.3
		c-1.7,0.6-2.8,1.4-3.6,2.8c-0.8,1.1-1.1,2.5-1.1,4.2c0,1.7,0.6,3.3,1.4,5.6c0.8,2,1.7,3.6,2.8,5c1.1,1.4,2.2,2,3.6,2.5
		C711.7,410.3,713.1,410.3,714.8,409.7z M728.8,405.5v-0.8l0.6-0.3c0.8-0.3,1.1-0.3,1.7-0.6c0.3-0.3,0.6-0.6,0.6-0.8
		c0-0.6,0-1.1,0-2.2l-2.2-15.6c-0.3-0.3-0.6-0.3-0.8-0.6c-0.3-0.3-0.8-0.3-1.7-0.3H726v-0.8l5.9-0.8c0.6,0.6,1.1,1.1,1.7,1.7
		c0.6,0.6,1.7,1.7,2.5,2.5c0.8,0.8,2,2,2.8,2.8s2,2,2.8,2.8c0.8,0.8,1.7,1.7,2.5,2.5s1.4,1.4,1.7,1.7l-1.7-11.4
		c-0.6-0.6-0.6-1.4-0.8-2c-0.3-0.3-0.6-0.6-0.8-0.8c-0.3,0-0.8,0-1.7,0h-0.6v-0.8l3.9-0.6l3.6-0.6v0.8l-0.6,0.3
		c-0.6,0.3-1.1,0.3-1.7,0.6s-0.6,0.6-0.6,0.8s0,1.1,0,2.2l2.5,17.6h-0.8c-0.3-0.6-1.1-1.4-1.7-2.2c-0.8-0.8-1.7-2-2.5-3.1
		c-1.1-1.1-2-2.2-3.1-3.3c-1.1-1.1-2.2-2.2-3.1-3.1c-1.1-1.1-2-2-2.8-2.8s-1.7-1.7-2.2-2.2l2,14.5c0,1.1,0.3,1.7,0.6,2.2
		c0.3,0.6,0.6,0.6,0.8,0.8c0.3,0.3,0.8,0,1.7,0h0.6v0.8l-4.5,0.6L728.8,405.5z"/>
	<path class="st0" d="M802.7,342.4c-3.1-0.9-5.8-2.2-7.6-4.5c-1.8-2.2-3.1-4.5-3.6-7.6c-0.4-3.1-0.4-6.3,0.4-9.4
		c0.9-2.7,1.8-4.9,3.1-6.7c1.3-1.8,3.1-3.6,4.9-4.5c1.8-1.3,4-1.8,6.3-2.2c2.2-0.4,4.5-0.4,6.7,0.4c1.8,0.4,3.6,1.3,4.5,1.8
		c0.9,0.4,1.8,1.3,2.7,1.8c0.4,0.4,0.9,0.4,0.9,0.9c0.4,0.4,0.4,0.4,0.4,0.4c0.4,0,0.4,0,0.9,0s0.4-0.4,0.9-1.3l1.3,0.4l-1.8,5.4
		l-1.3,5.4l-1.3-0.4c0.4-3.6,0-6.3-1.3-8.5c-1.3-2.2-3.6-4-6.3-4.5c-2.2-0.4-4-0.4-5.8,0c-1.8,0.4-3.1,1.3-4.5,2.7
		c-1.3,1.3-2.2,2.7-3.1,4.5c-0.9,1.8-1.8,4-2.2,6.3c-0.9,3.1-1.3,6.3-1.3,9s0.9,4.9,2.2,6.3c1.3,1.8,3.1,3.1,6.3,3.6
		c2.2,0.4,4,0.4,5.8,0c1.8-0.4,3.1-1.3,4.9-2.7c1.3-1.3,2.2-3.1,3.1-4.9l1.3,0.4l-1.8,5.8l-1.3,5.8l-1.8-0.9v-0.4c0-0.4,0-0.9,0-1.3
		s-0.4-0.9-0.9-0.9c0,0-0.4,0-0.9,0s-0.9,0-1.3,0c-0.9,0-2.2,0.4-3.6,0.4C806.3,343.2,804.5,343.2,802.7,342.4z M839.5,357.1
		c-2.2-1.3-4-2.7-5.4-4.5c-1.3-1.8-2.2-3.6-3.1-5.8c-0.4-2.2-0.9-4.5-0.4-6.7c0.4-2.2,0.9-4.9,2.2-7.2c1.3-2.2,2.7-4.5,4.5-5.8
		c1.8-1.3,3.6-2.7,5.8-3.1c2.2-0.9,4.5-0.9,6.7-0.9s4.5,0.9,6.7,2.2c2.2,1.3,4,2.7,5.4,4.5c1.3,1.8,2.2,3.6,3.1,5.8
		c0.4,2.2,0.9,4.5,0.4,6.7c-0.4,2.2-0.9,4.5-2.2,7.2c-1.3,2.2-2.7,4.5-4.5,5.8c-1.8,1.3-3.6,2.7-5.8,3.6c-2.2,0.9-4.5,0.9-6.7,0.9
		C844,358.9,841.7,358.5,839.5,357.1z M839.9,355.8c2.7,1.3,4.9,1.8,7.2,1.3s4-1.3,6.3-3.1c2.2-1.8,3.6-4,5.4-7.2
		c1.8-3.1,2.7-5.8,3.1-8.5c0.4-2.2,0-4.5-0.9-6.7c-0.9-2.2-2.7-3.6-5.4-4.9c-2.2-1.3-4.5-1.8-6.7-1.3c-2.2,0.4-4.5,1.3-6.3,3.1
		c-1.8,1.8-3.6,4-5.4,7.2c-1.8,3.1-2.7,5.8-3.1,8.5s0,4.9,0.9,6.7C835.9,353.1,837.7,354.5,839.9,355.8z M860.1,367.9l0.9-0.9
		l0.9,0.4c0.9,0.9,1.8,1.3,2.2,1.3c0.4,0,1.3,0,1.8,0s1.3-1.3,2.7-2.2l14.8-16.1c0.9-1.3,1.8-2.2,2.2-2.7c0.4-0.4,0.4-1.3,0-1.8
		c-0.4-0.4-0.9-1.3-1.8-2.2l-0.4-0.9l0.9-0.9l5.4,4.9l2.2,1.8l-11.7,29.1l28.7-12.1l2.2,1.8l5.4,4.5l-0.9,0.9l-0.9-0.4
		c-0.9-0.4-1.8-1.3-2.2-1.3s-1.3,0-1.8,0c-0.4,0-1.3,1.3-2.7,2.2l-14.8,16.6c-0.9,1.3-1.8,2.2-2.2,2.7c-0.4,0.9-0.4,1.3,0,1.8
		c0.4,0.4,0.9,1.3,1.8,2.2l0.4,0.9l-0.9,0.9l-5.4-4.9l-5.4-4.9l0.9-0.9l0.9,0.4c0.9,0.9,1.8,1.3,2.2,1.3c0.4,0.4,1.3,0,1.8,0
		c0.4-0.4,1.3-1.3,2.7-2.2l17-18.8l-32.3,13.4l-0.9-0.4l12.1-31.8l-17.9,19.3c-0.9,0.9-1.3,1.3-1.3,1.8c0,0.4,0,1.3,0,1.8
		s0.9,1.3,1.3,2.2l0.4,0.9v0.9l-4.5-4.5L860.1,367.9z M896.4,404.6l0.9-0.9l0.4,0.9c0.9,0.9,1.3,1.3,1.8,1.8c0.4,0.4,1.3,0.4,1.8,0
		c0.9-0.4,1.8-0.9,3.1-1.8l17.9-12.5c1.3-0.9,2.2-1.8,2.7-2.2c0.4-0.4,0.4-1.3,0.4-1.8s-0.4-1.3-0.9-2.2l-0.4-0.9l0.9-0.9l4,5.8l0,0
		l4.5,5.8l-0.9,0.9l-0.4-0.9c-0.9-0.9-1.3-1.3-1.8-1.8c-0.4-0.4-1.3-0.4-1.8-0.4c-0.4,0-1.8,0.9-3.1,1.8l-17.9,12.5
		c-1.3,0.9-2.2,1.8-2.7,2.2c-0.4,0.4-0.4,1.3-0.4,1.8c0,0.4,0.4,1.3,0.9,2.2l0.4,0.9l-0.9,1.8l-4-5.8l0,0L896.4,404.6z M909.4,422.6
		l0.9-0.4l0.4,0.9c0.4,0.9,1.3,1.8,1.8,2.2c0.4,0.4,0.9,0.4,1.8,0.4s1.8-0.4,3.1-1.3l22.9-10.8c0-0.4,0.4-0.9,0.4-1.8s0-1.8-0.4-2.7
		l-0.4-1.3l1.3-0.4l4,8.5c-0.4,0.9-1.3,2.2-1.8,3.6c-0.9,1.3-1.8,3.1-2.7,4.9c-0.9,1.8-1.8,3.6-3.1,5.8c-0.9,1.8-1.8,3.6-2.7,5.4
		c-0.9,1.8-1.8,3.6-2.7,4.9c-0.9,1.3-1.3,2.7-1.8,3.6l17-8.1c1.3-0.9,2.7-1.3,3.1-1.8s0.9-0.9,0.9-1.8c0-0.4-0.4-1.3-0.9-2.7
		l-0.4-0.9l0.9-0.4l2.7,5.8l2.7,5.4l-0.9,0.4l-0.9-0.9c-0.4-0.9-1.3-1.8-1.8-2.2s-0.9-0.4-1.8-0.4s-1.8,0.4-3.1,1.3l-25.5,12.1
		l-0.4-1.3c0.9-0.9,1.8-2.2,2.7-4c0.9-1.8,2.2-3.6,3.1-5.4c1.3-2.2,2.2-4,3.6-6.3c1.3-2.2,2.2-4.5,3.6-6.3s2.2-4,2.7-5.8
		c0.9-1.8,1.3-3.1,2.2-4.5l-21.1,9.9c-1.3,0.9-2.7,1.3-3.1,1.8s-0.9,0.9-0.9,1.8c0,0.4,0.4,1.3,0.9,2.7l0.4,0.9l-0.9,0.4l-2.7-5.8
		L909.4,422.6z M929.6,477.2c-0.4-3.1-0.4-5.8,0.4-8.5c0.9-2.7,2.7-4.9,4.9-7.2c2.2-1.8,5.4-3.6,9-4c2.7-0.4,4.9-0.4,7.6-0.4
		s4.5,1.3,6.3,2.2c1.8,1.3,3.6,2.7,4.9,4.5c1.3,1.8,2.2,3.6,2.7,5.8c0.4,1.3,0.4,2.7,0.4,4c0,1.3-0.4,2.2-0.4,3.1
		c0,0.9-0.4,1.3-0.4,1.8c0,0.4,0,0.9,0,1.3c0,0.4,0.4,0.9,0.9,0.9s0.9,0,1.3,0l0.4,1.3l-5.4,0.9l-5.8,1.3l-0.4-1.3
		c2.2-0.4,4-1.3,5.4-3.1c1.3-1.3,2.2-3.1,2.7-4.9c0.4-1.8,0.4-3.6,0-5.4c-0.9-3.6-2.7-6.3-5.8-7.6s-7.6-1.3-12.5,0
		c-5.4,1.3-9.4,3.1-11.7,5.8c-2.2,2.7-3.1,5.8-2.2,9.4c0.4,1.8,0.9,3.1,1.8,4.5c0.9,1.3,1.8,2.2,3.1,2.7c1.3,0.4,2.2,0.9,3.1,0.4
		l1.3-0.4c1.3-0.4,2.2-0.9,2.7-1.8c0.4-0.9,0.4-2.2,0.4-4l-0.4-2.2l1.3-0.4l1.3,8.1l1.8,7.2l-1.3,0.4l-0.4-2.2
		c-0.4-0.9-0.9-1.3-1.3-1.8c-0.9-0.4-1.8-0.4-3.1,0h-0.9c-0.9,0-1.3,0.4-1.8,0.9c-0.4,0.4-0.9,0.9-1.3,0.9l-0.9,0.9l-0.9-0.9
		c0.4-0.4,0.9-0.9,0.9-1.3s0-0.9,0-0.9c0-0.4-0.4-0.9-0.9-1.3c-0.4-0.4-0.9-0.9-1.3-1.3c-0.4-0.4-0.9-0.9-1.8-1.8
		c-0.4-0.4-1.3-1.3-1.8-2.7C930.5,479.9,930,478.6,929.6,477.2z M932.7,531.9c0-1.3,0.4-2.7,0.9-3.6c0.4-0.9,0.9-1.8,1.3-2.7
		c0.4-0.9,0.9-1.3,0.9-1.8c0.4-0.4,0.4-0.9,0.4-1.3c0-0.4,0-0.9-0.4-0.9c-0.4,0-0.9-0.4-1.3-0.4h-0.9v-1.3l5.8,0.9l6.3,0.4v1.3
		l-2.2,0.4c-1.3,0.4-3.1,0.9-4.5,1.8c-1.3,0.9-2.7,1.8-3.6,3.1c-0.9,1.3-1.8,3.1-1.8,4.9c0,0.9,0,1.8,0.4,3.1
		c0.4,0.9,0.9,1.8,1.8,2.7c0.9,0.9,2.2,0.9,3.6,1.3c2.2,0,4-0.4,5.4-1.8c1.3-1.3,2.7-3.1,4.5-5.4l1.3-1.8c1.3-2.2,2.7-4,4.5-4.9
		c1.3-0.9,3.6-1.3,5.8-1.3c1.8,0,3.1,0.9,4.5,1.8c1.3,0.9,2.2,2.2,2.7,3.6c0.4,1.3,0.9,3.1,0.9,5.4c0,1.3-0.4,2.2-0.9,3.1
		c-0.4,0.9-0.9,1.8-1.3,2.2c-0.4,0.9-0.9,1.3-0.9,1.8s0.4,0.9,1.3,0.9v1.3l-4.5-0.4l-4.5-2.2v-1.3c1.8,0,3.6-0.4,4.9-0.9
		c1.3-0.9,2.2-1.8,3.1-2.7c0.9-0.9,1.3-2.2,1.3-3.6c0-1.8-0.4-3.6-1.3-4.9c-0.9-1.3-2.2-1.8-4-2.2c-1.8,0-3.6,0.4-4.5,1.3
		c-1.3,1.3-2.2,2.7-3.6,4.5l-1.3,1.8c-0.9,1.8-2.2,3.1-3.1,4.5c-0.9,1.3-2.2,2.2-3.6,2.7c-0.9,0.9-2.7,0.9-4.5,0.9
		c-1.8,0-3.6-0.9-4.9-1.8c-1.3-0.9-2.2-2.2-3.1-3.6C932.7,535.1,932.7,533.7,932.7,531.9z M926,566.9c0.9-2.2,1.8-4.5,3.1-6.3
		c1.3-1.8,3.1-3.1,5.4-4c1.8-0.9,4-1.8,6.7-1.8c2.2,0,4.9,0,7.2,0.9c2.7,0.9,4.9,1.8,6.7,3.1c1.8,1.3,3.1,3.1,4.5,4.9
		c0.9,1.8,1.8,4,1.8,6.3c0.4,2.2,0,4.5-0.9,6.7c-0.9,2.2-1.8,4.5-3.1,6.3c-1.3,1.8-3.1,3.1-5.4,4c-1.8,0.9-4,1.8-6.7,1.8
		s-4.9,0-7.2-0.9c-2.7-0.9-4.9-1.8-6.7-3.1c-1.8-1.3-3.6-3.1-4.5-4.9c-0.9-1.8-1.3-4-1.8-6.3C925.1,571.4,925.1,569.1,926,566.9z
		 M927.3,567.3c-0.9,2.7-0.9,4.9,0,7.2c0.9,2.2,2.2,4,4.5,5.4c2.2,1.3,4.9,2.7,8.1,3.6c3.1,0.9,6.3,1.3,9,1.3s4.9-0.9,6.7-2.2
		c1.8-1.3,3.1-3.1,4-6.3c0.9-2.7,0.9-4.9,0-7.2c-0.9-2.2-2.2-4-4.5-5.4c-2.2-1.3-4.9-2.7-8.1-3.6c-3.1-0.9-6.3-1.3-9-1.3
		c-2.7,0-4.9,0.9-6.7,2.2C929.6,562.4,928.2,564.6,927.3,567.3z M908.5,605.9c1.3-2.2,2.7-4,4.5-5.4c1.8-1.3,4-2.2,5.8-2.7
		c2.2-0.4,4.5-0.4,6.7,0c2.2,0.4,4.5,1.3,6.7,2.7c2.2,1.3,4,3.1,5.8,4.9c1.3,1.8,2.7,4,3.1,5.8c0.4,2.2,0.9,4.5,0.4,6.7
		c-0.4,2.2-0.9,4.5-2.2,6.7c-1.3,2.2-2.7,4-4.5,5.4c-1.8,1.3-4,2.2-5.8,2.7c-2.2,0.4-4.5,0.4-6.7,0c-2.2-0.4-4.5-1.3-6.7-2.7
		c-2.2-1.3-4-3.1-5.8-4.9c-1.3-1.8-2.7-4-3.1-5.8c-0.4-2.2-0.9-4.5-0.4-6.7C906.3,610.4,907.2,608.1,908.5,605.9z M909.8,606.8
		c-1.3,2.2-2.2,4.9-1.8,7.2c0.4,2.2,1.3,4.5,3.1,6.3c1.8,1.8,4,4,7.2,5.8c3.1,1.8,5.8,3.1,8.1,3.6c2.7,0.4,4.9,0.4,6.7-0.4
		c2.2-0.9,4-2.7,5.4-4.9c1.3-2.2,2.2-4.9,1.8-7.2c-0.4-2.2-1.3-4.5-2.7-6.3c-1.8-1.8-4-4-7.2-5.8c-3.1-1.8-5.8-3.1-8.1-3.6
		c-2.7-0.4-4.9-0.4-6.7,0.4C913,602.7,911.2,604.5,909.8,606.8z M896.4,626l0.9,0.9l-0.9,0.4c-0.9,0.9-1.3,1.8-1.3,2.2
		c-0.4,0.4-0.4,1.3,0,1.8c0.4,0.4,1.3,1.3,2.2,2.7l18.4,17.5c0.4,0,0.9,0,1.8,0s1.3-0.4,2.2-1.3l0.9-0.9l0.9,0.9l-6.7,6.7
		c-0.9,0-2.2-0.4-4-0.4c-1.8,0-3.6-0.4-5.4-0.9c-2.2-0.4-4-0.4-6.3-0.9c-2.2-0.4-4-0.4-6.3-0.9c-2.2,0-4-0.4-5.4-0.4
		c-1.8,0-2.7-0.4-4-0.4l13.4,13c1.3,1.3,2.2,1.8,2.7,2.2c0.4,0.4,1.3,0.4,1.8,0c0.4-0.4,1.3-0.9,2.2-1.8l0.9-0.4l0.9,0.9l-4.5,4.5
		l-4,4.5l-0.9-0.9l0.4-0.9c0.9-0.9,1.3-1.8,1.3-2.2c0.4-0.4,0.4-1.3,0-1.8c-0.4-0.4-0.9-1.3-2.2-2.7l-20.6-19.7l0.9-0.9
		c1.3,0.4,2.7,0.9,4.5,0.9c1.8,0.4,4,0.9,6.3,0.9c2.2,0.4,4.5,0.9,7.2,0.9c2.2,0.4,4.9,0.4,7.2,0.9c2.2,0.4,4.5,0.4,6.7,0.4
		c1.8,0,3.6,0.4,4.9,0.4l-17-16.1c-1.3-1.3-2.2-1.8-2.7-2.2c-0.9-0.4-1.3-0.4-1.8,0c-0.4,0.4-1.3,0.9-2.2,1.3l-0.9,0.4l-0.9-0.9
		l4.5-4.5L896.4,626z M837.2,673.5c3.6-1.8,6.7-2.7,9.9-2.2c2.7,0.4,5.4,2.7,7.2,6.3l8.1,15.2c0.9,1.3,1.3,2.2,1.8,3.1
		c0.4,0.9,0.9,0.9,1.8,0.4c0.4,0,1.3-0.4,2.7-0.9l0.9-0.4l0.4,0.9l-6.7,3.1l0,0l-6.3,3.6l-0.4-0.9l0.9-0.4c0.9-0.4,1.8-1.3,2.2-1.8
		c0.4-0.4,0.4-0.9,0.4-1.8s-0.4-1.8-1.3-3.1l-8.1-15.2c-1.8-2.7-3.6-4.5-6.3-5.4c-2.2-0.4-4.9-0.4-7.2,0.9c-3.1,1.3-4.5,3.6-4.9,5.8
		c-0.4,2.2,0,4.9,1.3,7.6l8.1,15.2c0.9,1.3,1.3,2.2,1.8,3.1c0.4,0.9,0.9,0.9,1.8,0.4c0.4,0,1.3-0.4,2.7-0.9l0.9-0.4l0.4,0.9
		l-6.7,3.1l-4.5,2.2l-0.4-0.9l0.9-0.4c0.9-0.4,1.8-1.3,2.2-1.8c0.4-0.4,0.4-0.9,0.4-1.8s-0.4-1.8-1.3-3.1l-8.1-15.2
		c-1.8-3.6-2.2-6.3-1.3-9C831.4,677.6,833.7,675.3,837.2,673.5z M817.1,683.4l0.4,1.3l-0.9,0.4c-0.9,0.4-1.8,0.9-2.2,1.3
		c-0.4,0.4-0.9,0.9-0.9,1.8s0,1.8,0.4,3.6l6.3,24.6c0.4,0.4,0.9,0.4,1.8,0.9c0.9,0.4,1.8,0.4,2.7,0l1.3-0.4l0.4,1.3l-9.4,2.2
		c-0.9-0.4-1.8-1.3-3.1-2.7c-1.3-0.9-2.7-2.2-4.5-3.6c-1.8-1.3-3.1-2.7-4.9-4c-1.8-1.3-3.6-2.7-4.9-4c-1.8-1.3-3.1-2.2-4.5-3.1
		c-1.3-0.9-2.2-1.8-3.1-2.2l4.9,17.9c0.4,1.8,0.9,2.7,1.3,3.1c0.4,0.4,0.9,0.9,1.3,0.9s1.3,0,2.7,0h0.9l0.4,1.3l-6.3,1.3l-5.8,1.8
		l-0.4-1.3l0.9-0.4c0.9-0.4,1.8-0.9,2.2-1.3s0.9-0.9,0.9-1.8s0-1.8-0.4-3.6l-7.2-27.3l1.3-0.4c0.9,0.9,1.8,1.8,3.1,3.1
		c1.3,1.3,3.1,2.7,4.9,4s3.6,3.1,5.4,4.5c1.8,1.3,4,3.1,5.8,4.5s3.6,2.7,5.4,4c1.8,1.3,3.1,2.2,4,3.1l-5.8-22.4
		c-0.4-1.8-0.9-2.7-1.3-3.1c-0.4-0.4-0.9-0.9-1.8-0.9c-0.4,0-1.3,0-2.7,0H805l-0.4-1.3l6.3-1.3L817.1,683.4z M776.7,693.3v1.3h-0.9
		c-1.3,0-2.2,0.4-2.7,0.4c-0.4,0-0.9,0.9-1.3,1.3c-0.4,0.9-0.4,1.8-0.4,3.6l0.4,22c0,1.8,0,2.7,0.4,3.6s0.9,1.3,1.3,1.3
		c0.4,0,1.3,0.4,2.7,0.4h0.9v1.3H770h-7.2c-4.5,0-8.1-0.4-11.2-1.3s-5.4-3.1-7.2-5.4c-1.8-2.7-2.7-5.8-2.7-9.9
		c0-3.1,0.4-5.4,1.3-7.6c0.9-2.2,2.2-4,4-5.8c1.8-1.3,3.6-2.7,5.8-3.6s4.5-1.3,6.7-1.3l9.4-0.4L776.7,693.3z M764.2,695.5h-4
		c-4,0-7.2,1.3-9.4,4c-2.2,2.7-3.6,6.7-3.1,12.1c0,3.1,0.4,6.3,1.8,8.5c0.9,2.2,2.7,4,4.9,5.4c2.2,1.3,4.9,1.8,8.5,1.8h6.3
		l-0.4-26.4c0-0.9,0-1.8-0.4-2.7c0-0.9-0.4-1.8-0.9-2.2C765.5,695.5,765.1,695.5,764.2,695.5z M735.5,693.3l-0.4,1.3h-0.9
		c-1.3,0-2.2,0-2.7,0c-0.4,0-1.3,0.4-1.3,1.3s-0.9,1.8-0.9,3.1l-4,21.5c-0.4,1.8-0.4,2.7-0.4,3.6c0,0.9,0.4,1.3,0.9,1.3
		c0.4,0.4,1.3,0.4,2.7,0.9l0.9,0.4l-0.4,1.3l-7.2-1.3l-18.8-3.6l0.4-3.6l0.4-4.5h1.3c0,1.3,0,2.7,0.4,3.6c0,0.9,0.4,1.8,1.3,2.2
		c0.4,0.4,1.3,0.9,2.7,1.3c1.3,0.4,2.7,0.9,4.5,0.9l6.3,1.3l2.7-14.3l-5.4-0.9c-0.4,0-1.3,0-1.8,0c-0.4,0-0.9,0.9-1.3,1.3
		s-0.9,1.8-1.3,3.6l-1.3-0.4l1.3-6.3l1.3-7.2l1.3,0.4c-0.4,2.2-0.4,4,0,5.4c0.4,0.9,1.3,1.8,2.2,1.8l5.4,0.9l2.2-12.1
		c0.4-1.3,0-2.7-0.4-3.1c-0.4-0.4-1.8-0.9-3.6-1.3l-4.5-0.9c-1.8-0.4-3.6-0.4-4.5,0c-1.3,0-2.2,0.9-2.7,2.2
		c-0.9,1.3-1.3,3.1-2.2,5.4l-1.3-0.4l1.3-5.8l0.9-4.5l19.7,3.6L735.5,693.3z M675,675.3c1.8,0.9,2.7,1.8,3.1,3.1s0.4,3.1,0,4.9
		c-0.4,1.3-0.4,2.7-0.9,4s0,2.7,0,4c0,1.3,0.9,2.7,1.8,3.6c0.9,0.9,2.2,2.2,4.5,2.7l1.8,0.9l4-9.9c0.4-1.3,0.9-2.7,0.9-3.1
		c0-0.9,0-1.3-0.4-1.8c-0.4-0.4-1.3-0.9-2.2-1.3l-0.9-0.4l0.4-1.3l6.7,2.7l0,0l6.7,2.7l-0.4,1.3l-0.9-0.4c-0.9-0.4-1.8-0.4-2.7-0.4
		c-0.9,0-1.3,0.4-1.8,0.9s-0.9,1.8-1.8,3.1l-8.5,20.2c-0.4,1.3-0.9,2.7-0.9,3.6s0,1.3,0.4,1.8c0.4,0.4,1.3,0.9,2.2,1.3l0.9,0.4
		l0.4,0.9l-6.7-2.7l-6.7-2.7c-2.2-0.9-4-1.8-5.4-3.1c-1.3-1.3-2.7-2.7-3.1-4c-0.4-1.3-0.4-3.6,0.4-5.4c0.9-1.8,1.8-3.1,3.1-4
		c1.3-0.9,2.7-1.3,4.5-1.3c1.3,0,3.1,0,4.9,0.4c-2.2-0.9-3.6-2.7-4.5-4.5c-0.9-1.8-0.9-4.5,0-7.2c0.4-1.8,0.4-3.1,0.4-4.5
		s0-1.8-0.4-2.7c-0.4-0.9-0.9-0.9-1.3-1.3c-0.4,0-0.9,0-0.9,0H671v-1.3c0.4,0,1.3,0,2.2,0S674.1,674.9,675,675.3z M674.6,712.1
		l4.5,1.8l5.8-14.3l-4-1.8c-3.1-1.3-5.4-1.3-6.7-0.9c-1.8,0.9-3.1,2.2-4,4.5c-0.4,3.1-0.9,4.9-0.4,6.7
		C670.5,709.9,671.9,711.2,674.6,712.1z M638.7,650.7c2.7,2.2,4.5,4.5,4.9,7.2s0.9,5.4,0,8.5c-0.9,3.1-2.2,5.8-4.5,8.5
		c-1.8,1.8-3.6,3.6-5.8,4.9c-2.2,1.3-4,1.8-6.3,2.2s-4.5,0-6.3-0.4c-2.2-0.4-4-1.8-5.8-3.1c-1.3-1.3-2.7-2.7-3.6-3.6
		c-0.9-1.3-1.3-2.2-1.3-2.7s-0.4-0.9-0.4-1.3s-0.4-0.4-0.4-0.4c-0.4-0.4-0.4-0.4-0.9-0.4s-0.9,0.4-1.3,0.9L606,670l3.6-4.5l3.6-4.5
		l0.9,0.9c-1.8,3.1-2.7,5.8-2.2,8.5s1.3,4.9,4,6.7c1.8,1.3,3.1,2.2,4.9,2.7s3.6,0,4.9-0.4c1.3-0.4,3.1-1.3,4.9-2.7
		c1.8-1.3,3.1-2.7,4.5-4.5c2.2-2.7,4-4.9,4.9-7.6c0.9-2.2,1.3-4.5,0.9-6.7s-1.8-4-4-5.8c-1.8-1.3-3.6-2.2-5.4-2.2
		c-1.8-0.4-3.6,0-5.4,0.4c-1.8,0.4-3.6,1.8-4.9,3.1l-0.9-0.9l4-4.5l3.6-4.5l0.9,0.9l0.4-0.4c0,0.4-0.4,0.9-0.4,1.3
		c0,0.4,0,0.9,0.4,0.9c0,0,0.4,0.4,0.9,0.4c0.4,0,0.9,0,1.3,0.4c0.9,0,2.2,0.4,3.6,0.9C636,648.5,637.4,649.3,638.7,650.7z
		 M611.8,622c1.3,1.8,2.7,4,3.1,6.3s0.4,4.5,0.4,6.7c-0.4,2.2-1.3,4.5-2.2,6.3c-0.9,1.8-3.1,4-4.9,5.4c-1.8,1.3-4.5,2.7-6.7,3.6
		c-2.2,0.4-4.5,0.9-6.7,0.4c-2.2-0.4-4.5-0.9-6.3-2.2c-1.8-1.3-3.6-2.7-5.4-4.5c-1.3-1.8-2.7-4-3.1-6.3c-0.4-2.2-0.4-4.5-0.4-6.7
		s1.3-4.5,2.2-6.3c1.3-1.8,3.1-4,4.9-5.4c2.2-1.8,4.5-2.7,6.7-3.6c2.2-0.4,4.5-0.9,6.7-0.4c2.2,0.4,4.5,0.9,6.3,2.2
		C608.7,618.4,610.5,620.2,611.8,622z M610.9,622.9c-1.8-2.2-3.6-3.6-5.8-4.5c-2.2-0.9-4.5-0.4-6.7,0.4c-2.2,0.9-4.9,2.2-8.1,4.5
		s-4.9,4-6.3,6.3c-1.3,2.2-2.2,4.5-2.2,6.7c0,2.2,0.9,4.5,2.7,6.7s3.6,3.6,5.8,4.5c2.2,0.4,4.5,0.4,6.7-0.4c2.2-0.9,4.9-2.2,8.1-4.5
		c3.1-2.2,4.9-4,6.3-6.3c1.3-2.2,2.2-4.5,2.2-6.7S612.3,625.1,610.9,622.9z M598.4,603.2l-1.3,0.4l-0.4-0.9
		c-0.4-0.9-0.9-1.8-1.3-2.2c-0.4-0.4-0.9-0.4-1.8-0.4c-0.9,0-1.8,0.4-3.6,1.3l-23.3,10.3c0,0.4-0.4,0.9-0.4,1.8c0,0.9,0,1.8,0.4,2.7
		l0.4,1.3l-1.3,0.4l-3.6-9c0.4-0.9,1.3-2.2,1.8-3.6c0.9-1.3,1.8-3.1,2.7-4.9c0.9-1.8,2.2-3.6,3.1-5.4c1.3-1.8,2.2-3.6,3.1-5.4
		c0.9-1.8,1.8-3.6,2.7-4.9s1.3-2.7,1.8-3.1l-17,7.6c-1.3,0.4-2.7,1.3-3.1,1.8c-0.4,0.4-0.9,0.9-0.9,1.8c0,0.4,0.4,1.3,0.4,2.7
		l0.9,0.4l-1.3,0.4l-2.7-5.8l-2.7-5.4l1.3-0.4l0.9,0.9c0.4,0.9,0.9,1.8,1.3,2.2c0.4,0.4,0.9,0.9,1.8,0.4c0.9,0,1.8-0.4,3.1-0.9
		l26-11.7l0.4,1.3c-0.9,0.9-1.8,2.2-2.7,3.6c-0.9,1.8-2.2,3.6-3.1,5.4c-1.3,1.8-2.2,4-3.6,6.3c-1.3,2.2-2.2,4.5-3.6,6.3
		c-1.3,2.2-2.2,4-3.1,5.8c-0.9,1.8-1.8,3.1-2.2,4.5l21.5-9.4c1.3-0.4,2.7-1.3,3.1-1.8c0.4-0.4,0.9-0.9,0.9-1.8
		c0-0.4-0.4-1.3-0.4-2.7l-0.4-0.9l1.3-0.4l2.2,5.8L598.4,603.2z M580,551.6c0.4,1.3,0.4,2.7,0,3.6c0,1.3-0.4,2.2-0.4,3.1
		c-0.4,0.9-0.4,1.3-0.4,1.8s0,0.9,0,1.3c0,0.4,0.4,0.9,0.9,0.9c0.4,0,0.9,0,1.3,0h0.9l0.4,1.3l-6.3,0.9l-6.3,1.3l-0.4-1.3l2.2-0.9
		c1.3-0.4,2.7-1.8,3.6-2.7c1.3-1.3,1.8-2.7,2.7-4c0.4-1.8,0.4-3.1,0.4-4.9c0-0.9-0.4-1.8-1.3-2.7c-0.4-0.9-1.3-1.3-2.7-1.8
		c-1.3-0.4-2.2-0.9-3.6-0.4c-2.2,0.4-3.6,1.3-4.9,3.1c-0.9,1.8-1.8,4-2.7,6.7l-0.4,2.2c-0.4,2.7-1.3,4.9-2.7,6.3
		c-1.3,1.3-2.7,2.2-4.9,3.1c-1.8,0.4-3.1,0.4-4.9-0.4c-1.3-0.4-2.7-1.3-4-2.7c-1.3-1.3-1.8-2.7-2.2-4.9c-0.4-1.3-0.4-2.2,0-3.6
		c0.4-1.3,0.4-1.8,0.4-2.2c0.4-0.9,0.4-1.8,0-2.2c0-0.4-0.9-0.9-1.8-0.4l-0.4-1.3l4.5-0.9l4.5-0.9l0.4,1.3c-1.8,0.4-3.1,1.3-4.5,2.7
		c-0.9,0.9-1.8,2.2-2.2,3.6c-0.4,1.3-0.4,2.7,0,4c0.4,1.8,1.3,3.1,2.7,4c1.3,0.9,2.7,1.3,4.5,0.9c1.8-0.4,3.1-1.3,4-2.7
		c0.9-1.3,1.3-3.1,1.8-5.4l0.4-2.2c0.4-1.8,0.9-3.6,1.8-4.9c0.9-1.3,1.3-2.7,2.7-3.6c0.9-0.9,2.7-1.8,4.5-2.2s3.6-0.4,5.4,0
		s3.1,1.3,4,2.7C578.6,548.5,579.5,549.9,580,551.6z M576,526.1h-1.3v-0.9c0-1.3-0.4-2.2-0.4-3.1c-0.4-0.9-0.9-1.3-1.3-1.3
		s-2.2-0.9-3.6-0.9l-26.9,0.4v7.2c0,1.3,0.4,2.7,0.9,3.6s1.3,1.8,2.7,2.2c1.3,0.4,3.1,1.3,5.4,2.2l-0.4,0.9l-6.3-1.3l-4-0.4v-13.9
		v-4.5l-0.4-14.3l4-0.4l5.8-1.3l0.4,0.9c-1.8,0.9-3.6,1.8-4.9,2.2c-1.3,0.4-2.2,1.3-3.1,2.2c-0.4,0.9-0.9,1.8-0.9,3.6v7.2l26.9-0.4
		c1.8,0,2.7,0,3.6-0.4c0.9-0.4,1.3-0.9,1.3-1.3c0-0.9,0.4-1.8,0.4-3.1V510h1.3v8.1L576,526.1z M582.2,466.9
		c-0.4,1.8-1.3,3.1-2.7,3.6c-1.3,0.4-3.1,0.9-4.9,0.9c-1.3,0-2.7,0-4,0c-1.3,0-2.7,0.4-4,0.9c-1.3,0.4-2.2,1.3-3.1,2.7
		c-0.9,0.9-1.3,2.2-1.8,4.5l-0.4,2.2l10.3,2.2c1.8,0,2.7,0,3.6,0c0.9,0,1.3-0.4,1.8-0.9s0.9-1.3,0.9-2.2l0.4-0.9l1.3,0.4l-1.8,7.2
		l0,0l-1.3,7.2l-1.3-0.4v-0.9c0-1.3,0-2.2,0-2.7c0-0.4-0.4-1.3-0.9-1.3c-0.4-0.4-1.8-0.9-3.1-0.9l-21.5-4.5
		c-1.8-0.4-2.7-0.4-3.6-0.4c-0.9,0-1.3,0.4-1.8,0.9c-0.4,0.4-0.4,1.3-0.9,2.7l-0.4,0.9l-1.3-0.4l1.8-7.2l1.3-6.7
		c0.4-2.2,0.9-4,1.8-5.8c0.9-1.8,2.2-3.1,3.6-4c1.3-0.9,3.1-1.3,5.4-0.9c1.8,0.4,3.6,1.3,4.5,2.2c0.9,0.9,1.8,2.2,2.2,4
		c0.4,1.3,0.4,3.1,0.4,4.9c0.4-2.2,1.8-4,3.6-5.4c1.8-1.3,4-1.8,7.2-1.8c1.8,0,3.1,0,4.5-0.4c0.9-0.4,1.8-0.4,2.2-0.9
		c0.4-0.4,0.9-0.9,0.9-1.3c0-0.4,0-0.9,0-0.9c0-0.4,0-0.9,0-0.9h1.3c0,0.4,0.4,1.3,0.4,2.2C582.2,465.1,582.2,466,582.2,466.9z
		 M545.9,473.7l-0.9,4.9l15.2,3.1l0.9-4c0.4-3.1,0.4-5.4-0.4-6.7c-0.9-1.3-2.7-2.7-5.4-3.1c-2.2-0.4-4.5-0.4-5.8,0.4
		C548.2,469.2,546.4,470.5,545.9,473.7z M591.2,442.3c-1.8,3.6-3.6,6.3-6.3,7.6s-5.8,1.3-9.4-0.4l-16.1-7.2
		c-1.3-0.4-2.7-0.9-3.1-0.9s-1.3,0-1.8,0.4c-0.4,0.9-0.9,1.8-1.3,2.7l-0.4,0.9l-1.3-0.4l3.1-6.7l0,0l2.7-6.7l1.3,0.4l-0.4,0.9
		c-0.4,0.9-0.4,1.8-0.4,2.7c0,0.4,0,1.3,0.9,1.8c0.9,0.4,1.3,0.9,3.1,1.8l16.1,7.2c3.1,1.3,5.8,1.3,8.1,0.4c2.2-0.9,4-2.7,4.9-5.4
		c1.3-3.1,1.3-5.8,0.4-7.6c-0.9-2.2-3.1-3.6-5.8-4.9l-16.6-7.6c-1.3-0.4-2.7-0.9-3.1-0.9c-0.4,0-1.3,0-1.8,0.4
		c-0.4,0.4-0.9,1.3-1.3,2.2l-0.4,0.9l-1.3-0.4l3.1-6.7l1.8-4.5l0.9,0.4v0.9c-0.4,0.9-0.4,1.8-0.4,2.7c0,0.4,0,1.3,0.9,1.8
		c0.9,0.4,1.3,0.9,3.1,1.8l15.7,6.7c3.6,1.3,5.8,3.6,6.7,6.3S593,438.7,591.2,442.3z M611.4,408.2c-1.8,2.7-4.5,4.5-7.2,5.8
		s-5.4,1.3-8.5,0.9c-3.1-0.4-5.8-1.8-8.5-4c-2.2-1.3-4-3.1-4.9-5.4c-1.3-2.2-2.2-4.5-2.7-6.7c-0.4-2.2-0.4-4.5,0-6.3
		c0.4-1.8,1.3-4,2.7-5.8c1.3-1.8,2.2-2.7,3.6-3.6c1.3-0.9,1.8-1.3,2.7-1.8c0.4-0.4,0.9-0.4,0.9-0.4l0.4-0.4c0-0.4,0.4-0.4,0-0.9
		c0-0.4-0.4-0.9-0.9-1.3l0.9-0.9l4.5,3.6l4.9,3.1l-0.9,0.9c-3.1-1.8-5.8-2.2-8.5-1.8c-2.7,0.4-4.9,1.8-6.7,4.5
		c-1.3,1.8-1.8,3.6-2.2,5.4c-0.4,1.8,0,3.6,0.9,4.9c0.9,1.8,1.8,3.1,3.1,4.9c1.3,1.3,3.1,3.1,4.9,4.5c2.7,2.2,5.4,3.6,7.6,4.5
		c2.2,0.9,4.5,0.9,6.7,0.4s4-2.2,5.8-4.5c1.3-1.8,1.8-3.6,2.2-5.4s0-3.6-0.9-5.4c-0.9-1.8-1.8-3.1-3.1-4.5l0.9-0.9l4.9,3.6l4.9,3.1
		l-0.9,0.9h-0.4c-0.4,0-0.9-0.4-1.3-0.4c-0.4,0-0.9,0-0.9,0.4c0,0-0.4,0.4-0.4,0.9c0,0.4,0,0.9-0.4,1.3c0,0.9-0.4,2.2-0.9,3.6
		S612.3,406.4,611.4,408.2z M630.6,385.4l-0.9-0.9l0.9-0.9c0.9-0.9,1.8-1.8,1.8-2.2c0.4-0.4,0.4-1.3,0-1.8c-0.4-0.9-0.9-1.8-1.8-2.7
		l-17.9-20.2l-5.4,4.5c-1.3,0.9-1.8,1.8-2.2,3.1c-0.4,0.9-0.4,2.2,0,3.6c0.4,1.3,0.9,3.1,1.8,5.4l-0.9,0.4l-3.1-5.4l-2.2-3.1l10.8-9
		l3.6-3.1l10.3-9.4l3.1,2.7l4.9,3.6l-0.4,0.9c-1.8-0.9-3.6-1.8-4.9-2.2s-2.7-0.9-3.6-0.9c-0.9,0-2.2,0.4-3.1,1.3l-5.4,4.5l17.9,20.2
		c0.9,1.3,1.8,1.8,2.7,2.2c0.9,0.4,1.3,0.4,2.2,0c0.9-0.4,1.3-0.9,2.7-1.8l0.9-0.4l0.9,0.9l-6.3,5.4L630.6,385.4z M655.3,365.7
		l-0.4-0.9l0.9-0.4c0.9-0.9,1.8-1.3,1.8-1.8c0-0.4,0.4-0.9,0.4-1.8c0-0.9-0.9-1.8-1.3-3.1l-11.2-18.8c-1.3-1.8-2.2-2.7-2.7-3.1
		c-0.4-0.4-1.3-0.4-1.8-0.4s-1.3,0.4-2.2,0.9l-0.9,0.4l-0.4-0.9l5.8-4l0,0l6.3-4l0.4,0.9l-0.9,0.4c-0.9,0.9-1.3,1.3-1.8,1.8
		c-0.4,0.4-0.4,1.3-0.4,1.8c0,0.9,0.9,1.8,1.3,3.1l11.2,18.8c0.9,1.3,1.3,2.2,2.2,2.7c0.4,0.4,1.3,0.4,1.8,0.4
		c0.4,0,1.3-0.4,2.7-0.9l0.9-0.4l0.4,0.9l-6.3,3.6l0,0L655.3,365.7z M691.1,347.7c-2.2,0.9-4.5,1.3-6.7,1.3s-4.5-0.4-6.3-1.8
		c-1.8-0.9-3.6-2.2-5.4-4c-1.8-1.8-2.7-4-3.6-6.3c-0.9-2.7-1.3-4.9-1.3-7.2s0.4-4.5,1.3-6.7c0.9-2.2,2.2-4,3.6-5.4
		c1.3-1.8,3.1-3.1,5.4-4c2.2-0.9,4.5-1.3,6.7-1.3s4.5,0.4,6.3,1.8c1.8,0.9,3.6,2.2,5.4,4c1.8,1.8,2.7,4,3.6,6.3
		c0.9,2.7,1.3,4.9,1.3,7.2c0,2.2-0.4,4.5-1.3,6.7c-0.9,2.2-2.2,4-3.6,5.4C695.6,345.5,693.4,346.8,691.1,347.7z M690.7,346.4
		c2.7-0.9,4.5-2.7,5.8-4.5c1.3-1.8,1.8-4,1.8-6.7s-0.9-5.4-2.2-9c-1.3-3.1-2.7-5.8-4.5-8.1c-1.8-2.2-3.6-3.1-5.8-4
		c-2.2-0.4-4.5-0.4-7.2,0.4c-2.7,0.9-4.5,2.2-5.8,4.5c-1.3,1.8-1.8,4-1.8,6.7c0,2.7,0.9,5.4,2.2,9c1.3,3.1,2.7,5.8,4.5,8.1
		c1.8,2.2,3.6,3.1,5.8,4C685.8,347.3,688,347.3,690.7,346.4z M713.1,339.7v-1.3l0.9-0.4c1.3-0.4,1.8-0.4,2.7-0.9
		c0.4-0.4,0.9-0.9,0.9-1.3c0-0.9,0-1.8,0-3.6l-3.6-25.1c-0.4-0.4-0.9-0.4-1.3-0.9c-0.4-0.4-1.3-0.4-2.7-0.4h-1.3v-1.3l9.4-1.3
		c0.9,0.9,1.8,1.8,2.7,2.7c0.9,0.9,2.7,2.7,4,4c1.3,1.3,3.1,3.1,4.5,4.5c1.3,1.3,3.1,3.1,4.5,4.5c1.3,1.3,2.7,2.7,4,4
		c1.3,1.3,2.2,2.2,2.7,2.7l-2.7-18.4c-0.9-0.9-0.9-2.2-1.3-3.1c-0.4-0.4-0.9-0.9-1.3-1.3c-0.4,0-1.3,0-2.7,0h-0.9v-1.3l6.3-0.9
		l5.8-0.9v1.3l-0.9,0.4c-0.9,0.4-1.8,0.4-2.7,0.9c-0.9,0.4-0.9,0.9-0.9,1.3c0,0.4,0,1.8,0,3.6l4,28.2h-1.3c-0.4-0.9-1.8-2.2-2.7-3.6
		c-1.3-1.3-2.7-3.1-4-4.9c-1.8-1.8-3.1-3.6-4.9-5.4c-1.8-1.8-3.6-3.6-4.9-4.9c-1.8-1.8-3.1-3.1-4.5-4.5c-1.3-1.3-2.7-2.7-3.6-3.6
		l3.1,23.3c0,1.8,0.4,2.7,0.9,3.6c0.4,0.9,0.9,0.9,1.3,1.3c0.4,0.4,1.3,0,2.7,0h0.9v1.3l-7.2,0.9L713.1,339.7z"/>
</g>
</svg>
