<?xml version="1.0" encoding="utf-8"?>
<!-- Generator: Adobe Illustrator 24.1.2, SVG Export Plug-In . SVG Version: 6.00 Build 0)  -->
<svg version="1.1" id="Layer_1" xmlns="http://www.w3.org/2000/svg" xmlns:xlink="http://www.w3.org/1999/xlink" x="0px" y="0px"
	 width="70px" height="70px" viewBox="0 0 70 70" style="enable-background:new 0 0 70 70;" xml:space="preserve">
<style type="text/css">
	.st0{opacity:0.5;fill:#F4EBE4;enable-background:new    ;}
	.st1{fill:#60604D;}
</style>
<path class="st0" d="M1.2,41.1c-0.8,2.1-1.6,4.3-1.2,6.5c0.6,3.4,3.6,5.7,6.4,7.6c4.4,2.9,9.1,5.6,13.8,8.1c5.7,3,11.8,5.8,18.2,6.5
	C48.7,71,59.7,66.1,65.5,57c5.8-9.1,6-22.1-0.4-30.8C58.1,16.5,43.2,11,31.9,13C16.6,15.8,6.9,26.2,1.2,41.1z"/>
<path class="st1" d="M40.9,23.6C40.9,23.6,40.9,23.6,40.9,23.6c-0.5-0.1-0.9-0.1-1.3-0.2c-0.4-0.1-0.6-0.4-0.5-0.7
	c0.1-0.4,0.4-0.6,0.7-0.5c0.4,0.1,0.8,0.1,1.2,0.2c0.4,0,0.6,0.4,0.6,0.7C41.5,23.3,41.3,23.6,40.9,23.6z M37.5,21.6
	c-0.4-0.1-0.8-0.2-1.2-0.3c-0.3-0.1-0.7,0.1-0.8,0.4c-0.1,0.3,0.1,0.7,0.4,0.8c0.4,0.1,0.8,0.2,1.2,0.4c0.1,0,0.1,0,0.2,0
	c0.3,0,0.6-0.2,0.6-0.5C38,22.1,37.8,21.7,37.5,21.6z M33.8,21.7c0.2,0,0.5-0.1,0.6-0.4c0.1-0.3,0-0.7-0.3-0.9
	c-0.4-0.2-0.7-0.3-1.1-0.5c-0.3-0.2-0.7,0-0.9,0.3c-0.2,0.3,0,0.7,0.3,0.9c0.4,0.2,0.8,0.4,1.1,0.5C33.6,21.7,33.7,21.7,33.8,21.7z
	 M36.5,30.4c0.1-0.3,0-0.7-0.3-0.9c-0.4-0.2-0.8-0.3-1.1-0.5c-0.3-0.2-0.7,0-0.9,0.3c-0.2,0.3,0,0.7,0.3,0.9
	c0.4,0.2,0.8,0.4,1.2,0.6c0.1,0,0.2,0.1,0.3,0.1C36.1,30.8,36.4,30.7,36.5,30.4z M32.8,27.8c-0.4-0.2-0.7-0.5-1-0.7
	c-0.3-0.2-0.7-0.1-0.9,0.2c-0.2,0.3-0.1,0.7,0.2,0.9c0.4,0.2,0.7,0.5,1.1,0.7c0.1,0.1,0.2,0.1,0.3,0.1c0.2,0,0.4-0.1,0.6-0.3
	C33.2,28.4,33.1,28,32.8,27.8z M37.6,30.9c-0.1,0.3,0.1,0.7,0.4,0.8c0.4,0.1,0.8,0.3,1.2,0.4c0.1,0,0.1,0,0.2,0
	c0.3,0,0.5-0.2,0.6-0.5c0.1-0.3-0.1-0.7-0.4-0.8c-0.4-0.1-0.8-0.2-1.2-0.4C38.1,30.3,37.8,30.5,37.6,30.9z M41.8,32.7
	c0.4,0.1,0.8,0.2,1.3,0.2c0,0,0.1,0,0.1,0c0.3,0,0.6-0.2,0.6-0.5c0.1-0.4-0.2-0.7-0.5-0.7c-0.4-0.1-0.8-0.1-1.2-0.2
	c-0.3-0.1-0.7,0.1-0.8,0.5C41.2,32.3,41.5,32.6,41.8,32.7z M31.3,35.9c-0.3-0.2-0.7-0.2-0.9,0.1c-0.2,0.3-0.2,0.7,0.1,0.9
	c0.3,0.3,0.7,0.5,1.1,0.8c0.1,0.1,0.2,0.1,0.4,0.1c0.2,0,0.4-0.1,0.5-0.3c0.2-0.3,0.1-0.7-0.2-0.9C31.9,36.4,31.6,36.2,31.3,35.9z
	 M38.9,40c-0.4-0.1-0.8-0.3-1.2-0.4c-0.3-0.1-0.7,0-0.8,0.4c-0.1,0.3,0,0.7,0.4,0.8c0.4,0.2,0.8,0.3,1.2,0.4c0.1,0,0.1,0,0.2,0
	c0.3,0,0.5-0.2,0.6-0.4C39.5,40.5,39.3,40.2,38.9,40z M40.6,41.2c-0.1,0.3,0.1,0.7,0.5,0.8c0.4,0.1,0.8,0.2,1.3,0.3c0,0,0.1,0,0.1,0
	c0.3,0,0.6-0.2,0.6-0.5c0.1-0.4-0.2-0.7-0.5-0.8c-0.4-0.1-0.8-0.2-1.2-0.3C41,40.7,40.7,40.9,40.6,41.2z M33.7,39.1
	c0.4,0.2,0.8,0.4,1.2,0.6c0.1,0,0.2,0.1,0.3,0.1c0.2,0,0.5-0.1,0.6-0.4c0.2-0.3,0-0.7-0.3-0.9c-0.4-0.2-0.7-0.4-1.1-0.6
	c-0.3-0.2-0.7-0.1-0.9,0.2C33.3,38.6,33.4,39,33.7,39.1z M46.2,42.9C46.2,42.9,46.2,42.9,46.2,42.9c0.4,0,0.7-0.2,0.7-0.6
	c0-0.4-0.2-0.7-0.6-0.7c-0.4,0-0.8-0.1-1.3-0.2c-0.3,0-0.7,0.2-0.7,0.6c0,0.4,0.2,0.7,0.6,0.7C45.3,42.8,45.7,42.8,46.2,42.9z
	 M26.1,23.9l-1-0.5l0.9-0.6c3.5-2.6,6.2-5.9,7.9-8.6L36,13c-1.5,3.1-4.5,7-8.4,10.1c1.1,0.5,2.2,0.8,3.4,1.1l0.9,0.2l-0.5,0.8
	c-1.8,3-4.1,5.2-6.9,7c1.7,0.7,3.5,1.3,5.2,1.7l0.9,0.2l-0.5,0.8c-2.1,3.1-5,5.4-8.7,7.1c9.6,4.1,20.3,4.1,29.8,0
	c-3.7-1.7-6.6-4.1-8.6-7.1l-0.5-0.8l0.9-0.2c1.8-0.4,3.5-1,5.2-1.7c-2.8-1.7-5.1-4-6.8-7L41,24.5l0.8-0.2c1.2-0.3,2.3-0.7,3.4-1.1
	c-3.8-3.1-6.8-6.9-8.3-10.1l2,1.1c1.7,2.8,4.4,6,7.9,8.6l0.9,0.6l-1,0.5c-1.2,0.6-2.4,1-3.7,1.4c1.8,2.8,4.1,4.9,7,6.4l1.2,0.6
	L50,32.8c-1.8,0.9-3.7,1.6-5.7,2.1c2.1,2.8,5.1,5,8.9,6.4l1.4,0.5l-1.4,0.6c-4.4,2.1-9,3.3-13.7,3.7v3.2c6,0.5,11.4,2.2,16.1,5h-2.7
	c-5-2.5-10.9-3.9-17.3-3.9s-12.3,1.3-17.3,3.9h-2.7c5-3,10.9-4.7,17.4-5.1v-3.2c-4.6-0.4-9.1-1.6-13.4-3.6l-1.4-0.6l1.4-0.5
	c3.8-1.4,6.8-3.6,8.9-6.4c-2-0.5-3.9-1.2-5.7-2.1l-1.2-0.6l1.2-0.6c2.9-1.5,5.2-3.6,7-6.4C28.6,24.9,27.3,24.5,26.1,23.9z
	 M36.4,46.3c-0.7,0-1.4,0-2.1-0.1v3c0.4,0,0.9,0,1.3,0c0.9,0,1.7,0,2.6,0.1v-3.1C37.6,46.3,37,46.3,36.4,46.3z M34,9.6l-2.4-2.4
	l3.4-0.5l1.5-3.1l1.5,3.1l3.4,0.5l-2.4,2.4l0.6,3.4l-3-1.6l-3,1.6L34,9.6z M34.3,8.1l1.1,1l-0.2,1.4l1.3-0.7l1.3,0.7l-0.2-1.4l1.1-1
	l-1.5-0.2l-0.6-1.3l-0.6,1.3L34.3,8.1z M47,6.9c10,4.5,16.5,14.5,16.5,25.5c0,0.4,0.3,0.6,0.6,0.6c0.4,0,0.6-0.3,0.6-0.6
	c0-11.5-6.8-21.9-17.3-26.7c-0.3-0.1-0.7,0-0.9,0.3C46.6,6.4,46.7,6.7,47,6.9z M51.2,15.5h-1.3v1.3h1.3V15.5z M48.6,12.9v-1.3h-1.3
	v1.3H48.6z M55.1,53.1h1.3v-1.3h-1.3V53.1z M59,45.3h1.3V44H59V45.3z M57.7,38.9H59v-1.3h-1.3V38.9z M57.7,32.4H59v-1.3h-1.3V32.4z
	 M61.6,37.6h1.3v-1.3h-1.3V37.6z M49.9,28.5h1.3v-1.3h-1.3V28.5z M47.3,49.2v-1.3H46v1.3H47.3z M52.5,47.9h1.3v-1.3h-1.3V47.9z
	 M52.5,36.3h-1.3v1.3h1.3V36.3z M61.6,27.2h-1.3v1.3h1.3V27.2z M59,20.7h-1.3V22H59V20.7z M55.1,27.2h1.3v-1.3h-1.3V27.2z
	 M49.9,23.3h1.3V22h-1.3V23.3z M21.3,7.7H20V9h1.3V7.7z M30.4,3.8h-1.3v1.3h1.3V3.8z M26.5,7.7h-1.3V9h1.3V7.7z M23.9,12.9h-1.3v1.3
	h1.3V12.9z M18.7,12.9h-1.3v1.3h1.3V12.9z M16.2,16.8h-1.3v1.3h1.3V16.8z M55.1,16.8h1.3v-1.3h-1.3V16.8z M26.5,16.8h-1.3v1.3h1.3
	V16.8z M21.3,20.7h1.3v-1.3h-1.3V20.7z M23.9,25.9v1.3h1.3v-1.3H23.9z M18.7,27.2H20v-1.3h-1.3V27.2z M13.6,32.4h1.3v-1.3h-1.3V32.4
	z M44.7,54.4H46v-1.3h-1.3V54.4z M39.5,53.1h1.3v-1.3h-1.3V53.1z M25.2,54.4h1.3v-1.3h-1.3V54.4z M35.6,54.4h1.3v-1.3h-1.3V54.4z
	 M30.4,53.1h1.3v-1.3h-1.3V53.1z M12.3,49.2h1.3v-1.3h-1.3V49.2z M13.6,44h1.3v-1.3h-1.3V44z M8.4,41.4h1.3v-1.3H8.4V41.4z M9.7,35
	H11v-1.3H9.7V35z M5.8,31.1h1.3v-1.3H5.8V31.1z M23.9,46.6v1.3h1.3v-1.3H23.9z M17.4,49.2v1.3h1.3v-1.3H17.4z M20,35v1.3h1.3V35H20z
	 M16.2,38.9h1.3v-1.3h-1.3V38.9z M16.2,22h-1.3v1.3h1.3V22z M12.3,24.6H11v1.3h1.3V24.6z M11,20.7H9.7V22H11V20.7z M42.1,3.8h-1.3
	v1.3h1.3V3.8z M44.7,9h-1.3v1.3h1.3V9z M44.7,15.5h-1.3v1.3h1.3V15.5z M30.4,9h-1.3v1.3h1.3V9z M61.6,66.8v1.3
	c0,1.1-0.9,1.9-1.9,1.9h-48c-1.1,0-1.9-0.9-1.9-1.9v-1.3c0-1,0.8-1.8,1.7-1.9l0.6-5.9c0.1-1,0.7-1.9,1.5-2.5
	C7.2,50.4,3.2,41.9,3.2,32.6C3.2,14.7,17.7,0,35.6,0s32.4,14.6,32.4,32.5c0,9.3-4,17.9-10.3,23.9c0.8,0.6,1.4,1.5,1.5,2.5l0.6,5.9
	C60.8,64.9,61.6,65.8,61.6,66.8z M14.6,55.9c0.3-0.1,0.6-0.1,0.9-0.1h40.2c0.3,0,0.6,0.1,0.9,0.1c6.2-6.3,10.2-14,10.2-23.1
	c0-17.2-14-31.4-31.1-31.4C18.4,1.4,4.5,15.5,4.5,32.7C4.5,41.8,8.4,49.6,14.6,55.9z M12.7,64.8h45.8L57.9,59c-0.1-1.1-1.1-2-2.2-2
	H15.5c-1.1,0-2.1,0.9-2.2,2L12.7,64.8z M60.3,66.8c0-0.4-0.3-0.6-0.6-0.6h-48c-0.4,0-0.6,0.3-0.6,0.6v1.3c0,0.4,0.3,0.6,0.6,0.6h48
	c0.4,0,0.6-0.3,0.6-0.6V66.8z"/>
</svg>
