<?xml version="1.0" encoding="utf-8"?>
<!-- Generator: Adobe Illustrator 24.1.2, SVG Export Plug-In . SVG Version: 6.00 Build 0)  -->
<svg version="1.1" id="Layer_1" xmlns="http://www.w3.org/2000/svg" xmlns:xlink="http://www.w3.org/1999/xlink" x="0px" y="0px"
	 width="380px" height="210px" viewBox="0 0 380 210" style="enable-background:new 0 0 380 210;" xml:space="preserve">
<style type="text/css">
	.st0{fill:#FFFFFF;}
</style>
<path class="st0" d="M138.4,25.8c0-0.1,0-0.2,0-0.3c0-0.1,0-0.2-0.1-0.3l0,0c0-0.1-0.1-0.1-0.1-0.2c-0.1-0.1-0.1-0.2-0.2-0.2
	c-0.1-0.1-0.2-0.2-0.3-0.2l-0.1-0.1h-0.1l0,0l-11.2-4.9l7.6-4.3c0.7-0.4,1-1.3,0.6-2.1s-1.4-1-2.1-0.6l-7.7,4.4l1.4-12.6
	c0-0.1,0-0.2,0-0.2c0-0.1,0-0.2,0-0.3c0-0.1-0.1-0.2-0.1-0.3s0-0.1-0.1-0.2l0,0c-0.1-0.1-0.2-0.2-0.3-0.2c-0.1-0.1-0.1-0.1-0.2-0.2
	c-0.1,0-0.1,0-0.2-0.1c-0.1,0-0.2-0.1-0.4-0.1l0,0c-0.1,0-0.1,0-0.2,0s-0.2,0-0.4,0c-0.1,0-0.1,0.1-0.2,0.1S123.8,3,123.7,3l-10,7.5
	V1.8c0-0.8-0.7-1.5-1.5-1.5s-1.5,0.7-1.5,1.5v8.5l-10-7.5c-0.1-0.1-0.2-0.1-0.2-0.1c-0.1,0-0.2-0.1-0.3-0.1c-0.1,0-0.2,0-0.3,0
	c-0.1,0-0.2,0-0.3,0l0,0c-0.1,0-0.2,0.1-0.3,0.1c-0.1,0-0.2,0-0.3,0.1c-0.1,0-0.1,0.1-0.2,0.1C98.7,3,98.6,3,98.5,3.1l0,0
	c0,0.1-0.1,0.1-0.1,0.2c-0.1,0.1-0.1,0.2-0.1,0.3s0,0.2,0,0.3c0,0.1,0,0.2,0,0.2l1.4,12.6l-7.9-4.2c-0.7-0.4-1.7-0.2-2.1,0.6
	s-0.2,1.7,0.6,2.1l7.6,4.3l-11.2,4.9l0,0l0,0c-0.1,0-0.1,0.1-0.1,0.1c-0.1,0.1-0.2,0.1-0.3,0.2c-0.1,0.1-0.1,0.2-0.2,0.2
	c0,0.1-0.1,0.1-0.1,0.2l0,0c0,0.1-0.1,0.2-0.1,0.3s0,0.2,0,0.3s0,0.2,0,0.2c0,0.1,0,0.2,0.1,0.3l0,0c0,0,0,0,0.1,0.1
	c0.1,0.2,0.3,0.4,0.4,0.5c0.1,0,0.1,0.1,0.2,0.1l0.1,0.1l11.3,5l-7.8,4.5c-0.7,0.4-1,1.3-0.6,2.1c0.3,0.5,0.8,0.8,1.3,0.8
	c0.3,0,0.5-0.1,0.8-0.2l7.7-4.4l-1.4,12.6c0,0.1,0,0.2,0,0.2c0,0.1,0,0.2,0,0.3s0.1,0.2,0.1,0.3s0,0.1,0.1,0.2l0,0
	c0.1,0.1,0.2,0.2,0.3,0.2c0.1,0,0.1,0.1,0.2,0.1s0.2,0.1,0.3,0.1c0.1,0,0.2,0.1,0.3,0.1l0,0c0.1,0,0.1,0,0.2,0s0.1,0,0.2,0
	s0.2,0,0.2,0c0.1,0,0.2-0.1,0.3-0.1c0,0,0.1,0,0.2-0.1l10-7.5v8.5c0,0.8,0.7,1.5,1.5,1.5s1.5-0.7,1.5-1.5v-8.5l10,7.6
	c0.1,0.1,0.2,0.1,0.2,0.1c0.1,0,0.1,0.1,0.2,0.1c0.2,0.1,0.3,0.1,0.5,0.1l0,0l0,0l0,0l0,0c0.1,0,0.1,0,0.2,0s0.2-0.1,0.3-0.1
	c0.1,0,0.1,0,0.2-0.1c0.2-0.1,0.4-0.2,0.5-0.4l0,0c0-0.1,0.1-0.1,0.1-0.2c0.1-0.1,0.1-0.2,0.2-0.3c0-0.1,0-0.2,0-0.3s0-0.1,0-0.2
	l-1.4-12.7l7.7,4.4c0.2,0.1,0.5,0.2,0.8,0.2c0.5,0,1-0.3,1.3-0.8c0.4-0.7,0.2-1.7-0.6-2.1l-7.6-4.3l11.3-5l0.1-0.1
	c0.1,0,0.1-0.1,0.2-0.1c0.2-0.1,0.3-0.3,0.4-0.5c0,0,0,0,0.1-0.1l0,0c0-0.1,0.1-0.2,0.1-0.4C138.3,25.9,138.4,25.9,138.4,25.8z
	 M122.5,7.4l-1.2,11.3l-7.8,4.5v-9L122.5,7.4z M101.5,7.4l9,6.8v9l-7.8-4.5L101.5,7.4z M91,25.8l10.2-4.5l7.8,4.5l-7.8,4.5L91,25.8z
	 M101.5,44.2l1.2-11.3l7.8-4.5v9L101.5,44.2z M122.5,44.3l-9-6.8v-9l7.8,4.5L122.5,44.3z M115.1,25.8l7.8-4.5l10.2,4.5l-10.2,4.5
	L115.1,25.8z M91,152.1c0-0.1,0-0.1,0-0.2c0-0.1,0-0.2-0.1-0.2l0,0l-0.1-0.1c0-0.1-0.1-0.1-0.1-0.2c-0.1-0.1-0.1-0.1-0.2-0.1
	l-0.1-0.1l-9.7-4.3l6.6-3.8c0.5-0.3,0.7-0.9,0.4-1.4c-0.3-0.5-0.9-0.7-1.4-0.4l-6.7,3.8l1.2-10.8c0-0.1,0-0.1,0-0.1
	c0-0.1,0-0.2,0-0.2c0-0.1-0.1-0.1-0.1-0.2c0,0,0-0.1-0.1-0.1l0,0c-0.1-0.1-0.1-0.1-0.2-0.2l-0.1-0.1h-0.1c-0.1,0-0.2-0.1-0.3-0.1
	l0,0h-0.1c-0.1,0-0.2,0-0.2,0c-0.1,0-0.2,0.1-0.3,0.1c0,0,0,0-0.1,0l0,0l0,0l-8.5,6.4v-7.5c0-0.6-0.5-1-1-1s-1,0.5-1,1v7.5l-8.6-6.4
	c-0.1,0-0.1-0.1-0.2-0.1c-0.1,0-0.1-0.1-0.2-0.1c-0.1,0-0.2,0-0.3,0h-0.1l0,0c-0.1,0-0.1,0-0.2,0.1c-0.1,0-0.1,0-0.2,0.1
	c0,0-0.1,0-0.1,0.1c-0.1,0.1-0.2,0.1-0.2,0.2l0,0c0,0,0,0.1-0.1,0.1c0,0.1-0.1,0.1-0.1,0.2c0,0.1,0,0.2,0,0.2v0.1l1.2,10.8l-6.7-3.8
	c-0.5-0.3-1.1-0.1-1.4,0.4c-0.3,0.5-0.1,1.1,0.4,1.4l6.6,3.8l-9.7,4.3c-0.1,0-0.1,0.1-0.1,0.1c-0.1,0-0.1,0.1-0.2,0.1
	c-0.1,0.1-0.1,0.1-0.1,0.2l-0.1,0.1l0,0c0,0.1,0,0.2-0.1,0.2c0,0.1,0,0.1,0,0.2s0,0.1,0,0.2c0,0.1,0,0.2,0.1,0.2l0,0l0,0
	c0.1,0.1,0.2,0.3,0.3,0.4l0.1,0.1c0,0,0.1,0,0.1,0.1l9.7,4.3l-6.6,3.8c-0.5,0.3-0.7,0.9-0.4,1.4c0.2,0.3,0.5,0.5,0.9,0.5
	c0.2,0,0.4,0,0.5-0.1l6.7-3.8L58.4,170c0,0.1,0,0.1,0,0.1c0,0.1,0,0.2,0,0.2c0,0.1,0.1,0.1,0.1,0.2c0,0,0,0.1,0.1,0.1l0,0
	c0.1,0.1,0.1,0.1,0.2,0.2l0.1,0.1c0.1,0,0.1,0,0.2,0.1c0.1,0,0.1,0.1,0.2,0.1l0,0h0.1h0.1c0.1,0,0.1,0,0.2,0c0.1,0,0.1-0.1,0.2-0.1
	c0,0,0.1,0,0.1-0.1l8.6-6.4v7.5c0,0.6,0.5,1,1,1s1-0.5,1-1v-7.5l8.6,6.5l0,0c0.2,0.1,0.4,0.2,0.6,0.2h0.1c0.1,0,0.2,0,0.2-0.1h0.1
	c0.1-0.1,0.3-0.2,0.3-0.3l0,0c0,0,0-0.1,0.1-0.1c0-0.1,0.1-0.1,0.1-0.2c0-0.1,0-0.2,0-0.2v-0.1l-1.2-10.9l6.7,3.8
	c0.2,0.1,0.3,0.1,0.5,0.1c0.4,0,0.7-0.2,0.9-0.5c0.3-0.5,0.1-1.1-0.4-1.4l-6.6-3.8l9.7-4.3c0,0,0.1,0,0.1-0.1c0,0,0.1,0,0.1-0.1
	c0.1-0.1,0.2-0.2,0.3-0.4l0,0l0,0c0-0.1,0-0.2,0.1-0.2C90.9,152.2,91,152.2,91,152.1z M78.4,136.5l-1.1,9.9l-6.8,3.9v-7.9
	L78.4,136.5z M60.5,136.5l7.9,5.9v7.9l-6.8-3.9L60.5,136.5z M51.5,152.1l8.9-3.9l6.9,3.9l-6.9,3.9L51.5,152.1z M60.5,167.8l1.1-9.9
	l6.8-3.9v7.9L60.5,167.8z M78.4,167.8l-7.9-6v-7.9l6.8,3.9L78.4,167.8z M71.5,152.1l6.9-3.9l8.9,3.9l-8.9,3.9L71.5,152.1z
	 M204.8,176.6c-0.2,0-0.5-0.1-0.7-0.3c-0.1,0-0.1-0.1-0.3-0.1h-0.2l-0.2-0.1c-0.7-0.5-0.8-1.6-0.6-3.6c0.1-3,0.6-6.7,1.5-11.1
	c0.9-4.3,2-8.8,3.2-13.3s2.5-9,3.9-13.1c1.3-4.2,2.5-7.9,3.5-10.7c0.8-2,1.4-3.8,1.8-5.4c0.6-2.1,0.6-2.5,0.6-2.6
	c0-0.5,0.1-1.1,0.4-1.7c0.2-0.6,0.7-1.5,1.5-2.9c0.2-0.2,0.5-0.9,1.4-2.9c0.7-1.6,1.5-3.4,2.2-5.4c0.2-0.6,0.5-1.2,0.7-1.8
	c-1.1,1.2-2.3,2.6-3.6,3.9c-3,3.2-6.2,6.5-9.5,9.9c-1.6,1.6-3.6,3.5-5.7,5.4c-2.1,1.9-4.4,3.7-6.7,5.4c-2.4,1.7-4.9,3.1-7.5,4.2
	c-2.6,1.1-5.3,1.7-7.9,1.7c-1.5,0-3-0.2-4.4-0.7h-0.1H178c-2.2-1.3-3.7-2.9-4.3-4.7c-0.6-1.7-0.9-3.8-0.9-6c0-1.4,0.1-2.6,0.2-3.8
	c0.1-1.2,0.4-2.6,0.8-4c0.4-1.5,0.9-3.2,1.5-5.1s1.4-4.3,2.4-7.1c0.8-2.3,1.4-4.2,1.9-5.7c0.7-2.2,0.9-2.7,1-2.8
	c0.1-0.2,0.2-0.4,0.2-0.6c0.1-0.3,0.1-0.6,0.3-0.8c-0.6,0.2-2.1,1.1-6.3,5c-3.7,3.4-8.1,8-13.1,13.5c-3.6,3.9-6.2,6.5-7.8,7.8
	s-3.2,2.1-4.6,2.4l0,0c-2.9,0-4.7-1.1-5.6-3.2c-0.7-1.9-1.1-4-1.1-6.2c-0.1-1.5-0.1-3.1,0.1-4.7c0.2-1.6,0.5-3.4,1-5.4
	s1.2-4.3,2-6.9s1.9-5.7,3.3-9.3c3.8-11,4.8-14.5,4.8-15.4l-0.7,0.3c-0.8,0.5-2.3,1.8-4.5,3.9s-4.3,4.3-6.1,6.5
	c-1.9,2.2-3.6,4.4-5.2,6.5c-1.6,2.1-3.2,4.4-4.7,6.9s-3.2,5.3-5,8.4c-1.8,3.1-3.8,6.8-6,11c-0.3,0.7-1,1.8-1.8,3.4
	c-0.9,1.6-1.9,3.3-3,5c-1.1,1.7-2.3,3.2-3.6,4.6c-1.4,1.5-2.5,2.2-3.6,2.2c-1.8,0-3.1-1-3.7-2.8c-0.5-1.6-0.8-3.1-0.9-4.2
	c-0.5-4.4-0.1-8.9,1.1-13.3c1.1-4,2.9-8.6,5.4-13.9c-4.8,2.2-9.8,4-14.7,5.3c-5.6,1.5-11.4,2.3-17.4,2.3h-2.5l-1.3,1.8
	c-1.3,1.6-2.8,3.2-4.5,4.6c-1.8,1.5-3.4,2.5-4.9,3.1c-0.5,0.1-0.9,0.2-1.3,0.3c-0.4,0.1-0.8,0.1-1.3,0.1c-1,0-1.9-0.2-2.6-0.6
	c-1.9-1-3.1-2.3-3.5-3.9c-0.3-1.5-0.5-3.2-0.5-5c0-1.5,0.1-2.6,0.2-3.4c0.1-0.7,0.3-1.7,0.7-2.7l0.7-2.2l-0.3-0.5
	c-0.1,0-0.1,0.1-0.2,0.1c-1.7,1.2-3.1,2-4.2,2.3c-0.7,0.2-1.1,0.5-1.4,1c-0.4,0.6-1.3,2.3-2.7,5.2c-1.3,2.7-3.4,6.2-6.2,10.3
	c-2.8,4.2-5.9,8.3-9.3,12.3c-3.4,4-7.1,7.5-10.9,10.5c-3.9,3-7.6,4.5-11.1,4.5c-0.8,0-1.5-0.1-2-0.2c-4.1-0.6-7-3.1-8.7-7.6
	c-1.6-4.3-2-10-1.1-17c0.7-5.4,2.1-11.3,4.1-17.7c2.1-6.4,4.7-13.2,8-20l1.9-4.1l-0.9-2.3c-1.8-4.5-2.7-9.3-2.8-14.2s0.6-9.6,2-14
	s3.5-8.4,6.4-12.1c2.8-3.6,6.2-6.4,10.1-8.4c1.6-0.9,3-1.5,4.2-1.7c1.1-0.2,2.6-0.5,4.4-0.7l0,0c6.5,0,11.8,1.9,15.8,5.7
	c3.9,3.7,6.7,8.7,8.3,14.7c1.6,6.4,1.9,13.8,0.9,22c-0.9,8.2-3.1,16.7-6.5,25.4l-1.5,3.2c0.6-0.4,1.3-0.9,1.9-1.4c0-0.1,0-0.2,0-0.4
	c-0.1-1.5,0.2-2.8,0.8-3.9c1.3-2.3,3.2-4.2,5.7-5.7c2.5-1.5,5.2-2.3,7.8-2.3c2.2,0,4.3,0.7,6.2,1.9c4.5,4,4.9,10.5,1.2,19.4
	c0.1,0,0.3,0,0.5,0c1.9,0,3.8-0.1,5.7-0.2c1.9-0.1,3.8-0.3,5.7-0.5c3.5-0.7,7.3-1.7,11.3-3s7.8-2.9,11.4-4.8l0.6-0.3
	c1-1.8,2-3.2,2.7-4.1c1.2-1.5,2.4-2.2,3.5-2.2c1.4,0,2,0.6,2.4,1.1c0.5,0.7,0.6,1.8,0.1,3.3c-0.4,1.4-1.4,3.8-3,7.1
	c-2.2,4.7-3.9,8.9-5.2,12.2c-1.2,3.3-2.1,6.7-2.6,9.8c-0.3,1.5-0.5,3-0.6,4.3c0,0.5,0,0.8,0,1c0.3-0.3,0.7-0.7,1.4-1.4
	c1.2-1.3,2.1-2.4,2.8-3.3c0.3-0.4,1-1.6,2.2-3.6c1.1-1.9,2.3-4.1,3.5-6.4c2.3-4.1,4.5-7.9,6.5-11.2c2-3.3,4-6.4,6-9.2
	c2-2.9,4.1-5.6,6.1-8.1s4.3-5,6.6-7.5s4-4.2,5.3-5.1c1.3-1,2.5-1.5,3.5-1.5c1.7,0,2.8,0.5,3.5,1.6c0.6,1,0.9,2.7,0.9,5.3
	c0,2-0.3,4.4-0.9,7.1c-0.6,2.6-1.7,6.4-3.3,11.3c-2.3,6.9-4,12-4.8,15.4c-0.9,3.3-1.3,5.9-1.3,7.7c0,2.1,0.4,2.4,0.4,2.4
	c0.3,0,1.2-0.2,3.5-2.2c1.8-1.5,5.2-4.7,10.1-9.5c3.4-3.5,6.1-6.3,8.4-8.4c2.3-2.2,4-3.8,5.4-4.9c1.4-1.2,2.5-2,3.3-2.4
	c0.9-0.4,1.6-0.6,2.3-0.6c1.8,0,3.9,1,3.9,5.9c0,1.5-0.3,3.3-0.8,5.5c-0.5,2.1-1.4,5.3-2.8,9.6c-1.3,4.2-2.3,7.5-2.8,9.7
	s-0.8,4.1-0.7,5.6c0,1.6,0.1,2.1,0.1,2.2c0,0.1,0.2,0.4,0.8,0.9c0.7,0.7,1.8,1,3.3,1c2.2,0,4.7-0.7,7.4-1.9c2.8-1.1,5.9-3,9.3-5.6
	c3.4-2.7,6.9-5.6,10.1-8.8c3.3-3.2,6.5-6.5,9.5-9.8s5.4-6,7.2-8.2c0.6-0.7,1.1-1.4,1.6-2c0,0,0.7-1.4,0.9-1.9
	c1.1-2.3,2.2-4.4,3.2-6.2c1-1.8,1.7-3,2.2-3.6c1.4-1.6,2.5-2.4,3.5-2.4c0.4,0,0.7,0.2,1,0.5c0.4,0.3,0.7,0.8,0.8,1.3
	c0,0.3,0,0.9-0.5,2.7c-0.4,1.2-1.1,3.1-2.1,5.4s-2.3,5.5-4,9.7c-1.6,3.8-2.8,6.8-3.6,8.7c0.5-0.6,1-1.3,1.6-2.1
	c1.2-1.6,2.9-3.5,4.9-5.8s4.3-4.6,6.7-6.7c2.5-2.2,5-4.1,7.5-5.7c2.6-1.6,5.1-2.4,7.4-2.4c2.4,0,4.1,1.1,5.1,3.2
	c0.6,0.9,0.8,2.3,0.7,4c-0.1,1.4-0.6,3-1.4,4.6s-1.9,3.4-3.2,5.1c-1.3,1.7-2.8,3.5-4.5,5.2s-3.5,3.3-5.4,4.7l-0.9,0.8l1.6,0.2
	c5.6,0,11.1-0.6,16.4-1.9s10.5-3.3,15.3-6.2c1.5-0.9,3.2-2,5-3.3s3.6-2.7,5.2-4.2c1.7-1.4,3.3-2.8,4.7-4.2c1.2-1.2,2.3-2.3,3-3.2
	c0.7-2.6,1.5-5.2,2.4-7.8c2.5-8,5.6-16,9.1-23.9c3.6-7.9,7.7-15.4,12.3-22.3c4.6-6.9,9.7-12.4,15.2-16.4c5.5-4.3,10.6-6.5,15.1-6.5
	c4,0,6.4,2.3,7.1,6.9c0.3,2.5,0.1,5.5-0.6,8.8s-1.9,6.9-3.5,10.7s-3.7,7.8-6.1,11.9c-2.5,4.1-5.2,8.1-8.2,12
	c-10,11.8-21.6,21.9-34.3,29.9l-3,1.7l-0.9,3.3c-0.8,2.8-1.5,5.5-2.3,8c-0.7,2.6-1.3,4.8-1.8,6.7c-0.3,1.1-0.6,2.1-0.7,2.9
	c1.2-1.7,2.6-3.6,4.2-5.6c2.3-2.8,4.8-5.6,7.5-8.1s5.6-4.7,8.5-6.5c3-1.8,6-2.8,8.9-2.8c4.3,0.1,6.4,3,6.4,8.5
	c0,1.7-0.3,3.6-0.8,5.7c-0.5,2-1.4,5.2-2.8,9.4c-1.2,3.8-2,6.7-2.3,8.5c-0.3,1.7-0.3,2.9,0.1,3.8c0.3,0.7,0.4,0.9,0.5,0.9l0,0
	c0,0,0.3,0.1,1,0.1h1.3c2-0.2,5.2-1.6,9.6-4c4.4-2.5,9-5.6,13.6-9.2c2.3-1.9,5.2-4.5,8.7-7.8s6.5-6.5,9.1-9.6
	c1.6-1.7,2.7-2.9,3.4-3.6c0.7-0.7,1.2-1,1.7-1c0.1,0,0.1,0,0.2,0c0.6,0,1,0.2,1.3,0.5l0.2,0.2V92c0,0.2-0.1,0.4-0.8,1.7
	c-0.5,0.8-1.2,1.8-2.2,3s-2,2.5-3.2,3.8s-2.4,2.7-3.6,4c-1.7,1.9-4.1,4.3-7.4,7.4c-3.2,3-6.8,6-10.6,8.9c-3.8,2.9-7.6,5.4-11.4,7.5
	c-3.9,2.1-7.3,3.2-10.2,3.2c-1.4,0-2.6-0.2-3.6-0.7c-2.1-1-3.4-3.1-4-6.3c-0.5-2.1-0.4-4.5,0.3-7.2c0.6-2.6,1.8-6.2,3.4-10.7
	c1.2-3.3,2.1-5.5,2.5-6.9c0.4-1.3,0.6-2.5,0.6-3.6c0-1.8-0.7-2.6-2.2-2.6c-1.7,0-3.6,0.6-5.6,1.8c-2.1,1.3-4.2,2.8-6.3,4.5
	c-2,1.8-4,3.6-5.8,5.5s-3.3,3.4-4.2,4.6c-1,1.3-2,2.8-3.1,4.3c-1.1,1.6-2,3.1-2.9,4.5s-1.6,2.7-2.1,3.8c-0.7,1.4-0.8,1.9-0.8,2.1
	c0,0.9-0.5,1.4-1.4,1.4c-0.5,0-0.9-0.2-1.3-0.5c-0.3-0.3-0.7-1-0.7-3.4c0-1.6,0.1-3.6,0.3-6c0.2-2.4,0.6-5,1.1-7.8s1.1-5.6,1.8-8.3
	c0.5-2.2,1-4.6,1.7-7.2c-6.8,6.5-13.9,11.4-21.2,14.7c-7.5,3.4-16.1,5.1-25.6,5.1l-8,0.2l-2.2,1.3c-2.5,1.5-5.2,2.8-8.1,3.9
	c-2.9,1.1-5.4,1.8-7.3,2c-1.1,0.1-1.4,0.3-1.5,0.3s-0.3,0.2-0.5,0.8c-1.2,3.7-3.1,9.5-5.6,17.1c-2.5,7.7-5.8,18.5-10.1,32.8
	C206.2,176.1,205.4,176.6,204.8,176.6z M18.9,79.9c-4,9-7.1,16.8-9.1,23.1s-3.4,11.9-3.9,16.5c-0.9,7.7,0.6,12.3,4.3,13.7
	c0.6,0.2,1.2,0.3,2,0.3c1.9,0,3.7-0.4,5.4-1.3c1.7-0.9,3.7-2.2,5.7-3.9c2.1-1.8,4.3-3.9,6.5-6.3c2.2-2.4,4.4-5.1,6.6-7.8
	c2.1-2.7,4.1-5.6,5.7-8.5c1.8-2.9,3.2-5.5,4.3-7.7c0.7-1.5,1.1-2.3,1.2-2.7c-4.9-0.1-9.5-1.4-13.9-3.7c-4.6-2.5-8.5-5.6-11.8-9.2
	l-2.8-3L18.9,79.9z M231.7,112.4c-1.9,0-2.8,0.3-3.2,0.5c-0.5,0.3-1,0.9-1.4,1.7l0.7-0.2c1.5-0.4,3.3-1,5.3-1.7l0.7-0.3h-0.4H231.7z
	 M233.5,108c1.4,0,2.8,0.1,4.2,0.2c1.3,0.1,2.3,0.3,3.1,0.5c0.1-0.1,0.5-0.2,1.1-0.6c0.8-0.5,1.7-1.1,2.7-1.7
	c3.2-2.1,6.3-4.7,9.2-7.9c2.9-3.2,4.7-5.8,5.5-8c0.8-2,0.9-3.4,0.4-4.2c-0.3-0.5-1-0.7-2-0.7h-0.5c-2,0.3-4.3,1.3-6.7,3
	c-2.5,1.7-5,3.7-7.5,6c-2.4,2.3-4.7,4.6-6.8,7.1c-2.1,2.4-3.7,4.5-4.9,6.3l-0.1,0.3h2.3V108z M64.2,96.8c-0.2,0.7-0.4,1.7-0.7,2.8
	c-0.3,1.2-0.4,2.3-0.4,3.1c0,2.4,0.9,2.4,1.2,2.4c0.8,0,1.5-0.2,2.2-0.7c1.2-0.6,2.3-1.3,3.4-2.1c1.1-0.8,1.9-1.6,2.5-2.3l0.3-0.5
	L70.9,99c-0.9-0.2-1.9-0.5-2.8-0.9c-1-0.3-1.7-0.6-2.3-0.8C64.9,97.1,64.4,96.9,64.2,96.8z M65.3,93.3c0.2,0.1,0.5,0.3,1.1,0.5
	c1,0.4,2.1,0.9,3.3,1.2c1.2,0.4,2.4,0.7,3.5,1.1c0.9,0.3,1.3,0.3,1.5,0.3c0.2-0.2,0.5-0.6,1.1-1.6c1.4-3.1,2.1-6,2.1-8.6
	c0-1.5-0.1-2.1-0.1-2.4c-0.1-0.4-0.3-1.1-0.6-1.9c-1.1-2.1-2.7-3.2-4.8-3.3h-1c-1.5,0-3,0.3-4.4,1c-1.2,0.5-2.3,1.2-3.2,1.9
	c0.8,0.2,0.9,0.9,0.9,1.2c0,0.2,0,0.4-0.1,0.6c1.1-0.9,2.2-1.4,3.3-1.4c0.4,0,0.8,0.1,1,0.2c0.8,0.3,1.1,1,0.9,1.9
	c-0.1,0.7-0.6,1.8-1.4,3.3c-0.9,1.3-1.6,2.5-2.2,3.9C65.6,92.5,65.4,93,65.3,93.3z M21.9,75.7c0.2,0.5,0.6,1,1.2,1.8
	s1.3,1.6,2.1,2.5c0.8,0.9,1.7,1.7,2.5,2.5s1.6,1.4,2.2,2c2.2,1.6,4.9,3.2,8.1,4.6s6.2,2.1,9,2.1h2.6l1.2-2.8
	c1.9-4.4,3.5-8.9,4.7-13.4c1.3-4.5,2.2-8.9,2.9-13.2c0.2-1.3,0.4-2.9,0.5-4.5c0.1-1.7,0.2-3.5,0.2-5.1c0-1.7-0.1-3.3-0.2-5
	c-0.1-1.6-0.3-2.9-0.5-4c-0.4-2.4-1.2-4.8-2.1-7.2c-1-2.4-2.2-4.6-3.8-6.5c-1.5-1.9-3.3-3.6-5.4-4.9c-2-1.3-4.4-2-7.1-2.1
	c-3,0-5.7,0.5-7.9,1.4s-4.5,2.4-6.8,4.5c-4.3,4.1-7.5,9.4-9.3,15.5c-1.8,6.2-1.9,12.5-0.4,18.7c0.5,2.4,0.8,3.4,1,3.9
	c0.3-0.4,0.9-1.3,1.9-3.2c2.1-3.8,4.3-7.5,6.6-10.9s4.5-6.5,6.7-9.2c2.2-2.6,4.2-4.8,6-6.3c1.9-1.7,3.4-2.5,4.6-2.5
	c2.1,0,2.5,1.1,2.6,1.8c0.1,1-0.4,2.2-1.6,3.7c-3.2,3.5-6.7,8.1-10.2,13.5c-3.3,5.1-6.5,10.6-9.3,16.2l-2.7,5.1L21.9,75.7z
	 M354.6,13.4c-2.2,0-4.6,0.8-7.1,2.5c-2.6,1.7-5,3.8-7.3,6.2s-4.5,5-6.4,7.6s-3.4,4.9-4.4,6.6c-0.8,1.4-1.8,3.2-3.1,5.5
	c-1.3,2.3-2.6,4.8-3.9,7.4c-1.3,2.6-2.6,5.2-3.8,7.6c-1.2,2.4-2.1,4.4-2.7,6c-1.1,2.9-2.3,6.1-3.7,9.6c-1.3,3.5-2.6,7.1-3.8,10.6
	l-1.3,3.7l0.1-0.1c0.3-0.2,0.9-0.6,1.8-1.2s1.8-1.2,2.7-1.8c5.8-4.1,11.6-8.8,17-14.1c5.5-5.2,10.2-10.6,14.1-15.9
	c2.8-3.7,5.3-7.5,7.4-11.4s3.9-7.7,5.1-11.2c1.3-3.5,2.1-6.7,2.4-9.5c0.3-2.7,0.1-4.9-0.6-6.4C356.6,13.9,355.9,13.4,354.6,13.4z
	 M303.3,177.9l-9.8,5.7l-6.8-3.9l10.6-4.7c0,0,0,0,0.1-0.1c0.2-0.1,0.3-0.2,0.4-0.3l0.1-0.1c0.1-0.1,0.2-0.3,0.3-0.5l0,0
	c0.1-0.1,0.1-0.3,0.1-0.4c0-0.1,0-0.2,0-0.3s0-0.2,0-0.3s0-0.3-0.1-0.4l0,0c0-0.1-0.1-0.1-0.1-0.2c-0.1-0.1-0.1-0.2-0.2-0.3
	s-0.2-0.2-0.3-0.2c-0.1,0-0.1-0.1-0.2-0.1l-10.6-4.7l6.8-3.9l9.8,5.7c0.3,0.2,0.6,0.2,0.9,0.2c0.6,0,1.2-0.3,1.5-0.9
	c0.5-0.8,0.2-1.9-0.6-2.4l-8.1-4.7l6.7-3.8c0.8-0.5,1.1-1.5,0.6-2.4c-0.5-0.8-1.5-1.1-2.4-0.6l-6.7,3.9v-9.3c0-1-0.8-1.7-1.7-1.7
	l0,0c-1,0-1.7,0.8-1.7,1.8l0.1,11.3l-6.9,4l1.3-11.9c0-0.1,0-0.2,0-0.3s0-0.3,0-0.4c0-0.1-0.1-0.3-0.2-0.4c0-0.1-0.1-0.1-0.1-0.2
	l0,0c-0.1-0.1-0.2-0.2-0.3-0.3c-0.1-0.1-0.1-0.1-0.2-0.2c-0.1,0-0.1,0-0.2-0.1s-0.3-0.1-0.5-0.1l0,0c-0.1,0-0.2,0-0.3,0
	c-0.1,0-0.2,0-0.3,0c-0.2,0-0.4,0.1-0.5,0.2h-0.1l0,0l0,0l-9.3,7v-7.7l9.8-5.6c0.8-0.5,1.1-1.5,0.6-2.4c-0.5-0.8-1.5-1.1-2.4-0.6
	l-8.1,4.6v-7.7c0-1-0.8-1.7-1.7-1.7s-1.7,0.8-1.7,1.7v7.7l-8.1-4.6c-0.8-0.5-1.9-0.2-2.4,0.6s-0.2,1.9,0.6,2.4l9.8,5.6v7.7l-9.4-7.1
	c-0.1-0.1-0.1-0.1-0.2-0.1c-0.1-0.1-0.2-0.1-0.4-0.2c-0.1,0-0.2,0-0.3,0c-0.1,0-0.2,0-0.3,0l0,0c-0.2,0-0.3,0.1-0.5,0.1
	c-0.1,0-0.1,0-0.2,0.1c-0.1,0-0.1,0.1-0.2,0.2c-0.1,0.1-0.2,0.2-0.3,0.3l0,0c0,0.1-0.1,0.1-0.1,0.2c-0.1,0.1-0.1,0.2-0.2,0.4
	c0,0.1,0,0.2,0,0.4c0,0.1,0,0.2,0,0.3l1.3,11.9l-6.9-4l0.1-11.3c0-1-0.8-1.7-1.7-1.8l0,0c-1,0-1.7,0.8-1.7,1.7v9.3l-6.7-3.9
	c-0.8-0.5-1.9-0.2-2.4,0.6s-0.2,1.9,0.6,2.4l6.7,3.8l-8.1,4.7c-0.8,0.5-1.1,1.5-0.6,2.4c0.3,0.6,0.9,0.9,1.5,0.9
	c0.3,0,0.6-0.1,0.9-0.2l9.8-5.7l6.8,3.9l-10.6,4.7c-0.1,0-0.1,0.1-0.2,0.1c-0.1,0.1-0.2,0.1-0.3,0.2c-0.1,0.1-0.2,0.2-0.2,0.3
	s-0.1,0.1-0.1,0.2l0,0c-0.1,0.1-0.1,0.3-0.1,0.4c0,0.1,0,0.2,0,0.3s0,0.2,0,0.3s0,0.3,0.1,0.4l0,0c0.1,0.2,0.2,0.3,0.3,0.5l0.1,0.1
	c0.1,0.1,0.3,0.2,0.4,0.3c0,0,0,0,0.1,0.1l10.6,4.7l-7.5,4l-9.8-5.7c-0.8-0.5-1.9-0.2-2.4,0.6s-0.2,1.9,0.6,2.4l8.1,4.7l-6.7,3.8
	c-0.8,0.5-1.1,1.5-0.6,2.4c0.3,0.6,0.9,0.9,1.5,0.9c0.3,0,0.6-0.1,0.9-0.2l6.7-3.9v9.3c0,1,0.8,1.7,1.7,1.7l0,0c1,0,1.7-0.8,1.7-1.8
	l-0.1-11.3l6.9-4l-1.3,11.9c0,0.1,0,0.2,0,0.3s0,0.3,0,0.4c0,0.1,0.1,0.3,0.2,0.4c0,0.1,0.1,0.1,0.1,0.2l0,0
	c0.1,0.1,0.2,0.2,0.3,0.3c0.1,0.1,0.1,0.1,0.2,0.2c0.1,0,0.2,0,0.2,0.1c0.1,0.1,0.3,0.1,0.4,0.1l0,0c0.1,0,0.1,0,0.2,0s0.1,0,0.2,0
	s0.2,0,0.3-0.1c0.1,0,0.2-0.1,0.4-0.2c0.1,0,0.1,0,0.2-0.1l9.4-7.1v7.7l-9.8,5.6c-0.8,0.5-1.1,1.5-0.6,2.4c0.5,0.8,1.5,1.1,2.4,0.6
	l8.1-4.6v7.7c0,1,0.8,1.7,1.7,1.7s1.7-0.8,1.7-1.7v-7.7l8.1,4.6c0.3,0.2,0.6,0.2,0.9,0.2c0.6,0,1.2-0.3,1.5-0.9
	c0.5-0.8,0.2-1.9-0.6-2.4l-9.8-5.6v-7.7l9.4,7.1c0.1,0.1,0.2,0.1,0.3,0.1c0.1,0,0.1,0.1,0.2,0.1c0.2,0.1,0.4,0.1,0.6,0.1
	c0.1,0,0.1,0,0.2,0s0.3-0.1,0.4-0.1s0.2,0,0.2-0.1c0.2-0.1,0.4-0.3,0.6-0.5l0,0c0-0.1,0.1-0.1,0.1-0.2c0.1-0.1,0.1-0.2,0.2-0.4
	c0-0.1,0-0.2,0-0.4c0-0.1,0-0.2,0-0.3l-1.3-12l6.9,4l-0.1,11.3c0,1,0.8,1.7,1.7,1.8l0,0c1,0,1.7-0.8,1.7-1.7v-9.3l6.7,3.9
	c0.3,0.2,0.6,0.2,0.9,0.2c0.6,0,1.2-0.3,1.5-0.9c0.5-0.8,0.2-1.9-0.6-2.4l-6.7-3.8l8.1-4.7c0.8-0.5,1.1-1.5,0.6-2.4
	C305.2,177.7,304.1,177.4,303.3,177.9z M292.2,173.4l-9.3,4.1l-7.2-4.1l7.2-4.1L292.2,173.4z M282.2,155.8l-1.1,10.4l-7.2,4.1V162
	L282.2,155.8z M262.1,155.8l8.3,6.2v8.3l-7.2-4.1L262.1,155.8z M252.1,173.4l9.4-4.1l7.2,4.1l-7.2,4.1L252.1,173.4z M262.1,190.9
	l1.1-10.4l7.2-4.1v8.3L262.1,190.9z M282.2,191l-8.3-6.3v-8.3l7.2,4.1L282.2,191z"/>
</svg>
